SplineFontDB: 3.0
FontName: Norasi-BoldOblique
FullName: Norasi Bold Oblique
FamilyName: Norasi
Weight: Bold
Copyright: Copyright (C) 1999, The National Font Project (v.beta). Yannis Haralambous, Virach Sornlertlamvanich and Anutara Tantraporn. All rights reserved.\n\nModified under GNU General Public License, with creators' permission, by Thai Linux Working Group (TLWG).
Version: 004.013: 2012-02-13
ItalicAngle: -12
UnderlinePosition: -100
UnderlineWidth: 50
Ascent: 800
Descent: 200
LayerCount: 2
Layer: 0 0 "Back"  1
Layer: 1 0 "Fore"  0
NeedsXUIDChange: 1
FSType: 0
OS2Version: 0
OS2_WeightWidthSlopeOnly: 0
OS2_UseTypoMetrics: 0
CreationTime: 1153665622
ModificationTime: 1329130779
PfmFamily: 17
TTFWeight: 700
TTFWidth: 5
LineGap: 0
VLineGap: 0
Panose: 2 7 8 6 6 0 0 2 0 4
OS2TypoAscent: 0
OS2TypoAOffset: 1
OS2TypoDescent: 0
OS2TypoDOffset: 1
OS2TypoLinegap: 0
OS2WinAscent: 1216
OS2WinAOffset: 0
OS2WinDescent: 488
OS2WinDOffset: 0
HheadAscent: 1216
HheadAOffset: 0
HheadDescent: -488
HheadDOffset: 0
OS2Vendor: 'PfEd'
Lookup: 4 0 1 "'liga' Standard Ligatures lookup 2"  {"'liga' Standard Ligatures lookup 2 subtable"  } ['liga' ('DFLT' <'dflt' > ) ]
Lookup: 4 0 1 "'liga' Standard Ligatures in Latin lookup 3"  {"'liga' Standard Ligatures in Latin lookup 3 subtable"  } ['liga' ('latn' <'dflt' > ) ]
Lookup: 4 0 0 "'frac' Diagonal Fractions lookup 4"  {"'frac' Diagonal Fractions lookup 4 subtable"  } ['frac' ('DFLT' <'dflt' > ) ]
Lookup: 6 0 0 "'ccmp' Thai Conditional Descender Removal"  {"'ccmp' Thai Conditional Descender Removal"  } ['ccmp' ('DFLT' <'dflt' > 'thai' <'KUY ' 'THA ' 'dflt' > ) ]
Lookup: 1 0 0 "'ccmp' Pali-Sanskrit Descender Removal"  {"'ccmp' Pali-Sanskrit Descender Removal" ("descless" ) } ['ccmp' ('thai' <'PAL ' 'SAN ' > ) ]
Lookup: 6 0 0 "'ccmp' Thai General Composition"  {"'ccmp' Thai Below Vowel Tone Reordering"  "'ccmp' Thai General Composition"  } ['ccmp' ('DFLT' <'dflt' > 'thai' <'KUY ' 'PAL ' 'SAN ' 'THA ' 'dflt' > ) ]

StartChar: .notdef
Encoding: 65536 -1 0
Width: 366
Flags: W
HStem: 0 22<22 344> 542 22<22 344>
VStem: 0 22<22 542> 344 22<22 542>
LayerCount: 2
Fore
SplineSet
22 542 m 1
 22 22 l 1
 344 22 l 1
 344 542 l 1
 22 542 l 1
366 0 m 1
 0 0 l 1
 0 564 l 1
 366 564 l 1
 366 0 l 1
EndSplineSet
EndChar

StartChar: exclam
Encoding: 33 33 2
Width: 332
Flags: W
HStem: -13 170<140.83 223.76> 671 20G<267 334>
VStem: 95 172<29.6865 112.559> 202 177<539.564 635.25>
LayerCount: 2
Back
SplineSet
158.066 52.9277 m 0
 154.491 36.4766 145.192 22.1719 131.604 10.7285 c 0
 118.014 0 103.709 -5.72168 89.4043 -5.72168 c 0
 54.3574 -5.72168 40.7686 13.5898 50.0664 52.9277 c 0
 56.5039 90.1191 77.9609 111.576 114.438 117.299 c 1
 151.63 117.299 165.934 95.8418 158.066 52.9277 c 0
268.212 585.776 m 1
 258.915 549.3 l 1
 142.332 170.226 l 1
 111.576 170.226 l 1
 122.305 248.901 130.888 316.133 136.609 371.207 c 0
 143.047 426.28 148.768 474.916 153.774 515.685 c 0
 154.491 527.127 155.921 538.572 156.637 549.3 c 0
 160.928 581.486 l 0
 175.947 643.711 199.55 675.182 233.167 675.182 c 0
 268.929 675.182 281.088 647.288 269.644 590.068 c 1
 268.212 585.776 l 1
EndSplineSet
Fore
SplineSet
95 53 m 0xe0
 95 110 151 157 199 157 c 0
 240 157 267 127 267 89 c 0
 267 32 214 -13 163 -13 c 0
 122 -13 95 15 95 53 c 0xe0
202 554 m 0xd0
 202 588 222 691 312 691 c 0
 356 691 379 666 379 624 c 0
 379 530 333 550 230 234 c 1
 201 234 l 1
 208 305 211 352 211 395 c 0
 211 480 202 539 202 554 c 0xd0
EndSplineSet
EndChar

StartChar: quotedbl
Encoding: 34 34 3
Width: 553
Flags: W
HStem: 404 287<240.613 262.918>
VStem: 211 136<568.892 660.387> 473 133<567.747 663.184> 473 41<404 448.608>
LayerCount: 2
Back
SplineSet
420.558 570.042 m 1
 349.75 384.081 l 1
 307.551 384.081 l 1
 308.266 424.85 309.697 457.75 310.412 482.783 c 0
 311.843 507.816 312.558 527.127 313.272 540.718 c 0
 314.703 554.307 315.418 563.605 315.418 570.042 c 0
 316.133 575.763 316.85 580.77 317.564 584.347 c 0
 324.717 617.963 345.458 634.412 380.505 634.412 c 0
 414.836 634.412 429.141 617.963 423.418 584.347 c 2
 420.558 570.042 l 1
265.352 570.042 m 1
 193.113 384.081 l 1
 152.345 384.081 l 1
 153.06 424.85 154.491 457.75 155.206 482.783 c 0
 155.921 507.816 157.352 527.127 158.066 540.718 c 0
 159.498 554.307 160.213 563.605 160.213 570.042 c 0
 160.928 575.763 161.644 580.77 162.358 584.347 c 0
 169.511 617.963 190.253 634.412 225.3 634.412 c 0
 259.63 634.412 273.936 617.963 268.212 584.347 c 2
 265.352 570.042 l 1
EndSplineSet
Fore
SplineSet
347 639 m 0xc0
 347 619 342 604 255 404 c 1
 214 404 l 1
 210 456 211 487 211 532 c 0
 211 574 212 606 215 620 c 0
 224 664 255 691 293 691 c 0
 327 691 347 669 347 639 c 0xc0
606 639 m 0xe0
 606 621 604 609 514 404 c 1
 473 404 l 1
 473 441 l 2xd0
 473 477 470 517 470 545 c 0
 470 582 472 608 475 620 c 0
 483 664 516 691 554 691 c 0
 586 691 606 669 606 639 c 0xe0
EndSplineSet
EndChar

StartChar: numbersign
Encoding: 35 35 4
Width: 499
Flags: W
HStem: 0 21G<70 156.081 262 346.986> 209 74<64 144 249 335 439 511> 417 74<138 218 321 409 513 586>
DStem2: 70 0 149 0 0.333947 0.942592<26.3818 221.714 326.53 442.485 546.633 742.633> 262 0 340 0 0.333947 0.942592<26.0479 221.38 325.862 442.151 546.633 742.633>
LayerCount: 2
Back
SplineSet
276.796 286.81 m 1
 376.213 286.81 l 1
 413.406 389.803 l 1
 314.703 389.803 l 1
 276.796 286.81 l 1
596.506 389.803 m 1
 497.804 389.803 l 1
 458.465 286.81 l 1
 550.731 286.81 l 1
 532.851 208.134 l 1
 429.141 208.134 l 1
 357.618 0 l 1
 273.936 0 l 1
 345.458 208.134 l 1
 247.471 208.134 l 1
 173.087 0 l 1
 90.835 0 l 1
 162.358 208.134 l 1
 64.3711 208.134 l 1
 82.252 286.81 l 1
 194.543 286.81 l 1
 231.735 389.803 l 1
 130.173 389.803 l 1
 146.624 468.479 l 1
 261.062 468.479 l 1
 331.153 662.307 l 1
 411.26 662.307 l 1
 342.598 468.479 l 1
 440.584 468.479 l 1
 509.963 662.307 l 1
 591.499 662.307 l 1
 522.837 468.479 l 1
 612.241 468.479 l 1
 596.506 389.803 l 1
EndSplineSet
Fore
SplineSet
527 283 m 1
 511 209 l 1
 413 209 l 1
 340 0 l 1
 262 0 l 1
 335 209 l 1
 223 209 l 1
 149 0 l 1
 70 0 l 1
 144 209 l 1
 48 209 l 1
 64 283 l 1
 171 283 l 1
 218 417 l 1
 123 417 l 1
 138 491 l 1
 243 491 l 1
 318 700 l 1
 395 700 l 1
 321 491 l 1
 434 491 l 1
 510 700 l 1
 586 700 l 1
 513 491 l 1
 601 491 l 1
 586 417 l 1
 488 417 l 1
 439 283 l 1
 527 283 l 1
409 417 m 1
 296 417 l 1
 249 283 l 1
 362 283 l 1
 409 417 l 1
EndSplineSet
EndChar

StartChar: dollar
Encoding: 36 36 5
Width: 499
Flags: W
HStem: 642 32<413 444.579>
VStem: 88 20<166.676 196> 130 110<422 545.744> 394 125<140.392 291.5> 510 20<480 513.367>
DStem2: 193 -100 249 -100 0.207912 0.978148<11.6431 102.181 143.23 369.172 566.012 761.362 802.827 869.057>
LayerCount: 2
Back
SplineSet
306.12 444.161 m 1
 345.458 628.69 l 1
 296.106 616.531 265.352 587.208 254.623 540.718 c 0
 253.193 529.988 253.193 519.26 254.623 508.531 c 0
 256.77 497.804 260.345 489.936 265.352 484.93 c 2
 306.12 444.161 l 1
391.233 162.358 m 0
 396.955 190.968 392.663 216.001 377.643 237.457 c 0
 374.067 241.034 368.346 246.041 361.908 252.478 c 0
 354.757 258.915 345.458 267.497 332.584 278.226 c 1
 285.378 57.2188 l 1
 344.027 70.0928 379.074 105.14 391.233 162.358 c 0
497.804 185.961 m 0
 475.631 84.3975 400.532 23.6025 273.936 2.86133 c 1
 256.055 -83.6826 l 1
 195.975 -83.6826 l 1
 213.854 0 l 1
 152.345 2.86133 96.5566 22.1719 47.2051 57.2188 c 1
 79.3906 206.702 l 1
 118.729 206.702 l 1
 118.729 110.861 154.491 60.0801 225.3 54.3574 c 1
 279.656 311.843 l 1
 257.484 328.292 238.174 343.312 222.438 356.901 c 0
 206.702 369.775 193.828 382.649 183.1 394.094 c 1
 153.774 433.432 143.762 475.631 153.774 521.406 c 0
 163.788 571.473 191.683 611.524 237.457 642.996 c 0
 256.77 655.87 276.081 665.169 296.106 672.319 c 0
 315.418 679.473 336.16 683.765 359.048 685.194 c 1
 373.353 748.85 l 1
 433.432 748.85 l 1
 419.128 682.333 l 1
 483.498 670.891 l 2
 499.233 668.029 514.253 660.877 529.273 649.433 c 0
 545.008 638.704 555.021 627.976 559.313 617.963 c 1
 532.851 496.372 l 1
 493.512 496.372 l 1
 496.372 574.333 467.764 619.394 406.969 630.122 c 1
 360.479 408.399 l 1
 430.57 357.618 l 1
 474.916 314.703 l 1
 500.664 278.941 508.531 236.027 497.804 185.961 c 0
EndSplineSet
Fore
SplineSet
360 426 m 1xe8
 423 390 519 340 519 243 c 0xf0
 519 47 337 12 270 0 c 1
 249 -100 l 1
 193 -100 l 1
 214 0 l 1
 152 3 129 9 54 42 c 1
 88 199 l 1
 108 196 l 1
 119 89 148 44 218 29 c 1
 272 281 l 1
 173 338 130 388 130 456 c 0
 130 543 183 609 253 645 c 1
 287 661 311 666 357 672 c 1
 374 750 l 1
 429 750 l 1
 413 674 l 1
 488 661 519 650 560 623 c 1
 530 480 l 1
 510 480 l 1
 501 582 473 625 406 642 c 1
 360 426 l 1xe8
322 250 m 1
 275 29 l 1
 384 51 394 133 394 166 c 0
 394 198 376 215 322 250 c 1
350 645 m 1
 292 630 240 601 240 535 c 0
 240 498 262 472 309 454 c 1
 350 645 l 1
EndSplineSet
EndChar

StartChar: percent
Encoding: 37 37 6
Width: 998
Flags: W
HStem: -15 47<630.5 746.982> -7 21G<277 348.501> 294 46<284 401.698> 321 51<809.449 892.875> 584 39<588.057 731.528> 631 47<463.173 538.269> 671 20G<834 874>
VStem: 212 107<343.245 439.225> 557 112<35.4638 136.726> 899 36<204.731 313.961>
DStem2: 277 -7 333 -7 0.612607 0.790388<34.306 783.301 812.339 897.048>
LayerCount: 2
Back
SplineSet
437.724 559.313 m 0
 439.869 567.181 439.869 579.34 437.724 594.36 c 1
 423.418 600.797 409.829 607.949 396.955 616.531 c 2
 386.941 623.684 l 1
 357.618 620.823 323.286 592.929 283.948 539.287 c 0
 265.352 512.823 250.331 488.505 238.889 466.332 c 0
 226.729 444.876 219.576 424.135 215.286 405.537 c 0
 206.702 364.769 217.432 344.027 248.901 344.027 c 0
 288.239 344.027 327.577 369.775 367.631 421.988 c 0
 386.227 445.591 401.247 468.479 413.406 491.365 c 0
 424.85 514.253 433.432 537.141 437.724 559.313 c 0
756.002 263.922 m 0
 761.009 283.232 759.579 299.684 753.142 313.272 c 0
 745.989 326.863 733.831 334.014 715.95 334.014 c 0
 683.05 334.014 643.711 303.976 599.367 243.181 c 1
 562.889 190.253 541.433 148.768 534.995 117.299 c 0
 525.697 75.8145 537.857 55.7881 571.473 55.7881 c 0
 607.234 55.7881 645.856 80.8213 687.34 131.604 c 0
 706.651 154.491 721.672 175.947 732.4 197.405 c 0
 743.128 219.576 750.996 241.034 756.002 263.922 c 0
811.791 271.074 m 0
 797.487 207.419 766.732 148.768 719.525 95.126 c 0
 664.452 31.4707 605.803 0 543.578 0 c 0
 498.519 0 467.764 13.5898 450.598 40.7686 c 0
 433.432 68.6621 429.141 103.709 437.724 148.053 c 0
 450.598 204.557 485.645 259.63 542.147 313.272 c 0
 600.797 366.2 658.73 392.663 715.95 392.663 c 0
 797.487 392.663 828.957 351.895 811.791 271.074 c 0
774.6 693.062 m 1
 231.735 -10.0137 l 1
 153.774 -10.0137 l 1
 615.102 587.208 l 1
 587.208 579.34 561.459 575.763 539.287 575.763 c 0
 529.988 575.763 522.121 575.763 514.253 575.763 c 0
 506.386 575.763 498.519 576.479 490.65 578.625 c 1
 490.65 556.453 l 1
 485.645 534.28 478.491 512.107 469.193 489.936 c 0
 459.896 467.764 447.021 445.591 430.57 423.418 c 0
 424.135 412.689 411.975 398.386 395.525 380.505 c 0
 339.021 317.564 278.941 285.378 215.286 285.378 c 0
 174.518 285.378 145.908 299.684 129.457 328.292 c 0
 113.723 356.187 110.146 391.233 118.729 432.002 c 0
 130.173 490.65 164.504 547.154 221.008 600.797 c 0
 276.796 653.01 335.445 679.473 396.955 679.473 c 0
 420.558 679.473 444.876 670.176 469.909 650.148 c 1
 501.379 634.412 526.412 627.261 545.008 627.261 c 0
 593.644 627.261 647.288 648.718 705.937 693.062 c 1
 774.6 693.062 l 1
EndSplineSet
Fore
SplineSet
557 88 m 0x99c0
 557 216 711 372 841 372 c 0
 899 372 935 338 935 286 c 0
 935 172 800 -15 665 -15 c 0
 596 -15 557 25 557 88 c 0x99c0
861 321 m 0
 779 321 669 123 669 70 c 0
 669 45 683 32 709 32 c 0
 788 32 899 194 899 271 c 0
 899 300 885 321 861 321 c 0
494 678 m 0x6dc0
 567 678 547 623 650 623 c 0
 710 623 791 650 820 681 c 0
 826 688 832 691 836 691 c 2
 874 691 l 1x0bc0
 333 -7 l 1
 277 -7 l 1
 757 612 l 1
 710 595 671 584 637 584 c 0
 623 584 611 586 590 590 c 1
 571 501 543 445 486 382 c 0
 435 325 376 294 316 294 c 0
 252 294 212 335 212 397 c 0
 212 524 362 678 494 678 c 0x6dc0
504 631 m 0x2dc0
 441 631 319 426 319 381 c 0
 319 357 333 340 357 340 c 0
 390 340 422 359 458 401 c 1
 516 464 554 547 554 583 c 0
 554 596 548 605 533 612 c 0
 524 617 514 631 504 631 c 0x2dc0
EndSplineSet
EndChar

StartChar: ampersand
Encoding: 38 38 7
Width: 832
Flags: W
HStem: -16 101<594.5 738.5> -15 77<201 388> 395 24<666 712.196 816.675 867> 658 33<474.833 552.998>
VStem: 91 162<83 261> 315 133<480.5 581.062> 583 108<524.813 634.019>
DStem2: 505 423 352 357 0.435476 -0.9002<0 238.803 269.214 278.54>
LayerCount: 2
Back
SplineSet
524.267 552.161 m 0
 529.273 571.473 527.127 587.922 518.545 601.513 c 0
 509.963 614.387 496.372 620.823 477.776 620.823 c 0
 438.438 620.823 413.406 597.221 402.677 549.3 c 0
 399.101 531.419 396.955 513.538 397.67 494.227 c 0
 398.386 475.631 401.247 454.89 406.969 432.002 c 1
 476.346 467.049 515.685 507.101 524.267 552.161 c 0
266.782 61.5098 m 0
 297.537 61.5098 340.452 79.3906 394.094 114.438 c 1
 378.359 139.471 363.339 170.226 348.319 205.272 c 0
 334.014 240.318 318.994 279.656 304.69 324.001 c 1
 238.889 276.796 l 1
 222.438 262.49 209.563 246.756 200.98 231.735 c 0
 191.683 216.001 185.961 200.98 183.1 185.961 c 0
 175.947 153.774 180.954 125.166 195.975 99.418 c 0
 211.709 74.3848 235.312 61.5098 266.782 61.5098 c 0
760.294 113.007 m 1
 749.566 90.1191 735.261 70.0928 718.095 52.9277 c 1
 693.062 32.1855 669.459 16.4502 645.856 5.72168 c 0
 622.254 -5.00684 597.936 -10.0137 572.902 -10.0137 c 0
 522.121 -10.0137 472.771 16.4502 424.85 68.6621 c 1
 359.048 26.4639 l 2
 349.034 20.7422 337.591 15.0195 324.717 10.0137 c 0
 311.126 5.72168 297.537 1.43066 282.518 -1.43066 c 0
 268.212 -4.29102 253.193 -6.4375 238.889 -7.86719 c 0
 223.868 -9.29785 210.279 -10.0137 197.405 -10.0137 c 0
 143.762 -10.0137 104.424 2.86133 79.3906 30.04 c 0
 53.6426 57.2188 47.2051 97.2715 58.6494 150.914 c 0
 75.8145 231.735 143.762 303.259 261.062 364.769 c 2
 291.816 380.505 l 1
 286.81 420.558 284.663 449.883 284.663 467.049 c 0
 285.378 484.93 286.81 499.233 288.239 509.963 c 0
 293.246 532.134 301.829 553.592 313.987 573.618 c 0
 326.146 593.644 341.167 610.81 359.048 626.545 c 0
 376.213 641.564 396.24 653.01 417.696 662.307 c 0
 439.154 670.891 461.325 675.182 484.93 675.182 c 0
 524.981 675.182 556.453 664.452 580.055 642.281 c 0
 603.657 620.108 610.81 588.637 602.228 547.869 c 0
 592.929 502.811 566.466 464.188 521.406 430.57 c 0
 513.538 424.135 501.379 416.267 484.93 406.969 c 0
 468.479 398.386 447.021 388.373 421.988 376.213 c 1
 439.154 314.703 464.188 258.915 494.942 208.134 c 1
 526.412 240.318 550.731 268.929 567.896 294.677 c 0
 584.347 319.71 595.075 341.167 599.367 359.048 c 0
 603.657 379.074 585.776 389.803 545.008 389.803 c 1
 553.592 436.294 l 1
 791.049 436.294 l 1
 782.467 391.233 l 1
 767.447 389.088 755.287 386.941 744.56 384.796 c 0
 734.546 381.935 726.679 379.789 722.387 377.643 c 0
 709.513 373.353 694.492 359.762 676.611 338.306 c 2
 644.426 296.106 l 2
 625.115 270.358 605.088 246.041 584.347 222.438 c 0
 563.605 199.55 543.578 176.662 522.837 155.206 c 1
 535.711 125.166 559.313 102.994 594.36 89.4043 c 1
 602.228 84.3975 614.387 82.252 631.552 82.252 c 0
 650.148 82.252 665.169 85.1133 678.043 92.2656 c 0
 685.194 94.4111 692.347 99.418 700.214 107.285 c 0
 708.081 114.438 718.811 125.166 732.4 138.04 c 1
 760.294 113.007 l 1
EndSplineSet
Fore
SplineSet
315 495 m 0x7e
 315 613 415 691 548 691 c 0
 637 691 691 653 691 593 c 0
 691 512 616 460 505 423 c 1
 611 209 l 1
 655 251 719 311 719 368 c 0
 719 385 707 390 661 395 c 1
 666 419 l 1
 873 419 l 1
 867 395 l 1
 823 391 810 384 785 354 c 2
 749 311 l 2
 713 268 699 252 628 176 c 1
 668 104 688 85 727 85 c 0
 750 85 770 97 794 123 c 1
 810 111 l 1
 788 85 l 1
 735 20 692 -16 621 -16 c 0xbe
 568 -16 536 6 489 72 c 1
 395 12 324 -15 250 -15 c 0
 152 -15 91 41 91 125 c 0
 91 241 187 320 340 388 c 1
 322 437 315 466 315 495 c 0x7e
253 230 m 0
 253 155 296 62 375 62 c 0x7e
 401 62 428 72 473 100 c 1
 456 132 388 278 352 357 c 1
 277 321 253 292 253 230 c 0
494 453 m 1
 552 471 583 499 583 565 c 0
 583 618 555 658 514 658 c 0
 473 658 448 621 448 576 c 0
 448 542 463 505 494 453 c 1
EndSplineSet
EndChar

StartChar: quotesingle
Encoding: 39 39 8
Width: 188
Flags: W
HStem: 275 197<153.5 175.834>
VStem: 139 91<370.116 458.75> 139 28<275 300.253>
LayerCount: 2
Back
SplineSet
253.193 642.996 m 0
 251.763 645.142 248.187 646.571 243.896 646.571 c 0
 239.604 647.288 234.597 647.288 230.306 647.288 c 0
 213.14 647.288 197.405 641.564 183.1 630.122 c 0
 168.795 617.963 159.498 603.657 155.206 585.776 c 0
 151.63 569.327 154.491 555.738 164.504 544.293 c 0
 175.232 532.851 188.821 527.127 205.272 527.127 c 0
 210.279 527.127 213.854 527.844 217.432 527.844 c 0
 228.16 529.988 l 1
 226.729 522.837 l 2
 223.868 508.531 216.001 494.227 202.412 480.638 c 0
 188.821 467.049 174.518 455.604 160.928 447.021 c 0
 154.491 442.015 148.768 438.438 145.192 437.009 c 0
 140.901 435.577 139.471 434.862 139.471 434.862 c 1
 145.192 398.386 l 1
 145.192 398.386 151.63 401.247 163.788 406.969 c 0
 176.662 413.406 191.683 421.988 208.134 434.147 c 0
 224.583 446.307 241.034 462.042 256.055 480.638 c 0
 271.789 499.233 282.518 521.406 288.239 547.869 c 0
 294.677 572.188 293.246 592.214 285.378 608.664 c 0
 277.511 624.4 266.782 636.559 253.193 642.996 c 0
EndSplineSet
Fore
SplineSet
230 438 m 0xc0
 230 425 233 418 167 275 c 1
 139 275 l 1
 139 362 l 2xa0
 139 391 139 416 141 423 c 0
 149 453 167 472 195 472 c 0
 217 472 230 458 230 438 c 0xc0
EndSplineSet
EndChar

StartChar: parenleft
Encoding: 40 40 9
Width: 332
Flags: W
VStem: 89 98<25.3916 231.264>
LayerCount: 2
Back
SplineSet
218.146 -177.379 m 1
 148.768 -126.597 102.278 -62.2256 78.6758 14.3047 c 0
 54.3574 91.5498 52.9277 177.379 72.9541 272.504 c 0
 111.576 453.458 223.153 596.506 408.399 703.074 c 1
 421.988 666.599 l 1
 362.624 624.4 317.564 583.632 286.81 543.578 c 0
 274.65 527.844 262.49 509.246 251.763 487.075 c 0
 241.034 464.902 231.021 442.015 221.008 417.696 c 0
 211.709 393.379 203.127 368.346 195.26 342.598 c 0
 188.106 317.564 182.385 293.246 177.379 271.074 c 0
 164.504 212.426 156.637 169.511 154.491 141.616 c 0
 152.345 113.723 152.345 90.835 155.206 72.9541 c 0
 162.358 25.0332 172.372 -16.4502 185.246 -51.4971 c 0
 198.835 -86.543 221.008 -116.583 251.763 -142.332 c 1
 218.146 -177.379 l 1
EndSplineSet
Fore
SplineSet
187 48 m 0
 187 -53 208 -90 277 -141 c 1
 271 -168 l 1
 185 -108 151 -69 119 3 c 1
 100 50 89 101 89 155 c 0
 89 207 100 418 305 599 c 0
 352 640 385 661 454 694 c 1
 448 666 l 1
 352 612 279 567 214 258 c 0
 196 171 187 103 187 48 c 0
EndSplineSet
EndChar

StartChar: parenright
Encoding: 41 41 10
Width: 332
Flags: W
VStem: 258 96<294.411 504.049>
LayerCount: 2
Back
SplineSet
11.4434 -178.809 m 1
 103.709 -128.027 177.379 -63.6562 234.597 12.874 c 0
 291.1 90.1191 329.007 175.947 348.319 271.074 c 0
 386.941 451.312 336.16 595.075 195.975 701.646 c 1
 168.795 665.169 l 1
 207.419 622.969 234.597 582.201 250.331 542.147 c 0
 256.055 526.412 260.345 507.816 261.775 485.645 c 0
 263.207 463.472 263.207 440.584 262.49 416.267 c 0
 261.062 391.233 258.915 366.915 255.338 341.167 c 0
 252.478 316.133 248.187 291.816 243.181 269.644 c 0
 237.457 240.318 231.735 215.286 226.015 193.828 c 0
 221.008 173.087 216.001 155.206 210.994 140.186 c 0
 205.987 124.451 201.695 111.576 196.688 100.848 c 0
 192.398 90.1191 187.392 80.8213 181.669 71.5234 c 0
 155.206 23.6025 128.027 -17.8809 99.418 -52.9277 c 0
 71.5234 -87.9736 35.7617 -118.014 -7.15234 -143.762 c 1
 11.4434 -178.809 l 1
EndSplineSet
Fore
SplineSet
174 694 m 1
 246 645 354 564 354 368 c 0
 354 210 275 44 139 -73 c 0
 92 -114 60 -135 -9 -168 c 1
 -3 -141 l 1
 87 -87 165 -47 231 268 c 0
 249 353 258 420 258 475 c 0
 258 579 237 612 168 666 c 1
 174 694 l 1
EndSplineSet
EndChar

StartChar: asterisk
Encoding: 42 42 11
Width: 499
Flags: W
HStem: 338 107<159.632 223.578> 505 101<186.422 273.536 475.808 544.708> 671 20G<385 410>
VStem: 173 113<520.75 592.652> 268 101<273.019 352.605> 335 102<595.695 674.447>
LayerCount: 2
Back
SplineSet
469.909 426.28 m 0
 463.472 431.287 454.89 434.862 444.876 437.724 c 0
 434.147 440.584 424.135 444.161 414.121 447.021 c 0
 403.393 449.883 394.094 452.743 384.796 456.319 c 0
 375.499 459.896 367.631 463.472 361.908 467.049 c 1
 369.775 471.339 379.074 474.199 389.803 477.062 c 0
 400.532 479.206 411.26 482.068 423.418 484.93 c 0
 434.862 487.79 446.307 490.65 457.035 494.227 c 0
 467.764 497.804 477.776 501.379 486.359 505.671 c 0
 519.26 522.121 531.419 543.578 521.406 571.473 c 0
 510.678 598.65 489.22 603.657 457.035 585.776 c 0
 448.451 582.201 439.154 576.479 429.855 569.327 c 0
 420.558 561.459 411.26 553.592 401.247 545.725 c 0
 391.233 537.141 381.935 529.273 372.638 522.121 c 0
 363.339 514.968 354.757 509.246 346.888 505.671 c 1
 349.034 512.823 352.611 522.121 357.618 532.134 c 0
 362.624 542.862 366.915 552.876 371.922 563.605 c 0
 376.928 574.333 381.935 585.776 386.941 596.506 c 0
 391.233 607.234 394.809 616.531 396.955 625.115 c 0
 400.532 642.281 399.815 654.439 394.809 663.737 c 0
 389.088 672.319 377.643 676.611 360.479 676.611 c 0
 344.027 676.611 331.153 672.319 322.571 663.737 c 0
 313.272 654.439 306.836 642.281 303.259 625.115 c 0
 298.969 607.949 298.969 587.922 301.829 565.035 c 0
 304.69 541.433 304.69 522.121 301.829 505.671 c 1
 296.106 509.246 290.385 514.968 283.948 522.121 c 0
 278.226 529.273 272.504 537.141 266.067 545.725 c 0
 246.756 569.327 l 0
 240.318 576.479 233.882 582.201 226.729 585.776 c 0
 201.695 603.657 177.379 598.65 155.206 571.473 c 0
 134.464 543.578 137.325 522.121 162.358 505.671 c 0
 169.511 501.379 178.094 497.804 188.106 494.227 c 0
 198.835 490.65 208.849 487.79 218.861 484.93 c 0
 229.59 482.068 239.604 479.206 248.901 477.062 c 0
 258.915 474.199 266.782 471.339 272.504 467.049 c 1
 264.637 463.472 255.338 459.896 243.896 456.319 c 0
 232.45 452.743 221.008 449.883 209.563 447.021 c 0
 197.405 444.161 186.676 440.584 175.947 437.724 c 0
 165.219 434.862 155.206 431.287 146.624 426.28 c 0
 114.438 409.829 102.278 387.656 110.146 360.479 c 0
 120.875 333.299 142.332 328.292 175.947 345.458 c 0
 184.531 350.465 193.828 356.901 203.127 364.054 c 0
 212.426 371.207 221.723 379.074 231.735 386.941 c 0
 241.034 394.809 251.048 401.962 260.345 409.114 c 0
 268.929 416.981 277.511 422.703 285.378 426.28 c 1
 283.948 418.413 280.371 409.114 275.365 399.101 c 0
 270.358 389.088 265.352 378.359 260.345 367.631 c 0
 254.623 356.901 249.616 346.173 245.324 336.16 c 0
 241.034 326.146 237.457 316.133 236.027 307.551 c 0
 231.735 290.385 232.45 276.796 238.174 268.212 c 0
 243.181 258.915 254.623 254.623 271.074 254.623 c 0
 288.239 254.623 301.829 258.915 310.412 268.212 c 0
 318.994 276.796 325.432 290.385 329.724 307.551 c 0
 331.868 316.133 332.584 326.146 331.868 336.16 c 0
 331.153 346.173 331.153 356.901 330.438 367.631 c 0
 329.724 378.359 329.007 389.088 329.007 399.101 c 0
 328.292 409.114 329.007 418.413 331.153 426.28 c 1
 336.875 422.703 342.598 416.981 348.319 409.114 c 0
 354.757 401.962 360.479 394.094 366.915 386.227 c 0
 373.353 377.643 379.789 369.775 386.227 362.624 c 0
 392.663 355.472 399.101 349.75 405.537 345.458 c 0
 431.287 328.292 454.89 333.299 476.346 360.479 c 0
 487.79 374.782 492.797 387.656 491.365 398.386 c 0
 489.937 409.114 482.783 418.413 469.909 426.28 c 0
EndSplineSet
Fore
SplineSet
352 413 m 0xf4
 352 368 369 346 369 319 c 0
 369 315 368 312 368 308 c 1
 360 278 334 255 305 255 c 0
 281 255 268 271 268 296 c 0xe8
 268 325 276 334 294 359 c 1
 321 393 325 403 337 450 c 1
 331 454 l 1
 287 426 277 417 242 379 c 0
 215 349 199 338 179 338 c 0
 155 338 139 354 139 376 c 0
 139 426 182 445 237 445 c 1
 280 447 289 450 325 472 c 1
 328 479 l 1
 291 497 277 501 231 505 c 0
 189 508 173 517 173 541 c 0
 173 582 199 606 233 606 c 0
 259 606 272 595 286 561 c 0
 303 521 308 516 341 494 c 1
 349 497 l 1
 352 514 353 527 353 538 c 0
 353 558 335 602 335 624 c 0
 335 670 372 691 398 691 c 0
 422 691 437 675 437 652 c 0
 437 588 384 595 368 497 c 1
 375 494 l 1
 479 563 473 609 524 609 c 0
 548 609 567 590 567 568 c 0
 567 565 565 562 565 560 c 0
 563 550 547 502 473 502 c 1
 431 501 416 497 379 476 c 1
 378 469 l 1
 455 424 532 456 532 406 c 0
 532 367 501 341 472 341 c 0
 444 341 429 354 410 404 c 1
 395 432 388 439 363 454 c 1
 354 450 l 1
 353 435 352 423 352 413 c 0xf4
EndSplineSet
EndChar

StartChar: plus
Encoding: 43 43 12
Width: 569
Flags: W
HStem: 0 21G<242 334.211> 209 88<97 286 393 582>
DStem2: 242 0 330 0 0.207912 0.978148<18.2962 213.581 321.905 516.211>
LayerCount: 2
Back
SplineSet
588.638 222.438 m 1
 369.061 222.438 l 1
 322.571 0 l 1
 246.041 0 l 1
 293.246 222.438 l 1
 71.5234 222.438 l 1
 87.9736 297.537 l 1
 308.982 297.537 l 1
 356.187 518.545 l 1
 432.002 518.545 l 1
 385.512 297.537 l 1
 605.088 297.537 l 1
 588.638 222.438 l 1
EndSplineSet
Fore
SplineSet
305 297 m 1
 349 505 l 1
 437 505 l 1
 393 297 l 1
 601 297 l 1
 582 209 l 1
 374 209 l 1
 330 0 l 1
 242 0 l 1
 286 209 l 1
 78 209 l 1
 97 297 l 1
 305 297 l 1
EndSplineSet
EndChar

StartChar: comma
Encoding: 44 44 13
Width: 249
Flags: W
HStem: -4 159<92.5904 148.996>
VStem: 149 85<-77.5 97.5>
LayerCount: 2
Back
SplineSet
140.901 113.007 m 0
 138.756 114.438 135.18 115.868 130.888 116.583 c 0
 126.597 116.583 122.305 117.299 117.299 117.299 c 0
 100.848 117.299 85.1133 111.576 70.0928 99.418 c 0
 55.7881 87.9736 46.4902 72.9541 42.1992 55.7881 c 0
 38.623 39.3379 41.4834 25.0332 52.2119 13.5898 c 0
 62.2256 2.86133 75.8145 -2.86133 92.2656 -2.86133 c 0
 97.2715 -2.86133 101.563 -2.86133 104.424 -2.14551 c 0
 108 -1.43066 111.576 -0.714844 115.868 0 c 1
 114.438 -7.15234 l 2
 111.576 -22.1719 102.994 -36.4766 89.4043 -50.0664 c 0
 75.8145 -63.6562 62.2256 -74.3848 48.6357 -83.6826 c 0
 41.4834 -88.6895 36.4766 -91.5498 32.1855 -92.9805 c 0
 28.6094 -94.4111 26.4639 -95.126 26.4639 -95.126 c 1
 32.1855 -131.604 l 1
 32.1855 -131.604 38.623 -128.742 51.4971 -123.021 c 0
 63.6562 -117.299 78.6758 -108 95.8418 -95.8418 c 0
 113.007 -83.6826 129.457 -68.6621 145.192 -50.0664 c 0
 160.928 -31.4707 171.657 -8.58301 177.379 17.8809 c 0
 182.385 42.1992 180.954 62.2256 173.087 78.6758 c 0
 165.219 94.4111 154.491 105.854 140.901 113.007 c 0
EndSplineSet
Fore
SplineSet
53 53 m 0
 53 112 100 155 155 155 c 0
 205 155 234 123 234 72 c 0
 234 -79 42 -168 19 -180 c 1
 12 -158 l 1
 40 -141 149 -76 149 -21 c 0
 149 -10 144 -4 135 -4 c 0
 126 -4 118 -6 110 -6 c 0
 73 -6 53 18 53 53 c 0
EndSplineSet
EndChar

StartChar: hyphen
Encoding: 45 45 14
Width: 332
Flags: W
HStem: 171 116<105 324>
VStem: 81 268
LayerCount: 2
Back
SplineSet
388.373 121.59 m 1
 70.0928 121.59 l 1
 80.8213 170.226 l 1
 398.386 170.226 l 1
 388.373 121.59 l 1
EndSplineSet
Fore
SplineSet
349 287 m 1
 324 171 l 1
 81 171 l 1
 105 287 l 1
 349 287 l 1
EndSplineSet
EndChar

StartChar: period
Encoding: 46 46 15
Width: 249
Flags: W
HStem: -13 170<99.8301 182.76>
VStem: 54 172<29.6865 112.559>
LayerCount: 2
Back
SplineSet
155.206 47.2051 m 0
 151.63 31.4707 142.332 18.5957 128.027 7.86719 c 0
 113.723 -2.14551 99.418 -7.15234 85.1133 -7.15234 c 0
 70.0928 -7.15234 58.6494 -2.14551 49.3516 7.86719 c 0
 40.0527 18.5957 37.1924 31.4707 40.7686 47.2051 c 0
 43.6289 62.2256 52.2119 75.8145 65.0859 87.2588 c 0
 78.6758 98.7021 92.9805 103.709 108.716 103.709 c 0
 123.021 103.709 135.18 97.9873 145.192 86.543 c 0
 154.491 74.3848 158.066 61.5098 155.206 47.2051 c 0
EndSplineSet
Fore
SplineSet
54 53 m 0
 54 110 110 157 158 157 c 0
 199 157 226 127 226 89 c 0
 226 32 173 -13 122 -13 c 0
 81 -13 54 15 54 53 c 0
EndSplineSet
EndChar

StartChar: slash
Encoding: 47 47 16
Width: 276
Flags: W
HStem: -19 21G<-28 72.8732> 671 20G<348.099 448>
DStem2: -28 -19 62 -19 0.478592 0.878037<43.0733 808.622>
LayerCount: 2
Back
SplineSet
502.094 698.784 m 1
 43.6289 -171.657 l 1
 -32.1855 -171.657 l 1
 424.85 698.784 l 1
 502.094 698.784 l 1
EndSplineSet
Fore
SplineSet
448 691 m 1
 62 -19 l 1
 -28 -19 l 1
 359 691 l 1
 448 691 l 1
EndSplineSet
EndChar

StartChar: zero
Encoding: 48 48 17
Width: 499
Flags: W
HStem: -13 28<223.349 287.992> 661 27<355.063 417.389>
VStem: 82 127<61 230.574> 432 129<441.945 614>
LayerCount: 2
Back
SplineSet
436.294 331.153 m 0
 479.206 528.559 464.188 627.261 391.233 627.261 c 0
 319.71 627.261 262.49 528.559 219.576 331.153 c 0
 178.809 134.464 193.828 36.4766 265.352 36.4766 c 0
 338.306 36.4766 395.525 134.464 436.294 331.153 c 0
553.592 331.153 m 0
 545.008 288.955 533.565 250.331 519.26 214.569 c 0
 504.956 178.809 487.075 145.908 465.617 115.868 c 0
 406.969 30.7549 336.875 -11.4434 254.623 -11.4434 c 0
 213.14 -11.4434 180.239 -0.714844 155.921 20.7422 c 0
 132.318 42.1992 114.438 69.3779 103.709 102.994 c 0
 92.9805 136.609 88.6895 173.802 89.4043 213.854 c 0
 90.1191 253.908 94.4111 293.246 102.278 331.153 c 0
 110.146 368.346 122.305 406.969 139.471 447.736 c 0
 155.921 487.79 176.662 524.981 201.695 558.599 c 0
 226.015 592.214 255.338 620.108 288.955 642.281 c 0
 323.286 664.452 360.479 675.182 401.247 675.182 c 0
 484.213 675.182 536.426 632.268 556.452 546.439 c 0
 572.188 485.645 571.473 414.121 553.592 331.153 c 0
EndSplineSet
Fore
SplineSet
561 454 m 0
 561 232 415 -13 248 -13 c 0
 144 -13 82 78 82 218 c 0
 82 357 137 494 199 573 c 0
 256 645 331 688 397 688 c 0
 499 688 561 593 561 454 c 0
365 223 m 2
 413 451 l 2
 426 510 432 557 432 589 c 0
 432 639 419 661 390 661 c 0
 341 661 309 602 277 451 c 2
 229 223 l 2
 217 163 209 117 209 85 c 0
 209 37 224 15 253 15 c 0
 277 15 296 29 313 59 c 0
 328 85 353 163 365 223 c 2
EndSplineSet
EndChar

StartChar: one
Encoding: 49 49 18
Width: 499
Flags: W
HStem: 0 23<72 155.32 375.545 442> 668 20G<412.358 480>
DStem2: 185.43 0 333.706 0 0.207912 0.978148<108.708 554.377>
LayerCount: 2
Back
SplineSet
303.259 0 m 1
 27.8945 0 l 1
 36.4766 39.3379 l 1
 67.9473 39.3379 90.835 43.6289 104.424 51.4971 c 0
 118.729 59.3643 128.742 75.8145 134.464 100.848 c 1
 226.729 537.857 l 1
 231.021 559.313 227.444 570.042 216.716 570.042 c 0
 213.14 570.042 185.961 560.743 135.895 543.578 c 1
 143.762 581.486 l 1
 336.875 676.611 l 1
 361.908 672.319 l 1
 236.027 85.1133 l 2
 231.021 62.2256 233.167 48.6357 243.181 43.6289 c 1
 243.181 45.0596 l 1
 253.908 41.4834 276.796 39.3379 311.843 39.3379 c 1
 303.259 0 l 1
EndSplineSet
Fore
SplineSet
272 579 m 0
 254 579 215 562 182 554 c 1
 187 579 l 1
 463 688 l 1
 480 688 l 1
 359 119 l 2
 356 101 353 86 353 75 c 0
 353 35 378 26 447 23 c 1
 442 0 l 1
 67 0 l 1
 72 23 l 1
 171 25 195 42 212 125 c 2
 294 508 l 2
 297 523 299 535 299 543 c 0
 299 567 290 579 272 579 c 0
EndSplineSet
EndChar

StartChar: two
Encoding: 50 50 19
Width: 499
Flags: W
HStem: 0 133<187 434> 574 114<276 443>
VStem: 397 151<455.515 591>
LayerCount: 2
Back
SplineSet
511.393 152.345 m 1
 420.558 0 l 1
 32.1855 0 l 1
 37.9072 27.8945 l 1
 248.901 215.286 l 2
 345.458 301.113 402.677 380.505 419.128 454.175 c 0
 427.71 494.942 424.135 526.412 406.969 547.869 c 0
 390.519 569.327 362.624 580.055 322.571 580.055 c 0
 291.1 580.055 262.49 567.181 237.457 542.147 c 0
 219.576 525.697 197.405 494.942 170.226 449.883 c 1
 130.173 461.325 l 1
 154.491 527.127 188.821 578.625 232.45 617.248 c 0
 275.365 655.87 328.292 675.182 389.803 675.182 c 0
 416.267 675.182 439.154 670.891 459.181 661.592 c 0
 479.206 652.293 495.657 639.419 509.246 622.254 c 0
 522.121 605.803 530.704 586.493 535.711 562.889 c 0
 540.001 540.002 539.287 515.685 532.851 489.22 c 0
 518.545 417.696 459.896 336.875 357.618 246.041 c 2
 187.392 96.5566 l 1
 382.649 96.5566 l 2
 401.962 96.5566 417.696 100.848 430.57 110.146 c 0
 434.862 113.007 439.869 118.729 447.736 127.312 c 0
 454.89 135.895 464.902 148.768 477.776 165.219 c 1
 511.393 152.345 l 1
EndSplineSet
Fore
SplineSet
397 470 m 0
 397 533 366 574 303 574 c 0
 249 574 205 546 161 483 c 1
 133 483 l 1
 177 560 205 593 253 631 c 1
 294 668 347 688 397 688 c 0
 489 688 548 633 548 549 c 0
 548 444 472 356 384 287 c 2
 187 133 l 1
 338 133 l 2
 441 133 454 139 499 211 c 1
 523 211 l 1
 434 0 l 1
 18 0 l 1
 22 23 l 1
 284 252 397 367 397 470 c 0
EndSplineSet
EndChar

StartChar: three
Encoding: 51 51 20
Width: 499
Flags: W
HStem: -15 52<124.5 293.203> 606 82<306.4 457>
VStem: 391 135<150 319.5> 393 156<502.416 586.372>
LayerCount: 2
Back
SplineSet
469.909 219.576 m 0
 454.89 145.192 413.406 87.2588 346.888 43.6289 c 0
 318.994 24.3184 287.524 10.0137 253.908 1.43066 c 0
 220.293 -7.15234 185.246 -11.4434 148.053 -11.4434 c 0
 135.18 -11.4434 123.735 -10.7285 114.438 -8.58301 c 0
 104.424 -7.15234 95.8418 -4.29102 87.9736 -1.43066 c 0
 77.2451 2.14551 66.5166 8.58301 56.5039 17.8809 c 0
 46.4902 26.4639 42.9141 38.623 47.2051 54.3574 c 0
 50.7812 70.8086 58.6494 82.252 69.3779 89.4043 c 0
 80.8213 95.8418 92.2656 99.418 103.709 99.418 c 0
 110.861 99.418 119.444 97.9873 130.173 93.6953 c 0
 140.901 90.1191 153.06 82.252 166.65 71.5234 c 0
 180.954 62.2256 192.398 55.0732 203.127 51.4971 c 0
 213.14 47.2051 221.008 45.0596 226.729 45.0596 c 0
 262.49 45.0596 292.531 59.3643 317.564 87.9736 c 0
 343.312 114.438 359.048 145.192 366.2 181.669 c 0
 371.207 203.842 371.922 221.723 367.631 234.597 c 0
 359.762 261.062 343.312 281.088 318.279 296.106 c 0
 293.962 310.412 256.055 317.564 205.272 317.564 c 1
 208.134 353.326 l 1
 320.425 386.227 383.366 437.009 396.955 505.671 c 0
 402.677 531.419 399.101 552.876 386.227 568.612 c 0
 372.638 583.632 353.326 591.499 328.292 591.499 c 0
 278.226 591.499 227.444 557.167 175.947 487.79 c 1
 138.04 499.233 l 1
 198.12 616.531 277.511 675.182 376.213 675.182 c 0
 421.273 675.182 456.319 663.022 482.068 639.419 c 0
 507.101 615.816 514.968 580.77 505.671 534.995 c 0
 493.512 484.213 458.465 439.154 399.815 401.247 c 1
 410.544 394.809 419.843 387.656 428.425 380.505 c 0
 437.009 374.067 444.161 366.915 449.883 360.479 c 0
 464.188 344.027 472.771 322.571 474.916 296.822 c 0
 476.346 271.074 474.916 245.324 469.909 219.576 c 0
EndSplineSet
Fore
SplineSet
108 133 m 0xe0
 190 133 196 37 264 37 c 0
 335 37 391 107 391 193 c 0xe0
 391 226 381 255 363 275 c 1
 335 311 305 327 229 356 c 1
 231 374 l 1
 317 399 393 437 393 532 c 0
 393 579 363 606 311 606 c 0
 258 606 221 584 170 523 c 1
 151 535 l 1
 229 639 313 688 413 688 c 0
 501 688 549 650 549 583 c 0xd0
 549 486 480 448 435 423 c 1
 496 395 526 353 526 286 c 0
 526 153 374 -15 166 -15 c 0
 83 -15 31 16 31 62 c 0
 31 105 67 133 108 133 c 0xe0
EndSplineSet
EndChar

StartChar: four
Encoding: 52 52 21
Width: 499
Flags: W
HStem: 0 21G<267 416.167> 144 111<114 297 466 505> 668 20G<459.26 558>
DStem2: 73 256 114 255 0.676734 0.736227<27.0099 430.418> 267 0 412 0 0.207912 0.978148<30.1472 147.091 290.802 564.887>
LayerCount: 2
Back
SplineSet
314.703 243.181 m 1
 371.922 507.101 l 1
 133.033 243.181 l 1
 314.703 243.181 l 1
489.22 158.066 m 1
 398.386 158.066 l 1
 364.769 0 l 1
 265.352 0 l 1
 298.969 158.066 l 1
 39.3379 158.066 l 1
 55.7881 234.597 l 1
 442.015 662.307 l 1
 505.671 662.307 l 1
 416.267 243.181 l 1
 507.101 243.181 l 1
 489.22 158.066 l 1
EndSplineSet
Fore
SplineSet
466 255 m 1
 529 255 l 1
 505 144 l 1
 442 144 l 1
 412 0 l 1
 267 0 l 1
 297 144 l 1
 50 144 l 1
 73 256 l 1
 154 352 239 444 403 611 c 2
 479 688 l 1
 558 688 l 1
 466 255 l 1
324 255 m 1
 387 552 l 1
 114 255 l 1
 324 255 l 1
EndSplineSet
EndChar

StartChar: five
Encoding: 53 53 22
Width: 499
Flags: W
HStem: -7 60<127.5 298.465> 549 128<291 545>
VStem: 409 98<144.5 321.5>
DStem2: 122 331 227 469 0.438884 0.898544<170.082 259.521>
LayerCount: 2
Back
SplineSet
577.194 675.182 m 1
 517.114 580.055 l 2
 509.963 570.042 497.804 565.75 479.206 565.75 c 2
 304.69 565.75 l 1
 262.49 505.671 l 1
 313.272 496.372 353.326 482.783 384.081 463.472 c 0
 414.121 444.876 436.294 424.135 449.883 401.247 c 0
 462.042 381.935 469.909 354.757 472.056 321.14 c 0
 474.916 286.81 473.485 256.055 467.049 228.16 c 0
 452.743 154.491 413.406 95.126 348.319 51.4971 c 0
 286.81 9.29785 221.723 -11.4434 152.345 -11.4434 c 0
 64.3711 -11.4434 25.0332 11.4434 33.6162 57.2188 c 0
 37.9072 73.6689 46.4902 85.8281 60.0801 94.4111 c 0
 73.6689 102.994 85.8281 107.285 96.5566 107.285 c 0
 120.159 107.285 144.478 95.8418 170.226 72.9541 c 0
 179.524 64.3711 188.821 57.9336 197.405 54.3574 c 0
 206.702 50.0664 214.569 48.6357 221.008 48.6357 c 0
 257.484 48.6357 288.955 65.0859 316.133 97.9873 c 0
 329.724 113.723 341.167 130.888 349.034 148.768 c 0
 357.618 166.65 364.054 186.676 369.061 208.134 c 0
 384.081 272.504 364.769 321.14 311.843 354.757 c 0
 289.67 368.346 265.352 379.074 239.604 386.941 c 0
 213.854 394.809 186.676 398.386 158.066 398.386 c 0
 144.478 398.386 139.471 405.537 142.332 419.128 c 2
 143.762 426.28 l 1
 301.829 665.169 l 1
 507.101 665.169 l 2
 517.83 665.169 532.851 675.896 553.592 697.354 c 1
 577.194 675.182 l 1
EndSplineSet
Fore
SplineSet
113 141 m 0
 182 141 221 53 284 53 c 0
 348 53 409 110 409 179 c 0
 409 234 368 280 296 305 c 1
 255 318 215 324 122 331 c 1
 291 677 l 1
 614 677 l 1
 545 549 l 1
 267 549 l 1
 227 469 l 1
 308 463 338 458 374 448 c 0
 460 422 507 362 507 281 c 0
 507 158 390 -7 167 -7 c 0
 88 -7 38 21 38 66 c 0
 38 112 75 141 113 141 c 0
EndSplineSet
EndChar

StartChar: six
Encoding: 54 54 23
Width: 499
Flags: W
HStem: -13 28<227.195 303.761> 376 44<291.019 425.5> 662 26<562.791 611>
VStem: 76 139<79.3974 240.891> 376 151<168.916 359.698>
LayerCount: 2
Back
SplineSet
380.505 181.669 m 0
 406.969 302.544 382.649 363.339 306.12 363.339 c 0
 290.385 363.339 276.081 361.908 263.207 358.333 c 0
 249.616 354.757 237.457 348.319 226.729 339.737 c 1
 222.438 331.153 216.716 319.71 211.709 305.405 c 0
 205.987 291.1 200.98 274.65 195.975 254.623 c 0
 191.683 232.45 187.392 208.134 185.246 183.1 c 0
 183.1 158.066 183.814 134.464 187.392 113.723 c 0
 191.683 92.2656 199.55 75.0996 210.994 60.7949 c 0
 222.438 46.4902 240.318 39.3379 263.922 39.3379 c 0
 280.371 39.3379 294.677 43.6289 307.551 51.4971 c 0
 320.425 59.3643 331.868 69.3779 341.167 82.9668 c 0
 351.18 95.8418 359.048 110.861 365.485 128.027 c 0
 371.922 145.192 376.928 163.073 380.505 181.669 c 0
499.233 219.576 m 0
 492.797 187.392 481.353 157.352 465.617 128.742 c 0
 449.883 100.848 431.287 75.8145 408.399 55.0732 c 0
 386.227 33.6162 360.479 17.8809 331.868 5.72168 c 0
 303.259 -5.72168 271.789 -11.4434 237.457 -11.4434 c 0
 195.975 -11.4434 163.788 -2.86133 140.901 14.3047 c 0
 117.299 32.1855 100.133 55.0732 89.4043 83.6826 c 0
 78.6758 111.576 73.6689 143.762 73.6689 180.239 c 0
 74.3848 216.001 78.6758 252.478 86.543 288.239 c 0
 97.9873 341.167 120.159 391.233 151.63 437.724 c 0
 183.1 484.93 221.723 525.697 266.067 560.743 c 0
 310.412 596.506 359.048 623.684 413.406 644.426 c 0
 467.049 665.169 520.691 675.182 574.333 675.182 c 1
 571.473 637.274 l 1
 497.804 624.4 434.147 597.936 379.074 557.167 c 0
 324.717 517.114 281.803 464.902 250.331 401.247 c 1
 258.2 405.537 265.352 408.399 271.789 410.544 c 0
 278.226 413.406 285.378 416.267 293.246 419.128 c 0
 318.279 427.71 341.167 432.002 361.908 432.002 c 0
 389.803 432.002 414.836 426.995 434.862 416.267 c 0
 455.604 405.537 471.339 390.519 483.498 371.207 c 0
 494.942 352.611 502.094 329.724 504.956 303.976 c 0
 507.101 278.226 505.671 250.331 499.233 219.576 c 0
EndSplineSet
Fore
SplineSet
527 278 m 0
 527 113 391 -13 258 -13 c 0
 144 -13 76 62 76 183 c 0
 76 362 183 510 325 595 c 0
 413 647 479 669 617 688 c 1
 611 662 l 1
 458 631 359 551 290 404 c 1
 324 417 346 420 378 420 c 0
 473 420 527 366 527 278 c 0
215 83 m 0
 215 40 223 15 265 15 c 0
 313 15 333 44 359 163 c 0
 371 220 376 262 376 294 c 0
 376 353 357 376 313 376 c 0
 300 376 284 372 274 366 c 1
 261 355 215 182 215 83 c 0
EndSplineSet
EndChar

StartChar: seven
Encoding: 55 55 24
Width: 499
Flags: W
HStem: 0 21G<146 253.196> 539 138<205 461>
DStem2: 146 0 242 0 0.488486 0.872572<46.8946 624.189>
LayerCount: 2
Back
SplineSet
585.776 631.552 m 1
 247.471 -5.72168 l 1
 158.066 -5.72168 l 1
 465.617 568.612 l 1
 279.656 568.612 l 2
 256.055 568.612 236.027 562.174 218.146 550.731 c 0
 214.569 548.585 207.419 542.147 198.835 531.419 c 0
 189.538 520.691 175.947 505.671 159.498 484.93 c 1
 124.451 502.094 l 1
 219.576 663.737 l 1
 591.499 663.737 l 1
 585.776 631.552 l 1
EndSplineSet
Fore
SplineSet
621 677 m 1
 242 0 l 1
 146 0 l 1
 461 539 l 1
 255 539 l 2
 199 539 171 519 139 454 c 1
 114 454 l 1
 205 677 l 1
 621 677 l 1
EndSplineSet
EndChar

StartChar: eight
Encoding: 56 56 25
Width: 499
Flags: W
HStem: -13 32<204.966 300.082> 659 29<343.787 434.668>
VStem: 57 120<51.3326 207.519> 144 145<447.5 562.649> 365 152<140.256 265.5> 458 119<497.194 636.447>
LayerCount: 2
Back
SplineSet
417.696 531.419 m 0
 423.418 557.167 420.558 577.909 409.829 594.36 c 0
 398.386 615.102 378.359 625.115 349.75 625.115 c 0
 326.863 625.115 305.405 617.963 285.378 602.228 c 0
 266.067 586.493 253.193 565.75 247.471 539.287 c 0
 238.889 494.942 262.49 449.883 317.564 402.677 c 1
 331.868 411.26 343.312 419.843 353.326 427.71 c 0
 362.624 435.577 368.346 440.584 370.492 444.161 c 0
 394.809 468.479 410.544 497.804 417.696 531.419 c 0
345.458 133.033 m 0
 352.611 166.65 349.034 192.398 335.445 210.994 c 0
 328.292 219.576 318.279 231.021 305.405 244.61 c 0
 292.531 258.2 274.65 274.65 253.193 294.677 c 1
 237.457 281.803 226.729 272.504 221.008 267.497 c 0
 215.286 261.775 210.994 257.484 208.134 253.193 c 0
 198.12 242.464 189.538 229.59 182.385 213.14 c 0
 175.232 196.688 169.511 180.239 165.219 162.358 c 0
 158.066 127.312 160.213 97.9873 173.087 74.3848 c 0
 185.246 51.4971 208.134 39.3379 240.318 39.3379 c 0
 265.352 39.3379 288.239 48.6357 307.551 65.8018 c 0
 326.863 83.6826 339.737 105.854 345.458 133.033 c 0
447.021 156.637 m 0
 440.584 127.312 430.57 102.278 415.551 81.5371 c 0
 399.815 60.0801 382.649 42.9141 361.908 29.3242 c 0
 341.167 15.7354 318.279 5.72168 293.962 -1.43066 c 0
 268.929 -8.58301 243.181 -11.4434 216.716 -11.4434 c 0
 192.398 -11.4434 170.226 -7.86719 149.484 -0.714844 c 0
 128.742 6.4375 111.576 17.166 97.2715 31.4707 c 0
 82.9668 45.7754 72.9541 62.9404 66.5166 82.9668 c 0
 60.0801 102.994 60.0801 125.881 65.8018 152.345 c 0
 70.8086 173.802 76.5303 191.683 83.6826 206.702 c 0
 90.1191 221.008 98.7021 233.882 108.716 245.324 c 0
 118.014 256.77 129.457 267.497 143.047 277.511 c 0
 155.921 287.524 171.657 298.969 188.821 311.843 c 0
 193.113 313.987 196.688 316.133 200.98 318.994 c 0
 204.557 322.571 210.279 326.146 216.716 331.153 c 1
 213.14 336.875 208.849 342.598 205.272 346.888 c 0
 200.98 351.895 197.405 356.901 194.543 361.908 c 0
 183.814 373.353 174.518 384.796 166.65 394.809 c 0
 159.498 404.822 153.06 415.551 149.484 426.995 c 0
 145.192 438.438 143.762 450.598 143.762 464.188 c 0
 143.762 479.206 145.192 496.372 149.484 515.685 c 0
 154.491 540.718 163.788 563.605 178.809 582.916 c 0
 193.113 602.228 210.994 619.394 231.021 632.982 c 0
 251.048 646.571 272.504 657.3 296.106 664.452 c 0
 318.994 671.604 342.598 675.182 366.2 675.182 c 0
 388.373 675.182 409.829 672.319 429.141 666.599 c 0
 448.451 660.877 465.617 651.578 479.206 639.419 c 0
 492.797 627.261 502.094 611.524 507.816 592.929 c 0
 512.823 574.333 512.823 552.876 508.531 527.127 c 0
 499.233 487.075 481.353 455.604 454.89 432.002 c 0
 427.71 408.399 396.24 386.941 359.048 366.2 c 1
 361.908 362.624 365.485 358.333 369.775 354.041 c 0
 374.067 349.034 378.359 345.458 382.649 341.167 c 0
 394.809 328.292 406.254 316.133 416.981 303.976 c 0
 426.995 291.816 434.862 278.226 440.584 264.637 c 0
 447.021 250.331 450.598 234.597 452.028 217.432 c 0
 453.458 200.266 451.312 180.239 447.021 156.637 c 0
EndSplineSet
Fore
SplineSet
517 234 m 0xc8
 517 130 431 -13 237 -13 c 0
 126 -13 57 40 57 122 c 0xe8
 57 202 103 280 248 324 c 1
 174 372 144 419 144 476 c 0
 144 603 265 688 410 688 c 0
 516 688 577 645 577 573 c 0xd4
 577 472 487 430 409 404 c 1
 483 349 517 297 517 234 c 0xc8
387 422 m 1
 404 439 458 486 458 583 c 0
 458 631 435 659 391 659 c 0
 337 659 289 609 289 552 c 0xd4
 289 504 322 458 387 422 c 1
250 19 m 0
 348 19 365 140 365 170 c 0
 365 217 338 249 265 306 c 1
 222 259 177 202 177 107 c 0xe8
 177 51 202 19 250 19 c 0
EndSplineSet
EndChar

StartChar: nine
Encoding: 57 57 26
Width: 499
Flags: W
HStem: -13 26<34 81.1622> 253 46<216.5 356.228> 661 27<341.739 410.856>
VStem: 117 153<313.9 503.433> 431 137<435.789 596.17>
LayerCount: 2
Back
SplineSet
423.418 392.663 m 1
 455.604 547.869 435.577 625.115 363.339 625.115 c 0
 304.69 625.115 263.922 572.902 241.749 468.479 c 0
 237.457 449.883 235.312 430.57 234.597 409.114 c 0
 233.167 388.373 235.312 369.775 239.604 353.326 c 0
 243.896 336.16 251.763 322.571 263.207 311.126 c 0
 273.936 299.684 290.385 294.677 311.843 294.677 c 0
 341.167 294.677 370.492 304.69 399.815 325.432 c 1
 406.969 328.292 411.26 337.591 414.836 354.757 c 1
 423.418 392.663 l 1
542.147 394.094 m 0
 518.545 282.518 464.902 189.538 380.505 114.438 c 0
 283.232 25.0332 174.518 -19.3115 54.3574 -19.3115 c 1
 57.2188 23.6025 l 1
 91.5498 27.1787 124.451 36.4766 155.921 50.0664 c 0
 187.392 63.6562 217.432 80.8213 245.324 101.563 c 0
 273.219 123.021 298.969 146.624 322.571 173.087 c 0
 345.458 199.55 365.485 227.444 380.505 257.484 c 1
 341.882 238.174 301.829 228.16 261.062 228.16 c 0
 205.272 228.16 163.788 248.901 138.04 290.385 c 0
 114.438 326.863 108.716 374.067 120.159 430.57 c 0
 128.027 464.902 139.471 496.372 154.491 524.267 c 0
 169.511 552.876 188.106 577.909 209.563 600.797 c 0
 258.915 650.148 317.564 675.182 384.081 675.182 c 0
 454.89 675.182 504.24 644.426 531.419 582.916 c 0
 554.307 527.127 557.882 464.188 542.147 394.094 c 0
EndSplineSet
Fore
SplineSet
117 398 m 0
 117 537 230 688 388 688 c 0
 502 688 568 614 568 491 c 0
 568 317 469 178 335 91 c 1
 246 32 173 7 28 -13 c 1
 34 13 l 1
 183 42 283 122 357 272 c 1
 328 259 300 253 262 253 c 0
 171 253 117 311 117 398 c 0
431 584 m 0
 431 624 421 661 379 661 c 0
 331 661 313 631 289 516 c 1
 275 456 270 410 270 376 c 0
 270 322 287 299 327 299 c 0
 341 299 362 303 371 308 c 0
 373 310 431 471 431 584 c 0
EndSplineSet
EndChar

StartChar: colon
Encoding: 58 58 27
Width: 332
Flags: W
HStem: -13 170<140.83 223.76> 303 169<207.351 290.989>
VStem: 95 172<29.6865 112.559> 163 171<344.357 427.144>
LayerCount: 2
Back
SplineSet
121.59 404.107 m 0
 116.583 385.512 118.014 369.775 125.881 357.618 c 0
 133.749 344.743 145.908 338.306 162.358 338.306 c 0
 179.524 338.306 193.828 344.743 207.419 357.618 c 0
 220.293 369.775 229.59 385.512 234.597 404.107 c 0
 238.174 422.703 236.027 438.438 227.444 451.312 c 0
 219.576 464.188 206.702 469.909 190.253 469.909 c 0
 173.802 469.909 159.498 464.188 146.624 451.312 c 0
 133.749 438.438 125.166 422.703 121.59 404.107 c 0
47.2051 57.2188 m 0
 42.9141 38.623 45.0596 22.8877 52.9277 10.0137 c 0
 60.7949 -2.14551 72.9541 -8.58301 89.4043 -8.58301 c 0
 105.854 -8.58301 120.875 -2.14551 133.749 10.0137 c 0
 147.338 22.8877 155.921 38.623 159.498 57.2188 c 0
 164.504 75.8145 163.073 91.5498 154.491 103.709 c 0
 145.908 116.583 133.749 123.021 117.299 123.021 c 0
 100.848 123.021 85.8281 116.583 72.9541 103.709 c 0
 60.7949 91.5498 51.4971 75.8145 47.2051 57.2188 c 0
EndSplineSet
Fore
SplineSet
95 53 m 0xe0
 95 110 151 157 199 157 c 0
 240 157 267 127 267 89 c 0xe0
 267 32 214 -13 163 -13 c 0xd0
 122 -13 95 15 95 53 c 0xe0
334 404 m 0xd0
 334 341 275 303 230 303 c 0
 190 303 163 330 163 368 c 0
 163 423 216 472 265 472 c 0
 306 472 334 442 334 404 c 0xd0
EndSplineSet
EndChar

StartChar: semicolon
Encoding: 59 59 28
Width: 332
Flags: W
HStem: -4 159<135.435 192.996> 303 169<207.351 290.989>
VStem: 163 171<344.357 427.144> 193 85<-63 97.5>
LayerCount: 2
Back
SplineSet
139.471 120.159 m 0
 137.325 122.305 133.749 123.021 128.742 123.735 c 0
 123.735 124.451 119.444 124.451 114.438 124.451 c 0
 97.9873 124.451 82.252 118.729 67.2324 107.285 c 0
 52.9277 95.126 43.6289 80.8213 39.3379 62.9404 c 0
 35.7617 46.4902 38.623 32.1855 48.6357 20.7422 c 0
 57.9336 8.58301 71.5234 2.86133 87.9736 2.86133 c 0
 95.8418 2.86133 104.424 3.57617 114.438 5.72168 c 1
 113.007 -1.43066 l 2
 110.146 -16.4502 101.563 -30.04 87.2588 -43.6289 c 0
 72.9541 -57.9336 59.3643 -68.6621 45.0596 -77.9609 c 0
 37.9072 -82.252 32.1855 -85.8281 28.6094 -87.2588 c 0
 25.0332 -88.6895 23.6025 -89.4043 23.6025 -89.4043 c 1
 29.3242 -127.312 l 1
 29.3242 -127.312 35.7617 -124.451 49.3516 -118.729 c 0
 62.2256 -113.007 77.2451 -103.709 93.6953 -90.835 c 0
 110.146 -77.9609 126.597 -62.2256 142.332 -43.6289 c 0
 158.066 -25.0332 168.795 -2.86133 174.518 23.6025 c 0
 180.239 48.6357 179.524 69.3779 171.657 85.8281 c 0
 163.788 101.563 153.06 113.007 139.471 120.159 c 0
115.868 409.829 m 0
 110.861 391.233 112.292 376.213 120.159 363.339 c 0
 128.027 350.465 140.186 344.027 156.637 344.027 c 0
 173.087 344.027 188.106 350.465 201.695 363.339 c 0
 214.569 376.213 223.868 391.233 228.16 409.829 c 0
 232.45 428.425 230.306 444.161 221.723 457.035 c 0
 213.854 469.909 200.98 476.346 184.531 476.346 c 0
 168.08 476.346 153.06 469.909 140.901 457.035 c 0
 128.027 444.161 119.444 428.425 115.868 409.829 c 0
EndSplineSet
Fore
SplineSet
95 54 m 0xd0
 95 100 133 155 199 155 c 0
 249 155 278 123 278 72 c 0
 278 -79 84 -169 62 -180 c 1
 56 -158 l 1
 163 -92 193 -47 193 -19 c 0
 193 -12 187 -4 179 -4 c 0
 162 -4 165 -7 151 -6 c 1
 123 -6 95 17 95 54 c 0xd0
334 404 m 0xe0
 334 341 275 303 230 303 c 0
 190 303 163 330 163 368 c 0
 163 423 216 472 265 472 c 0
 306 472 334 442 334 404 c 0xe0
EndSplineSet
EndChar

StartChar: less
Encoding: 60 60 29
Width: 569
Flags: W
HStem: -12 21G<494.744 540.421>
DStem2: 208 253 76 211 0.899837 -0.436226<0 388.202> 94 294 208 253 0.926739 0.375705<90.2444 542.969>
LayerCount: 2
Back
SplineSet
519.975 -12.874 m 1
 50.0664 222.438 l 1
 65.8018 297.537 l 1
 637.274 534.995 l 1
 619.394 454.175 l 1
 153.774 261.062 l 1
 537.857 67.2324 l 1
 519.975 -12.874 l 1
EndSplineSet
Fore
SplineSet
536 -12 m 1
 76 211 l 1
 94 294 l 1
 649 519 l 1
 628 422 l 1
 208 253 l 1
 557 83 l 1
 536 -12 l 1
EndSplineSet
EndChar

StartChar: equal
Encoding: 61 61 30
Width: 569
Flags: W
HStem: 107 88<75 561> 311 87<119 603>
LayerCount: 2
Back
SplineSet
627.261 306.12 m 1
 110.146 306.12 l 1
 125.881 376.213 l 1
 642.996 376.213 l 1
 627.261 306.12 l 1
587.208 120.159 m 1
 70.0928 120.159 l 1
 86.543 190.253 l 1
 603.657 190.253 l 1
 587.208 120.159 l 1
EndSplineSet
Fore
SplineSet
623 398 m 1
 603 311 l 1
 100 311 l 1
 119 398 l 1
 623 398 l 1
579 195 m 1
 561 107 l 1
 57 107 l 1
 75 195 l 1
 579 195 l 1
EndSplineSet
EndChar

StartChar: greater
Encoding: 62 62 31
Width: 569
Flags: W
HStem: -12 21G<32.2105 77.8655>
DStem2: 48 83 28 -12 0.928131 0.372254<0 454.954> 141 519 120 422 0.898675 -0.438616<23.6735 412.336>
LayerCount: 2
Back
SplineSet
609.38 222.438 m 1
 39.3379 -12.874 l 1
 57.2188 67.2324 l 1
 521.406 261.062 l 1
 139.471 454.175 l 1
 156.637 534.995 l 1
 625.115 297.537 l 1
 609.38 222.438 l 1
EndSplineSet
Fore
SplineSet
28 -12 m 1
 48 83 l 1
 470 253 l 1
 120 422 l 1
 141 519 l 1
 602 294 l 1
 584 211 l 1
 28 -12 l 1
EndSplineSet
EndChar

StartChar: question
Encoding: 63 63 32
Width: 499
Flags: W
HStem: -13 170<212.681 298.331> 469 21G<208 255.5> 653 35<295.891 445.946>
VStem: 167 173<28.1609 112.559> 171 110<502.407 622.5> 272 31<231 285.159> 413 148<474.829 628.138>
LayerCount: 2
Back
SplineSet
483.498 517.114 m 0
 488.505 537.857 489.936 557.882 488.505 577.194 c 0
 487.075 596.506 480.638 615.102 469.909 632.982 c 0
 456.319 656.585 437.009 672.319 410.544 680.188 c 0
 384.796 688.771 359.762 693.062 335.445 693.062 c 0
 313.272 693.062 291.1 689.485 268.929 681.618 c 0
 246.756 674.466 226.729 663.737 208.134 650.148 c 0
 189.538 636.559 173.802 620.108 160.213 601.513 c 0
 147.338 582.201 138.04 560.743 133.033 537.857 c 0
 128.742 512.107 130.888 493.512 141.616 481.353 c 0
 151.63 469.193 163.788 462.757 178.809 462.757 c 0
 192.398 462.757 205.272 467.049 216.716 475.631 c 0
 228.16 483.498 236.027 496.372 238.889 512.823 c 1
 240.318 517.114 l 2
 242.464 524.267 242.464 532.134 240.318 541.433 c 0
 238.174 550.731 234.597 558.599 228.16 565.75 c 0
 223.868 570.042 221.008 575.048 219.576 580.055 c 0
 218.861 585.062 218.861 588.637 219.576 590.068 c 0
 221.008 602.228 231.021 612.956 250.331 623.684 c 0
 258.2 628.69 267.497 632.268 277.511 635.129 c 0
 287.524 637.274 296.822 638.704 304.69 638.704 c 0
 334.014 638.704 354.041 627.976 365.485 606.518 c 0
 376.928 585.062 378.359 557.882 370.492 525.697 c 0
 366.915 506.386 359.762 484.93 349.75 460.61 c 0
 340.452 437.009 325.432 410.544 306.12 382.649 c 1
 268.212 321.14 l 2
 251.763 295.392 238.174 269.644 228.16 243.896 c 0
 218.861 218.146 210.994 190.968 205.272 162.358 c 1
 246.041 162.358 l 1
 268.212 220.293 285.378 256.055 296.106 269.644 c 0
 308.266 285.378 321.14 299.684 334.014 313.272 c 0
 346.888 326.863 359.762 341.167 373.353 354.757 c 0
 407.684 385.512 433.432 414.836 450.598 442.015 c 0
 467.764 469.909 478.491 494.942 483.498 517.114 c 0
140.901 57.2188 m 0
 136.609 39.3379 139.471 24.3184 149.484 12.1592 c 0
 159.498 0 173.087 -5.72168 190.253 -5.72168 c 0
 208.134 -5.72168 224.583 0 239.604 12.1592 c 0
 254.623 24.3184 263.922 39.3379 268.212 57.2188 c 0
 271.789 74.3848 268.929 90.1191 258.915 102.278 c 0
 249.616 115.152 236.027 121.59 218.146 121.59 c 0
 200.98 121.59 184.531 115.152 169.511 102.278 c 0
 153.774 90.1191 144.478 74.3848 140.901 57.2188 c 0
EndSplineSet
Fore
SplineSet
171 526 m 0xea
 171 603 259 688 391 688 c 0
 497 688 561 637 561 558 c 0
 561 437 442 380 400 357 c 0
 328 318 318 305 303 231 c 1
 272 231 l 1xe6
 282 291 279 301 333 374 c 1
 373 430 413 495 413 576 c 0
 413 625 393 653 352 653 c 0
 319 653 281 639 281 606 c 0xea
 281 590 303 576 303 551 c 0xe6
 303 531 287 469 224 469 c 0
 192 469 171 492 171 526 c 0xea
167 53 m 0xf2
 167 119 232 157 272 157 c 0xe6
 313 157 340 127 340 89 c 0
 340 33 289 -13 236 -13 c 0
 193 -13 167 15 167 53 c 0xf2
EndSplineSet
EndChar

StartChar: at
Encoding: 64 64 33
Width: 928
Flags: W
HStem: -19 45<392.077 616.739> 144 46<422 517.498> 144 36<657.028 736.577> 472 47<578.989 664.812> 652 39<517.683 726.062>
VStem: 171 91<152.553 369.44> 372 79<197.21 317.277> 586 69<182.333 218> 863 48<337.592 523.379>
LayerCount: 2
Back
SplineSet
497.804 281.088 m 0
 509.963 301.113 520.691 319.71 529.988 339.021 c 0
 540.001 358.333 547.154 377.643 552.161 396.955 c 0
 557.882 429.855 552.876 447.021 536.426 447.021 c 0
 502.811 447.021 470.624 426.995 439.154 386.941 c 0
 424.85 366.915 412.689 348.319 401.962 330.438 c 0
 391.948 312.558 384.796 293.246 380.505 273.936 c 0
 371.207 228.875 381.935 206.702 413.406 206.702 c 0
 436.294 206.702 464.902 231.735 497.804 281.088 c 0
803.923 379.074 m 0
 792.48 319.71 765.301 266.782 722.387 219.576 c 0
 674.466 163.788 620.108 135.895 559.313 135.895 c 0
 542.862 135.895 529.273 139.471 518.545 145.908 c 0
 507.816 152.345 498.519 160.928 490.65 171.657 c 0
 488.505 175.232 487.075 178.809 484.93 182.385 c 0
 482.783 185.961 481.353 189.538 480.638 193.113 c 1
 452.743 171.657 l 2
 439.154 161.644 424.135 153.06 408.399 146.624 c 0
 393.379 139.471 378.359 135.895 364.769 135.895 c 0
 332.584 135.895 308.982 148.053 294.677 170.94 c 0
 279.656 193.828 276.796 226.729 285.378 271.074 c 0
 295.392 316.85 321.856 366.2 364.769 419.128 c 0
 416.267 483.498 476.346 515.685 543.578 515.685 c 0
 560.743 515.685 572.902 511.393 580.055 504.24 c 0
 587.208 496.372 591.499 489.22 594.36 483.498 c 1
 603.657 500.664 l 1
 701.646 500.664 l 1
 577.194 241.749 l 1
 571.473 218.146 l 2
 567.181 202.412 572.902 194.543 587.208 194.543 c 0
 605.803 194.543 623.684 200.98 640.135 213.854 c 0
 656.585 226.729 671.604 242.464 684.479 261.062 c 0
 698.068 278.941 709.513 298.969 718.812 321.14 c 0
 728.108 342.598 734.546 361.193 738.121 377.643 c 0
 745.989 411.975 745.274 444.161 735.976 474.199 c 0
 726.679 503.525 712.373 529.273 692.347 551.446 c 0
 672.319 573.618 648.003 590.783 618.678 602.942 c 0
 590.068 615.102 559.313 620.823 527.127 620.823 c 0
 483.498 620.823 444.161 612.241 408.399 595.79 c 0
 373.353 578.625 342.598 555.738 314.703 526.412 c 0
 287.524 497.804 264.637 464.188 246.041 426.28 c 0
 227.444 388.373 213.854 348.319 205.272 306.12 c 0
 197.405 270.358 196.688 236.027 204.557 204.557 c 0
 211.709 172.372 224.583 145.192 243.896 122.305 c 0
 263.207 99.418 286.81 81.5371 316.133 67.9473 c 0
 345.458 55.0732 378.359 48.6357 414.836 48.6357 c 0
 474.2 48.6357 542.862 65.0859 620.823 99.418 c 1
 632.982 47.2051 l 1
 582.916 27.1787 539.287 12.874 501.379 2.86133 c 0
 464.188 -7.15234 431.287 -11.4434 402.677 -11.4434 c 0
 284.663 -11.4434 197.405 25.0332 140.901 99.418 c 0
 115.868 131.604 100.848 165.934 95.126 203.127 c 0
 89.4043 239.604 90.1191 276.796 97.9873 314.703 c 0
 119.444 418.413 172.372 504.24 256.055 572.902 c 0
 342.598 640.85 436.294 675.182 539.287 675.182 c 0
 627.261 675.182 697.354 648.718 750.281 596.506 c 0
 805.354 541.433 823.95 469.193 803.923 379.074 c 0
EndSplineSet
Fore
SplineSet
372 227 m 0xdf80
 372 332 493 519 631 519 c 0
 668 519 681 508 694 466 c 1
 713 505 l 1
 784 505 l 1
 664 246 l 2
 660 237 655 221 655 209 c 0
 655 190 666 180 686 180 c 0
 768 180 863 327 863 434 c 0
 863 555 763 652 625 652 c 0
 401 652 262 421 262 255 c 0
 262 119 354 26 505 26 c 0
 571 26 625 40 715 76 c 1
 719 41 l 1
 612 -4 557 -19 482 -19 c 0
 296 -19 171 98 171 258 c 0
 171 475 383 691 631 691 c 0
 800 691 911 589 911 448 c 0
 911 297 783 144 664 144 c 0xbf80
 617 144 586 165 586 218 c 1
 541 171 486 144 444 144 c 0
 400 144 372 179 372 227 c 0xdf80
497 190 m 0xdf80
 580 190 668 380 668 432 c 0
 668 459 652 472 631 472 c 0
 580 472 451 366 451 248 c 0
 451 212 467 190 497 190 c 0xdf80
EndSplineSet
EndChar

StartChar: A
Encoding: 65 65 34
Width: 720
Flags: W
HStem: 0 25<15 53.3569 156.347 212 371 441.795 657.558 688> 196 40<239 434> 670 20G<463.664 508.221>
DStem2: 138 142 193 158 0.524964 0.851125<-68.4782 86.3829 133.027 416.495> 504 690 385 479 0.206479 -0.978451<181.882 429.763 469.934 587.64>
LayerCount: 2
Back
SplineSet
303.259 269.644 m 1
 482.068 269.644 l 1
 439.154 480.638 l 1
 303.259 269.644 l 1
710.228 0 m 1
 434.862 0 l 1
 444.161 42.1992 l 1
 483.498 42.1992 l 2
 492.082 42.1992 499.233 45.0596 504.956 50.0664 c 0
 509.963 54.3574 512.823 59.3643 514.253 62.9404 c 0
 516.399 70.8086 516.399 80.1064 514.968 91.5498 c 0
 513.538 102.994 511.393 113.007 509.963 123.021 c 2
 492.082 203.842 l 1
 263.922 203.842 l 1
 202.412 100.848 l 1
 198.12 95.8418 195.26 90.835 193.113 85.8281 c 0
 191.683 80.1064 189.538 75.0996 187.392 70.0928 c 0
 184.531 51.4971 203.842 42.1992 246.041 42.1992 c 1
 237.457 0 l 1
 16.4502 0 l 1
 25.0332 42.1992 l 1
 41.4834 42.1992 57.9336 47.9209 73.6689 57.9336 c 0
 90.1191 67.9473 103.709 80.8213 114.438 96.5566 c 2
 473.485 662.307 l 1
 527.127 662.307 l 1
 648.718 118.729 l 1
 656.585 88.6895 665.169 67.9473 673.751 57.9336 c 0
 682.333 47.9209 698.068 42.1992 719.525 42.1992 c 1
 710.228 0 l 1
EndSplineSet
Fore
SplineSet
403 28 m 0
 443 29 460 43 460 79 c 0
 460 103 454 136 439 196 c 1
 215 196 l 1
 193 158 l 1
 150 88 144 75 144 57 c 0
 144 37 166 29 218 25 c 1
 212 0 l 1
 9 0 l 1
 15 25 l 1
 64 34 79 48 138 142 c 2
 476 690 l 1
 504 690 l 1
 615 164 l 2
 640 45 652 25 691 25 c 2
 694 25 l 1
 688 0 l 1
 365 0 l 1
 371 25 l 1
 385 26 398 28 403 28 c 0
239 236 m 1
 434 236 l 1
 385 479 l 1
 239 236 l 1
EndSplineSet
EndChar

StartChar: B
Encoding: 66 66 35
Width: 666
Flags: W
HStem: 0 32<285.345 399.86> 0 25<22 82.8007> 343 31<343 443.709> 646 31<160 222.028 406.559 509.053>
VStem: 492 172<141.431 289.092> 536 161<466.128 611.954>
DStem2: 104.382 0 263.445 0 0.207912 0.978148<105.35 383.869 415.439 618.553>
LayerCount: 2
Back
SplineSet
563.605 482.068 m 0
 581.486 562.174 538.572 602.228 434.862 602.228 c 2
 392.663 602.228 l 2
 388.373 602.228 385.512 596.506 382.649 584.347 c 1
 338.306 376.213 l 1
 416.267 377.643 l 2
 499.949 379.789 549.3 414.836 563.605 482.068 c 0
521.406 185.961 m 0
 534.995 249.616 509.963 288.955 447.021 304.69 c 0
 423.418 310.412 382.649 313.272 324.001 313.272 c 1
 276.796 89.4043 l 2
 273.936 76.5303 276.796 67.9473 285.378 62.9404 c 2
 283.948 62.9404 l 2
 293.962 60.7949 309.697 60.0801 331.153 60.0801 c 0
 440.584 60.0801 504.24 102.278 521.406 185.961 c 0
663.737 181.669 m 0
 650.148 125.166 618.678 80.8213 570.042 48.6357 c 0
 520.691 16.4502 462.042 0 394.094 0 c 2
 33.6162 0 l 1
 42.1992 43.6289 l 1
 60.7949 43.6289 76.5303 45.0596 88.6895 47.2051 c 0
 100.848 48.6357 110.861 52.2119 119.444 57.9336 c 0
 128.027 62.9404 134.464 70.8086 139.471 80.1064 c 0
 143.762 89.4043 148.053 101.563 150.914 117.299 c 1
 241.749 545.008 l 1
 246.756 564.32 248.901 580.055 248.187 592.214 c 0
 247.471 604.373 239.604 611.524 222.438 613.671 c 2
 165.219 620.823 l 1
 174.518 662.307 l 1
 471.339 662.307 l 2
 646.571 662.307 721.672 603.657 697.354 487.79 c 0
 692.347 462.042 683.05 440.584 668.744 421.988 c 0
 654.438 403.393 637.989 386.941 619.394 373.353 c 0
 613.671 368.346 606.518 364.769 598.65 361.193 c 0
 590.068 357.618 580.77 354.041 571.473 349.75 c 1
 650.148 319.71 680.903 263.922 663.737 181.669 c 0
EndSplineSet
Fore
SplineSet
504 365 m 1x74
 525 360 664 336 664 221 c 0
 664 102 534 0 338 0 c 2xb8
 16 0 l 1
 22 25 l 1
 97 34 114 45 125 97 c 2
 227 580 l 2
 230 590 230 599 230 606 c 0
 230 637 209 647 154 650 c 1
 160 677 l 1
 469 677 l 2
 618 677 697 631 697 548 c 0
 697 434 604 392 504 365 c 1x74
333 32 m 0
 475 32 492 198 492 236 c 0
 492 308 451 343 368 343 c 2
 337 343 l 1
 283 92 l 2
 281 85 280 78 280 70 c 0
 280 42 296 32 333 32 c 0
391 598 m 2
 343 374 l 1
 467 376 507 404 529 508 c 0
 533 530 536 549 536 565 c 0x34
 536 621 510 646 456 646 c 0
 416 646 398 633 391 598 c 2
EndSplineSet
EndChar

StartChar: C
Encoding: 67 67 36
Width: 720
Flags: W
HStem: -19 48<349.78 524.204> 658 33<476.567 618.366>
VStem: 110 171<137.744 361.567> 741 25<454 486.76> 788 28<667.178 688>
LayerCount: 2
Back
SplineSet
663.737 121.59 m 1
 642.996 95.126 613.671 70.8086 575.763 48.6357 c 0
 543.578 28.6094 509.246 13.5898 473.485 3.57617 c 0
 437.009 -6.4375 399.815 -11.4434 361.908 -11.4434 c 0
 309.697 -11.4434 264.637 -4.29102 226.015 10.7285 c 0
 187.392 26.4639 157.352 48.6357 134.464 79.3906 c 0
 90.835 141.616 79.3906 223.153 99.418 324.001 c 0
 110.146 370.492 127.312 414.836 150.914 455.604 c 0
 174.518 496.372 206.702 534.995 247.471 570.042 c 0
 284.663 602.228 324.001 625.83 364.769 641.564 c 0
 405.537 657.3 447.021 665.169 489.22 665.169 c 0
 502.811 665.169 517.114 664.452 531.419 663.022 c 0
 546.439 661.592 560.028 660.162 572.188 658.73 c 0
 584.347 657.3 594.36 655.155 603.657 653.725 c 0
 612.241 652.293 617.963 651.578 620.823 650.148 c 2
 676.611 632.982 l 1
 689.485 633.697 700.931 643.711 711.658 663.737 c 1
 761.726 663.737 l 1
 720.957 427.71 l 1
 668.029 427.71 l 1
 668.029 483.498 653.725 526.412 626.545 555.738 c 0
 598.65 585.776 558.599 600.797 507.101 600.797 c 0
 442.015 600.797 387.656 571.473 342.598 514.253 c 0
 321.14 487.79 302.544 459.181 286.81 427.71 c 0
 271.789 396.24 259.63 360.479 251.763 321.14 c 0
 234.597 246.756 238.174 183.814 263.922 131.604 c 0
 276.081 107.285 293.246 87.9736 314.703 73.6689 c 0
 336.16 60.0801 365.485 52.9277 402.677 52.9277 c 0
 473.485 52.9277 550.015 86.543 634.412 153.774 c 1
 663.737 121.59 l 1
EndSplineSet
Fore
SplineSet
434 29 m 0
 536 29 619 91 690 152 c 1
 713 127 l 1
 629 52 544 -19 398 -19 c 0
 221 -19 110 89 110 249 c 0
 110 474 304 691 543 691 c 0
 648 691 703 642 734 642 c 0
 753 642 768 653 788 688 c 1
 816 688 l 1
 766 454 l 1
 741 454 l 1
 722 530 706 562 671 602 c 1
 636 640 596 658 549 658 c 0
 335 658 281 297 281 204 c 0
 281 64 359 29 434 29 c 0
EndSplineSet
EndChar

StartChar: D
Encoding: 68 68 37
Width: 720
Flags: W
HStem: 0 35<278.095 405.913> 0 25<21 78.7911> 642 35<397.668 524.815> 650 27<158 207.875>
VStem: 601 171<302.5 534.196>
DStem2: 96.6574 0 258.445 0 0.207912 0.978148<104.849 617.979>
LayerCount: 2
Back
SplineSet
601 456 m 0
 601 566 560 642 454 642 c 0
 415 642 393 630 388 606 c 2
 278 92 l 2
 277 83 275 75 275 69 c 0
 275 44 289 35 324 35 c 0
 488 35 553 178 586 330 c 0
 595 375 601 417 601 456 c 0
645.856 329.724 m 0
 664.452 420.558 652.293 488.505 609.38 534.995 c 0
 587.923 557.167 562.174 574.333 531.419 585.776 c 0
 501.379 597.936 462.042 603.657 414.836 603.657 c 0
 400.532 603.657 391.948 602.228 387.656 600.082 c 0
 383.366 597.221 379.789 589.354 377.643 575.763 c 1
 273.936 89.4043 l 2
 271.074 75.8145 274.65 67.2324 283.948 64.3711 c 0
 293.962 61.5098 303.259 60.0801 311.843 60.0801 c 0
 406.969 60.0801 481.353 82.252 535.711 127.312 c 0
 589.354 172.372 626.545 239.604 645.856 329.724 c 0
793.91 329.724 m 0
 775.314 244.61 734.546 173.087 670.89 114.438 c 0
 587.923 37.9072 477.776 0 339.737 0 c 2
 36.4766 0 l 1
 45.0596 43.6289 l 1
 62.2256 43.6289 75.8145 45.0596 87.9736 47.2051 c 0
 99.418 48.6357 109.431 52.2119 116.583 57.2188 c 0
 123.735 62.2256 130.173 69.3779 134.464 79.3906 c 0
 139.471 88.6895 143.762 101.563 146.624 117.299 c 1
 237.457 546.439 l 1
 242.464 567.181 244.61 582.916 243.896 595.79 c 0
 243.181 607.949 235.312 614.387 219.576 616.531 c 2
 168.795 620.823 l 1
 177.379 663.737 l 1
 465.617 663.737 l 2
 583.632 663.737 671.604 637.989 729.539 587.208 c 0
 763.87 559.313 786.042 523.552 796.056 480.638 c 0
 806.069 437.724 805.354 386.941 793.91 329.724 c 0
EndSplineSet
Fore
SplineSet
772 428 m 0x28
 772 227 613 0 330 0 c 2xa8
 15 0 l 1
 21 25 l 1
 78 26 107 47 116 91 c 2
 221 584 l 2
 223 592 224 599 224 605 c 0
 224 634 205 646 152 650 c 1
 158 677 l 1x58
 463 677 l 2
 661 677 772 584 772 428 c 0x28
601 456 m 0
 601 566 560 642 454 642 c 0
 415 642 393 630 388 606 c 2
 278 92 l 2
 277 83 275 75 275 69 c 0
 275 44 289 35 324 35 c 0
 515 35 601 265 601 456 c 0
EndSplineSet
EndChar

StartChar: E
Encoding: 69 69 38
Width: 666
Flags: W
HStem: 0 31<22 99.8235 289.195 468.041> 330 33<344 424.227> 642 35<404.677 600.348> 650 27<160 215.855>
VStem: 464 27<174 207.423> 536 26<479.577 513> 669 25<475 507.884>
DStem2: 104.382 0 267.72 0 0.207912 0.978148<101.97 374.967 404.887 618.553>
LayerCount: 2
Back
SplineSet
675.182 187.392 m 1
 585.776 0 l 1
 36.4766 0 l 1
 45.0596 43.6289 l 1
 77.9609 43.6289 100.848 49.3516 114.438 59.3643 c 0
 128.027 69.3779 138.04 88.6895 143.762 117.299 c 2
 234.597 546.439 l 2
 239.604 568.612 241.034 585.062 240.318 594.36 c 0
 239.604 604.373 231.735 610.81 216.716 613.671 c 2
 168.795 620.823 l 1
 177.379 663.737 l 1
 720.957 663.737 l 1
 685.194 499.233 l 1
 630.122 499.233 l 1
 633.697 548.585 627.261 577.909 610.81 588.637 c 0
 594.36 598.65 563.605 603.657 519.975 603.657 c 2
 402.677 603.657 l 2
 396.24 603.657 389.803 600.797 385.512 594.36 c 0
 380.505 588.637 377.643 582.201 376.213 575.763 c 1
 334.014 380.505 l 1
 458.465 380.505 l 2
 494.942 380.505 517.83 385.512 527.127 394.094 c 0
 540.718 404.822 555.021 430.57 570.042 471.339 c 1
 628.69 471.339 l 1
 577.194 223.868 l 1
 518.545 223.868 l 1
 521.406 266.782 519.26 292.531 511.393 300.398 c 0
 503.525 308.982 480.638 313.272 444.161 313.272 c 2
 318.994 313.272 l 1
 272.504 90.835 l 2
 270.358 82.252 272.504 75.0996 277.511 69.3779 c 0
 283.232 64.3711 293.962 61.5098 310.412 61.5098 c 2
 388.373 61.5098 l 2
 444.161 61.5098 485.645 68.6621 512.823 83.6826 c 0
 529.273 92.2656 546.439 105.14 562.889 122.305 c 0
 580.055 139.471 597.221 160.928 613.671 187.392 c 1
 675.182 187.392 l 1
EndSplineSet
Fore
SplineSet
354 31 m 0xee
 511 31 582 98 656 208 c 1
 686 208 l 1
 601 0 l 1
 16 0 l 1
 22 25 l 1
 97 34 113 44 125 97 c 2
 227 580 l 2
 230 590 230 599 230 606 c 0
 230 637 209 647 154 650 c 1
 160 677 l 1
 737 677 l 1xde
 694 475 l 1
 669 475 l 1
 669 486 l 2
 669 609 625 642 467 642 c 0
 415 642 401 633 393 595 c 2
 344 363 l 1
 437 363 492 382 536 513 c 1
 562 513 l 1
 491 174 l 1
 464 174 l 1
 466 190 467 205 467 218 c 0
 467 300 431 330 337 330 c 1
 286 86 l 2
 284 79 283 72 283 66 c 0
 283 40 303 31 354 31 c 0xee
EndSplineSet
EndChar

StartChar: F
Encoding: 70 70 39
Width: 610
Flags: W
HStem: 0 25<22 82.5525 303.847 376> 330 33<344 412.479> 642 35<405.389 590.432> 650 27<160 215.855>
VStem: 456 24<174 206.958> 527 25<482.729 513>
DStem2: 104.382 0 266.382 0 0.207912 0.978148<106.182 374.08 404.887 618.553>
LayerCount: 2
Back
SplineSet
690.2 499.233 m 1
 632.982 499.233 l 1
 638.704 547.154 632.268 576.479 613.671 587.208 c 0
 597.221 597.221 567.181 602.228 522.837 602.228 c 2
 394.094 602.228 l 2
 384.081 602.228 377.643 594.36 374.782 580.055 c 2
 332.584 380.505 l 1
 454.175 380.505 l 2
 487.075 380.505 511.393 386.941 526.412 399.101 c 0
 541.433 411.26 555.021 434.862 565.75 469.909 c 1
 620.823 469.909 l 1
 568.612 222.438 l 1
 512.823 222.438 l 1
 517.83 258.915 514.968 283.232 504.956 296.822 c 0
 494.227 309.697 473.485 316.133 440.584 316.133 c 2
 318.994 316.133 l 1
 276.796 117.299 l 2
 271.074 88.6895 272.504 69.3779 281.803 59.3643 c 0
 291.1 49.3516 311.843 43.6289 344.027 43.6289 c 1
 335.445 0 l 1
 35.0469 0 l 1
 43.6289 43.6289 l 1
 80.8213 43.6289 106.57 50.0664 120.159 61.5098 c 0
 130.173 72.2383 138.04 94.4111 145.192 128.742 c 1
 233.167 545.008 l 1
 236.027 560.743 236.742 572.902 236.742 581.486 c 0
 236.027 590.068 234.597 597.221 232.45 602.228 c 0
 229.59 607.234 226.729 610.095 223.153 611.524 c 0
 220.293 612.956 217.432 613.671 215.286 613.671 c 2
 166.65 620.823 l 1
 175.947 662.307 l 1
 722.387 662.307 l 1
 690.2 499.233 l 1
EndSplineSet
Fore
SplineSet
727 677 m 1xdc
 684 475 l 1
 661 475 l 1
 659 538 655 565 639 590 c 1
 614 625 558 642 466 642 c 0xec
 415 642 401 631 393 595 c 2
 344 363 l 1
 444 363 486 398 527 513 c 1
 552 513 l 1
 480 174 l 1
 456 174 l 1
 457 189 457 202 457 214 c 0
 457 299 425 327 337 330 c 1
 287 97 l 2
 284 86 284 78 284 70 c 0
 284 37 308 28 382 25 c 1
 376 0 l 1
 16 0 l 1
 22 25 l 1
 97 34 113 44 125 97 c 2
 227 580 l 2
 230 590 230 599 230 606 c 0
 230 637 209 647 154 650 c 1
 160 677 l 1
 727 677 l 1xdc
EndSplineSet
EndChar

StartChar: G
Encoding: 71 71 40
Width: 777
Flags: W
HStem: -19 34<344.276 493.144> 262 25<473 540.573 751.318 810> 658 33<464.386 605.809>
VStem: 98 170<135.941 349.749> 728 26<454 486.76> 776 28<667.178 688>
LayerCount: 2
Back
SplineSet
779.606 318.994 m 1
 746.705 316.133 729.539 313.272 726.679 310.412 c 0
 714.52 299.684 705.937 281.803 700.214 256.055 c 1
 660.877 67.2324 l 2
 659.445 61.5098 654.439 55.0732 644.426 49.3516 c 0
 634.412 42.9141 622.254 37.1924 607.949 31.4707 c 0
 592.929 26.4639 577.194 21.457 559.313 17.166 c 0
 542.147 12.1592 524.267 8.58301 507.101 4.29102 c 0
 481.353 -0.714844 459.896 -4.29102 442.015 -7.15234 c 0
 424.85 -10.0137 409.114 -11.4434 395.525 -11.4434 c 0
 274.65 -11.4434 188.106 22.8877 135.895 92.2656 c 0
 110.861 127.312 96.5566 164.504 93.6953 204.557 c 0
 90.835 243.896 94.4111 287.524 105.14 335.445 c 0
 125.881 431.287 175.232 509.963 253.193 572.902 c 0
 291.816 602.942 333.299 625.83 379.074 641.564 c 0
 425.563 657.3 472.771 665.169 521.406 665.169 c 0
 539.287 665.169 559.313 663.737 582.916 661.592 c 0
 606.518 658.73 622.969 655.87 632.982 651.578 c 2
 687.34 632.982 l 1
 693.062 632.982 699.499 635.844 705.937 641.564 c 0
 713.088 647.288 718.811 655.155 723.817 665.169 c 1
 776.029 665.169 l 1
 735.261 439.154 l 1
 683.765 439.154 l 1
 663.737 547.869 609.38 602.228 521.406 602.228 c 0
 484.213 602.228 451.312 595.075 422.703 580.77 c 0
 394.094 566.466 366.915 543.578 341.167 512.823 c 0
 318.994 485.645 300.398 455.604 286.093 423.418 c 0
 272.504 391.233 261.062 355.472 253.193 316.133 c 0
 245.324 278.226 242.464 243.181 243.896 210.994 c 0
 245.324 178.809 253.908 151.63 269.644 128.742 c 0
 286.81 102.278 306.12 82.9668 327.577 69.3779 c 0
 348.319 56.5039 377.643 50.0664 414.836 50.0664 c 0
 425.563 50.0664 437.724 50.7812 451.312 52.9277 c 0
 464.902 54.3574 477.776 57.2188 490.65 60.0801 c 0
 520.691 67.9473 537.857 78.6758 540.718 92.2656 c 2
 574.333 246.041 l 2
 579.34 268.212 580.77 284.663 579.34 294.677 c 0
 577.909 303.976 570.042 311.126 556.452 314.703 c 0
 547.869 317.564 531.419 318.994 507.101 318.994 c 1
 517.114 367.631 l 1
 789.618 367.631 l 1
 779.606 318.994 l 1
EndSplineSet
Fore
SplineSet
532 691 m 0
 634 691 691 642 722 642 c 0
 741 642 756 653 776 688 c 1
 804 688 l 1
 754 454 l 1
 728 454 l 1
 710 530 694 564 659 602 c 0
 623 640 583 658 538 658 c 0
 416 658 330 546 286 338 c 0
 274 284 268 236 268 195 c 0
 268 87 307 15 420 15 c 0
 486 15 520 37 532 86 c 1
 554 192 l 2
 557 202 558 211 558 220 c 0
 558 250 535 258 467 262 c 1
 473 287 l 1
 816 287 l 1
 810 262 l 1
 734 253 721 242 706 170 c 2
 678 42 l 1
 606 4 492 -19 388 -19 c 0
 208 -19 98 86 98 248 c 0
 98 472 291 691 532 691 c 0
EndSplineSet
EndChar

StartChar: H
Encoding: 72 72 41
Width: 777
Flags: W
HStem: 0 25<26 82.9759 308.01 357 425 483.957 709.595 759> 327 47<347 577> 650 27<164 215.808 428.988 495 562 619.065 831.601 896>
DStem2: 105.382 0 268.382 0 0.207912 0.978148<109.235 368.01 416.062 617.575> 508.382 0 670.382 0 0.207912 0.978148<108.093 334.121 382.173 617.574>
LayerCount: 2
Back
SplineSet
864.004 622.254 m 1
 873.301 663.737 l 1
 567.181 663.737 l 1
 557.882 622.254 l 1
 559.313 622.254 563.605 622.254 572.188 621.538 c 0
 580.055 621.538 590.068 620.108 602.228 617.248 c 0
 613.671 615.102 621.538 611.524 625.115 606.518 c 0
 630.122 600.797 632.982 592.929 634.412 583.632 c 0
 635.129 574.333 632.982 560.028 628.69 540.718 c 1
 592.929 370.492 l 1
 336.875 370.492 l 1
 371.922 540.718 l 1
 376.928 560.028 381.22 574.333 385.512 583.632 c 0
 389.088 592.929 394.809 600.797 402.677 606.518 c 0
 409.829 611.524 419.128 615.102 431.287 617.248 c 0
 443.444 620.108 454.175 621.538 462.042 621.538 c 0
 470.624 622.254 474.916 622.254 476.346 622.254 c 1
 484.93 663.737 l 1
 178.809 663.737 l 1
 170.226 622.254 l 1
 171.657 622.254 177.379 622.254 185.961 621.538 c 0
 194.543 621.538 205.272 620.108 217.432 617.248 c 0
 229.59 615.102 237.457 611.524 241.749 606.518 c 0
 246.756 601.513 248.187 594.36 247.471 585.062 c 0
 246.756 575.763 245.324 568.612 244.61 562.174 c 2
 150.914 125.881 l 2
 146.624 108.716 143.047 94.4111 140.186 84.3975 c 0
 136.609 73.6689 130.888 65.0859 123.021 57.2188 c 0
 118.014 52.9277 109.431 50.0664 96.5566 48.6357 c 0
 83.6826 46.4902 72.9541 45.0596 63.6562 44.3447 c 0
 54.3574 44.3447 48.6357 43.6289 47.2051 43.6289 c 1
 37.9072 0 l 1
 344.027 0 l 1
 353.326 43.6289 l 1
 351.18 43.6289 345.458 44.3447 336.875 44.3447 c 0
 328.292 45.0596 317.564 46.4902 305.405 48.6357 c 0
 293.246 50.0664 285.378 52.9277 282.518 57.2188 c 0
 279.656 62.2256 278.226 69.3779 277.511 78.6758 c 0
 276.796 87.9736 279.656 105.854 285.378 133.033 c 2
 322.571 303.259 l 1
 578.625 303.259 l 1
 542.147 133.033 l 2
 536.426 105.854 531.419 87.9736 527.127 78.6758 c 0
 523.552 69.3779 517.83 62.2256 511.393 57.2188 c 0
 506.386 52.9277 497.804 50.0664 484.93 48.6357 c 0
 472.056 46.4902 461.325 45.0596 452.028 44.3447 c 0
 442.729 44.3447 437.009 43.6289 434.862 43.6289 c 1
 426.28 0 l 1
 732.4 0 l 1
 740.982 43.6289 l 1
 740.268 43.6289 735.261 44.3447 725.962 44.3447 c 0
 716.665 45.0596 705.937 46.4902 694.492 48.6357 c 0
 682.333 50.0664 675.182 52.9277 672.319 57.2188 c 0
 666.599 65.0859 663.737 73.6689 665.169 84.3975 c 0
 665.884 94.4111 668.744 108.716 672.319 125.881 c 2
 764.586 556.453 l 2
 765.301 561.459 768.162 570.042 771.737 581.486 c 0
 776.029 592.929 781.036 601.513 786.757 606.518 c 0
 792.48 611.524 801.777 615.102 815.368 617.248 c 0
 828.242 620.108 839.685 621.538 848.983 621.538 c 0
 858.282 622.254 863.287 622.254 864.004 622.254 c 1
EndSplineSet
Fore
SplineSet
577 327 m 1
 337 327 l 1
 289 97 l 2
 287 88 286 79 286 73 c 0
 286 42 306 32 363 25 c 1
 357 0 l 1
 21 0 l 1
 26 25 l 1
 98 34 116 47 126 97 c 2
 229 580 l 1
 230 590 231 598 231 605 c 0
 231 636 212 646 158 650 c 1
 164 677 l 1
 501 677 l 1
 495 650 l 1
 426 646 401 630 391 580 c 2
 347 374 l 1
 587 374 l 1
 631 580 l 2
 633 589 634 598 634 605 c 0
 634 636 614 647 557 650 c 1
 562 677 l 1
 902 677 l 1
 896 650 l 1
 829 646 804 630 794 580 c 2
 691 97 l 1
 690 86 688 79 688 72 c 0
 688 42 707 32 765 25 c 1
 759 0 l 1
 419 0 l 1
 425 25 l 1
 499 34 519 47 529 97 c 2
 577 327 l 1
EndSplineSet
EndChar

StartChar: I
Encoding: 73 73 42
Width: 388
Flags: W
HStem: 0 25<26 91.0566 310.417 371> 650 27<164 222.953 436.404 508>
DStem2: 112.382 0 275.382 0 0.207912 0.978148<106.39 617.782>
LayerCount: 2
Back
SplineSet
334.014 0 m 1
 27.8945 0 l 1
 36.4766 43.6289 l 1
 70.8086 43.6289 94.4111 48.6357 108.716 57.9336 c 0
 122.305 67.2324 132.318 87.2588 139.471 117.299 c 1
 230.306 545.008 l 2
 233.167 559.313 234.597 572.188 236.027 582.916 c 0
 236.742 593.644 236.027 601.513 233.167 606.518 c 0
 230.306 612.956 221.723 617.248 207.419 617.963 c 0
 193.113 619.394 177.379 619.394 159.498 619.394 c 1
 168.795 662.307 l 1
 474.916 662.307 l 1
 465.617 619.394 l 1
 446.307 619.394 429.855 619.394 416.981 617.963 c 0
 403.393 617.248 393.379 612.956 386.941 606.518 c 0
 377.643 597.936 369.775 577.194 361.908 545.008 c 1
 271.074 117.299 l 2
 263.922 85.8281 265.352 65.8018 275.365 57.2188 c 0
 285.378 48.6357 307.551 43.6289 342.598 43.6289 c 1
 334.014 0 l 1
EndSplineSet
Fore
SplineSet
133 97 m 1
 236 580 l 2
 237 589 239 598 239 605 c 0
 239 636 217 647 158 650 c 1
 164 677 l 1
 514 677 l 1
 508 650 l 1
 434 647 410 631 398 580 c 1
 296 97 l 2
 293 86 293 78 293 70 c 0
 293 38 315 28 376 25 c 1
 371 0 l 1
 21 0 l 1
 26 25 l 1
 103 32 123 45 133 97 c 1
EndSplineSet
EndChar

StartChar: J
Encoding: 74 74 43
Width: 499
Flags: W
HStem: -97 34<115.316 199.779> 650 27<271 337.972 550.128 617>
VStem: 9 104<-50.1824 50.5>
DStem2: 207.493 -97 369.238 -97 0.207912 0.978148<136.682 716.798>
LayerCount: 2
Back
SplineSet
521.406 619.394 m 1
 473.485 619.394 444.161 608.664 433.432 587.208 c 0
 429.855 578.625 425.564 565.035 420.558 546.439 c 1
 344.027 188.821 l 1
 332.584 131.604 309.697 83.6826 275.365 47.2051 c 1
 236.027 7.86719 186.676 -11.4434 127.312 -11.4434 c 0
 100.133 -11.4434 79.3906 -6.4375 64.3711 4.29102 c 0
 40.7686 20.0264 32.1855 41.4834 37.9072 68.6621 c 0
 40.7686 82.252 49.3516 95.8418 62.9404 110.146 c 0
 76.5303 123.735 91.5498 130.173 108.716 130.173 c 0
 131.604 130.173 147.338 123.021 154.491 108 c 0
 161.644 92.2656 163.788 76.5303 159.498 60.0801 c 0
 158.066 54.3574 158.066 50.7812 159.498 50.0664 c 0
 161.644 48.6357 163.788 48.6357 165.219 48.6357 c 0
 179.524 48.6357 189.538 65.0859 195.975 99.418 c 1
 291.816 546.439 l 2
 298.252 577.909 296.822 597.936 286.81 606.518 c 0
 277.511 615.102 255.338 619.394 221.008 619.394 c 1
 230.306 663.737 l 1
 529.988 663.737 l 1
 521.406 619.394 l 1
EndSplineSet
Fore
SplineSet
155 48 m 0
 155 1 113 -3 113 -37 c 0
 113 -53 127 -63 151 -63 c 0
 196 -63 220 -38 233 23 c 2
 352 580 l 1
 353 590 354 598 354 605 c 0
 354 639 331 647 265 650 c 1
 271 677 l 1
 623 677 l 1
 617 650 l 1
 542 646 524 631 508 560 c 1
 416 123 l 2
 385 -21 296 -97 155 -97 c 0
 116 -97 78 -86 54 -73 c 1
 26 -54 9 -19 9 16 c 0
 9 85 72 108 97 108 c 0
 130 108 155 82 155 48 c 0
EndSplineSet
EndChar

StartChar: K
Encoding: 75 75 44
Width: 777
Flags: W
HStem: 0 25<35 95.8007 317.773 368 439 518.081 736.395 769> 650 27<173 229.192 440.854 505 590 661.039 802.516 873>
DStem2: 117.382 0 278.382 0 0.207912 0.978148<107.885 330.926 387.219 618.553> 504 423 374 316 0.514829 -0.857293<24.8025 329.15>
LayerCount: 2
Back
SplineSet
745.274 0 m 1
 421.988 0 l 1
 430.57 43.6289 l 1
 470.624 43.6289 493.512 47.2051 499.233 52.9277 c 0
 500.664 53.6426 500.664 54.3574 500.664 55.7881 c 0
 500.664 56.5039 501.379 57.9336 502.094 60.0801 c 0
 503.525 65.8018 502.094 72.9541 497.804 81.5371 c 0
 494.227 89.4043 489.22 97.9873 483.498 107.285 c 2
 339.737 300.398 l 1
 326.863 290.385 l 1
 290.385 117.299 l 2
 286.81 103.709 285.378 91.5498 283.948 81.5371 c 0
 283.232 70.8086 285.378 63.6562 290.385 58.6494 c 0
 294.677 50.7812 304.69 46.4902 318.994 45.0596 c 0
 334.014 44.3447 346.888 43.6289 359.048 43.6289 c 1
 349.75 0 l 1
 43.6289 0 l 1
 52.9277 43.6289 l 1
 92.9805 43.6289 120.875 50.0664 135.895 62.9404 c 0
 140.186 65.8018 143.762 72.9541 147.338 85.1133 c 0
 150.914 96.5566 154.491 111.576 158.066 128.742 c 2
 246.041 545.008 l 1
 253.193 574.333 251.763 593.644 241.749 604.373 c 0
 231.735 614.387 210.279 619.394 175.947 619.394 c 1
 184.531 663.737 l 1
 493.512 663.737 l 1
 484.93 619.394 l 1
 468.479 619.394 452.028 618.678 437.009 615.816 c 0
 421.988 613.671 411.26 609.38 404.107 603.657 c 0
 398.386 598.65 394.094 591.499 390.519 581.486 c 0
 386.941 571.473 384.081 559.313 380.505 545.008 c 2
 345.458 380.505 l 1
 560.743 545.008 l 2
 591.499 568.612 607.949 587.208 610.81 602.228 c 0
 613.671 613.671 592.929 619.394 547.869 619.394 c 1
 556.452 663.737 l 1
 839.685 663.737 l 1
 830.388 619.394 l 1
 816.798 619.394 803.923 619.394 791.049 617.963 c 0
 778.175 617.248 765.301 613.671 751.712 607.949 c 0
 740.982 602.942 728.824 595.79 714.52 585.776 c 0
 700.931 576.479 684.479 563.605 665.169 547.869 c 2
 455.604 376.213 l 1
 673.751 70.0928 l 2
 679.473 62.2256 690.2 56.5039 705.221 51.4971 c 0
 720.24 46.4902 736.691 43.6289 754.572 43.6289 c 1
 745.274 0 l 1
EndSplineSet
Fore
SplineSet
775 25 m 1
 769 0 l 1
 434 0 l 1
 439 25 l 1
 453 26 466 26 470 26 c 0
 504 28 523 32 523 50 c 0
 523 60 520 69 507 89 c 1
 374 316 l 1
 340 291 l 1
 299 97 l 2
 297 86 296 79 296 72 c 0
 296 42 315 32 374 25 c 1
 368 0 l 1
 29 0 l 1
 35 25 l 1
 110 34 127 45 138 97 c 2
 240 580 l 2
 243 590 243 599 243 606 c 0
 243 637 223 647 167 650 c 1
 173 677 l 1
 511 677 l 1
 505 650 l 1
 432 646 412 630 397 560 c 2
 352 346 l 1
 617 562 l 1
 648 590 665 606 665 625 c 0
 665 640 652 646 621 647 c 1
 615 649 602 650 584 650 c 1
 590 677 l 1
 879 677 l 1
 873 650 l 1
 775 643 735 618 504 423 c 1
 731 45 l 1
 738 31 750 26 775 25 c 1
EndSplineSet
EndChar

StartChar: L
Encoding: 76 76 45
Width: 666
Flags: W
HStem: 0 31<25 101.222 289.165 464.483> 650 27<163 217.378 427.508 505>
DStem2: 105.382 0 267.72 0 0.207912 0.978148<101.763 618.553>
LayerCount: 2
Back
SplineSet
679.473 193.113 m 1
 585.776 0 l 1
 37.9072 0 l 1
 47.2051 43.6289 l 1
 79.3906 43.6289 102.278 49.3516 115.868 59.3643 c 0
 129.457 69.3779 139.471 88.6895 145.192 117.299 c 2
 236.027 546.439 l 1
 239.604 562.174 241.749 575.763 242.464 586.493 c 0
 243.181 597.936 241.034 604.373 236.027 606.518 c 2
 170.226 620.823 l 1
 178.809 663.737 l 1
 484.93 663.737 l 1
 476.346 620.823 l 1
 419.128 615.102 l 2
 413.406 614.387 406.254 611.524 398.386 606.518 c 0
 387.656 598.65 378.359 578.625 370.492 546.439 c 1
 273.936 90.835 l 1
 271.789 85.1133 271.789 80.8213 272.504 78.6758 c 0
 273.219 75.8145 275.365 72.9541 278.226 68.6621 c 0
 280.371 67.2324 285.378 65.0859 294.677 63.6562 c 0
 303.259 62.2256 311.843 61.5098 318.994 61.5098 c 2
 348.319 61.5098 l 2
 428.425 61.5098 480.638 67.2324 505.671 79.3906 c 0
 543.578 94.4111 582.201 133.033 622.254 193.113 c 1
 679.473 193.113 l 1
EndSplineSet
Fore
SplineSet
353 31 m 0
 517 31 580 106 658 227 c 1
 687 227 l 1
 598 0 l 1
 19 0 l 1
 25 25 l 1
 100 34 116 45 126 97 c 1
 229 580 l 2
 231 590 231 599 231 606 c 0
 231 637 211 647 157 650 c 1
 163 677 l 1
 511 677 l 1
 505 650 l 1
 419 647 401 634 385 560 c 2
 286 86 l 2
 284 79 283 72 283 66 c 0
 283 40 303 31 353 31 c 0
EndSplineSet
EndChar

StartChar: M
Encoding: 77 77 46
Width: 943
Flags: W
HStem: 0 25<21 82.4916 190.416 248 595 658.141 872.828 921> 650 27<160 216.401 993.709 1059>
DStem2: 104.682 0 146.43 0 0.207912 0.978148<92.7829 616.76> 413 677 272 595 0.20717 -0.978305<51.01 483.455> 513 204 426 0 0.530374 0.847764<0 499.274> 677.744 0 833.131 0 0.207912 0.978148<107.372 622.566>
LayerCount: 2
Back
SplineSet
905.486 0 m 1
 599.367 0 l 1
 607.949 43.6289 l 1
 628.69 43.6289 645.856 45.0596 660.162 47.9209 c 0
 673.751 50.0664 683.765 54.3574 690.2 60.0801 c 0
 698.068 68.6621 705.937 91.5498 714.52 128.742 c 1
 792.48 493.512 l 1
 464.188 0 l 1
 430.57 0 l 1
 313.272 474.916 l 1
 244.61 153.774 l 1
 236.027 110.861 233.167 82.252 237.457 68.6621 c 0
 243.181 52.2119 268.212 43.6289 311.843 43.6289 c 1
 303.259 0 l 1
 39.3379 0 l 1
 48.6357 43.6289 l 1
 94.4111 43.6289 122.305 50.7812 131.604 64.3711 c 1
 145.192 79.3906 156.637 108.716 165.219 153.774 c 1
 248.901 543.578 l 2
 256.055 574.333 255.338 595.075 247.471 605.088 c 0
 244.61 607.949 238.174 610.095 228.16 612.241 c 2
 174.518 619.394 l 1
 183.1 662.307 l 1
 404.107 662.307 l 1
 517.114 197.405 l 1
 818.943 662.307 l 1
 1045.67 662.307 l 1
 1037.09 617.963 l 1
 1004.19 617.963 980.587 612.956 966.996 602.228 c 0
 953.407 591.499 943.395 571.473 937.673 543.578 c 2
 846.838 117.299 l 1
 837.539 79.3906 843.977 56.5039 864.004 48.6357 c 1
 914.069 42.1992 l 1
 905.486 0 l 1
EndSplineSet
Fore
SplineSet
807 609 m 1
 426 0 l 1
 398 0 l 1
 272 595 l 1
 173 125 l 1
 168 107 167 94 167 81 c 0
 167 41 190 29 253 25 c 1
 248 0 l 1
 15 0 l 1
 21 25 l 1
 100 34 116 45 127 105 c 1
 229 580 l 2
 231 590 233 599 233 606 c 0
 233 636 212 646 154 650 c 1
 160 677 l 1
 413 677 l 1
 513 204 l 1
 813 677 l 1
 1065 677 l 1
 1059 650 l 1
 986 646 968 631 952 560 c 2
 858 117 l 2
 854 98 853 83 853 72 c 0
 853 40 872 32 927 25 c 1
 921 0 l 1
 589 0 l 1
 595 25 l 1
 671 32 687 44 699 100 c 2
 807 609 l 1
EndSplineSet
EndChar

StartChar: N
Encoding: 78 78 47
Width: 720
Flags: W
HStem: -18 21G<577.831 622.278> 0 25<22 78.9666 194.407 243> 650 27<163 184.658 630 680.299 782.662 839>
DStem2: 99.8555 -18 143.604 -18 0.207912 0.978148<113.468 565.2> 374 677 259 526 0.519798 -0.85429<69.221 500.078> 574.46 -18 618 -18 0.207912 0.978148<271.943 623.658>
LayerCount: 2
Back
SplineSet
880.453 619.394 m 1
 859.712 619.394 842.546 617.248 827.525 611.524 c 0
 813.222 606.518 802.493 599.367 795.341 591.499 c 0
 781.751 574.333 771.022 546.439 763.155 508.531 c 2
 653.01 -8.58301 l 1
 607.949 -8.58301 l 1
 311.843 492.082 l 1
 241.749 155.206 l 1
 231.735 112.292 228.875 83.6826 233.167 68.6621 c 0
 236.742 52.2119 261.062 43.6289 306.12 43.6289 c 1
 297.537 0 l 1
 35.0469 0 l 1
 43.6289 43.6289 l 1
 90.1191 43.6289 119.444 52.9277 131.604 70.0928 c 0
 142.332 82.252 153.06 110.146 162.358 155.206 c 2
 251.763 577.194 l 1
 234.597 605.803 205.987 619.394 166.65 619.394 c 1
 175.947 663.737 l 1
 370.492 663.737 l 1
 623.684 226.729 l 1
 683.765 508.531 l 2
 688.771 530.704 692.347 548.585 694.492 562.174 c 0
 695.924 576.479 695.924 586.493 694.492 592.929 c 0
 687.34 610.81 661.592 619.394 616.531 619.394 c 1
 625.115 663.737 l 1
 889.037 663.737 l 1
 880.453 619.394 l 1
EndSplineSet
Fore
SplineSet
374 677 m 1x60
 631 248 l 1
 696 552 l 2
 699 568 702 582 702 593 c 0
 702 631 680 646 624 650 c 1
 630 677 l 1
 845 677 l 1
 839 650 l 1
 772 642 756 628 744 571 c 2
 618 -18 l 1
 590 -18 l 1xa0
 259 526 l 1
 174 125 l 2
 171 108 168 94 168 83 c 0
 168 44 190 32 249 25 c 1
 243 0 l 1
 16 0 l 1
 22 25 l 1
 97 34 114 48 126 105 c 2
 227 579 l 1
 190 636 177 650 157 650 c 1
 163 677 l 1
 374 677 l 1x60
EndSplineSet
EndChar

StartChar: O
Encoding: 79 79 48
Width: 777
Flags: W
HStem: -19 34<328.783 465.307> 658 33<467.47 589.549>
VStem: 97 167<138.471 342.358> 653 170<316.117 529.017>
LayerCount: 2
Back
SplineSet
108.716 331.153 m 0
 98.7021 283.232 97.9873 238.174 105.14 196.688 c 0
 113.007 155.206 128.742 119.444 151.63 88.6895 c 0
 174.518 57.9336 203.842 33.6162 240.318 15.7354 c 0
 276.081 -2.86133 316.85 -11.4434 361.908 -11.4434 c 0
 407.684 -11.4434 452.028 -2.86133 495.657 15.7354 c 0
 539.287 33.6162 579.34 57.9336 615.102 88.6895 c 0
 651.578 119.444 682.333 155.206 708.798 196.688 c 0
 735.261 238.174 753.142 283.232 763.155 331.153 c 0
 773.883 379.074 775.314 423.418 766.732 464.902 c 0
 758.863 506.386 742.413 542.862 719.525 574.333 c 0
 695.924 605.803 665.884 630.122 630.837 648.003 c 0
 595.075 665.884 554.307 675.182 508.531 675.182 c 0
 463.472 675.182 419.128 665.884 374.782 648.003 c 0
 331.153 630.122 291.1 605.803 255.338 574.333 c 0
 220.293 542.862 189.538 506.386 163.073 464.902 c 0
 137.325 423.418 119.444 379.074 108.716 331.153 c 0
250.331 331.153 m 0
 258.915 369.775 271.789 406.254 288.239 439.869 c 0
 305.405 474.199 324.717 502.811 346.173 527.844 c 0
 368.346 552.876 391.948 572.902 417.696 587.208 c 0
 442.729 602.228 468.479 609.38 494.942 609.38 c 0
 520.691 609.38 542.862 602.228 562.174 587.208 c 0
 582.201 572.902 597.936 552.876 609.38 527.844 c 0
 620.823 502.811 627.976 474.199 630.837 439.869 c 0
 632.982 406.254 630.122 369.775 620.823 331.153 c 0
 612.241 291.816 599.367 255.338 582.916 221.008 c 0
 566.466 186.676 547.154 157.352 524.981 132.318 c 0
 502.811 108 479.206 87.9736 453.458 72.9541 c 0
 427.71 58.6494 401.962 51.4971 376.213 51.4971 c 0
 349.75 51.4971 326.863 58.6494 307.551 72.9541 c 0
 288.239 87.9736 272.504 108 261.775 132.318 c 0
 250.331 157.352 243.181 186.676 241.034 221.008 c 0
 238.174 255.338 241.749 291.816 250.331 331.153 c 0
EndSplineSet
Fore
SplineSet
97 249 m 0
 97 465 277 691 539 691 c 0
 713 691 823 580 823 417 c 0
 823 203 643 -19 385 -19 c 0
 208 -19 97 88 97 249 c 0
393 15 m 0
 601 15 653 374 653 479 c 0
 653 595 612 658 532 658 c 0
 318 658 264 275 264 186 c 0
 264 75 308 15 393 15 c 0
EndSplineSet
EndChar

StartChar: P
Encoding: 80 80 49
Width: 610
Flags: W
HStem: 0 25<22 77.8169 300.155 350> 303 35<334 449.032> 642 35<399.999 508.95> 650 27<160 209.875>
VStem: 541 169<444.707 603.28>
DStem2: 100.131 0 262.131 0 0.207912 0.978148<106.42 347.616 379.238 615.069>
LayerCount: 2
Back
SplineSet
536.426 476.346 m 0
 545.008 517.83 538.572 550.015 517.83 571.473 c 0
 497.087 592.929 457.75 603.657 401.247 603.657 c 0
 391.233 603.657 384.796 602.228 380.505 600.082 c 0
 376.928 597.221 374.067 591.499 371.922 582.916 c 2
 321.14 344.027 l 1
 324.717 343.312 330.438 342.598 338.306 342.598 c 2
 364.769 342.598 l 2
 460.61 342.598 517.83 386.941 536.426 476.346 c 0
676.611 477.776 m 0
 668.744 442.015 653.725 411.26 631.552 384.796 c 0
 608.664 357.618 580.77 335.445 546.439 317.564 c 0
 519.975 303.976 491.365 293.962 459.896 287.524 c 0
 428.425 281.803 394.809 278.226 357.618 278.226 c 2
 306.12 278.226 l 1
 272.504 117.299 l 2
 266.782 87.9736 268.929 68.6621 280.371 58.6494 c 0
 291.816 48.6357 313.987 43.6289 346.888 43.6289 c 1
 338.306 0 l 1
 36.4766 0 l 1
 45.0596 43.6289 l 1
 63.6562 43.6289 80.1064 45.0596 92.9805 47.9209 c 0
 105.854 50.0664 115.152 53.6426 120.159 58.6494 c 0
 125.166 64.3711 129.457 72.9541 132.318 84.3975 c 0
 135.895 95.126 140.186 110.146 145.192 128.742 c 1
 233.167 546.439 l 1
 239.604 575.763 238.889 595.075 231.021 605.088 c 0
 222.438 614.387 201.695 619.394 168.795 619.394 c 1
 177.379 663.737 l 1
 449.883 663.737 l 2
 516.399 663.737 571.473 651.578 615.102 627.261 c 0
 670.89 593.644 691.632 543.578 676.611 477.776 c 0
EndSplineSet
Fore
SplineSet
327 303 m 1xe8
 287 117 l 2
 283 97 280 82 280 70 c 0
 280 40 299 32 356 25 c 1
 350 0 l 1
 16 0 l 1
 22 25 l 1
 32 26 42 29 45 29 c 0
 94 35 111 56 125 117 c 1
 218 560 l 1
 223 577 224 592 224 603 c 0
 224 636 207 646 154 650 c 1
 160 677 l 1xd8
 482 677 l 2
 630 677 710 624 710 532 c 0
 710 434 636 357 543 325 c 1
 497 308 461 305 327 303 c 1xe8
391 606 m 2
 334 338 l 1
 404 338 439 346 467 365 c 1
 507 395 541 479 541 557 c 0
 541 617 511 642 448 642 c 0xe8
 415 642 395 628 391 606 c 2
EndSplineSet
EndChar

StartChar: Q
Encoding: 81 81 50
Width: 777
Flags: W
HStem: -176 47<475 664.069> 658 33<466.581 586.2>
VStem: 97 168<137.913 344.323> 653 170<312.81 532.022>
LayerCount: 2
Back
SplineSet
93.6953 332.584 m 0
 85.8281 293.246 83.6826 256.055 87.2588 221.008 c 0
 90.835 185.961 99.418 153.774 113.723 125.166 c 0
 128.027 96.5566 145.908 71.5234 169.511 50.7812 c 0
 192.398 29.3242 218.861 12.874 248.901 1.43066 c 1
 269.644 -40.7686 l 1
 293.246 -77.9609 325.432 -106.57 367.631 -126.597 c 0
 409.829 -146.624 460.61 -156.637 521.406 -156.637 c 2
 609.38 -156.637 l 1
 619.394 -113.007 l 1
 602.228 -113.007 583.632 -111.576 565.035 -109.431 c 0
 545.725 -106.57 527.127 -101.563 509.246 -93.6953 c 0
 490.65 -85.8281 474.199 -75.0996 458.465 -60.7949 c 0
 442.729 -46.4902 429.855 -28.6094 419.128 -5.72168 c 1
 457.035 2.86133 494.227 17.8809 529.273 37.9072 c 0
 565.035 58.6494 597.936 83.6826 627.261 113.723 c 0
 656.585 143.047 681.618 176.662 702.36 213.854 c 0
 723.102 251.048 738.121 290.385 746.705 332.584 c 0
 757.434 380.505 758.863 425.564 750.996 467.049 c 0
 742.413 509.246 726.679 546.439 703.791 577.909 c 0
 680.903 609.38 651.578 634.412 615.816 652.293 c 0
 580.055 670.891 540.002 679.473 494.942 679.473 c 0
 449.883 679.473 406.254 670.891 362.624 652.293 c 0
 318.994 634.412 278.941 609.38 242.464 577.909 c 0
 205.987 546.439 174.518 509.246 148.768 467.049 c 0
 123.021 425.564 104.424 380.505 93.6953 332.584 c 0
238.889 331.153 m 0
 246.756 369.061 258.915 404.822 275.365 438.438 c 0
 291.816 472.056 311.126 501.379 333.299 526.412 c 0
 355.472 551.446 379.074 571.473 404.107 585.776 c 0
 429.855 600.797 454.89 607.949 480.638 607.949 c 0
 505.671 607.949 527.844 600.797 547.154 585.776 c 0
 566.466 571.473 580.77 551.446 591.499 526.412 c 0
 602.228 501.379 609.38 472.056 611.524 438.438 c 0
 613.671 404.822 611.524 369.061 603.657 331.153 c 0
 595.79 293.246 583.632 256.77 567.181 223.153 c 0
 550.015 189.538 530.704 160.213 509.246 135.18 c 0
 487.075 110.861 463.472 90.835 438.438 75.8145 c 0
 414.121 61.5098 388.373 54.3574 363.339 54.3574 c 0
 337.591 54.3574 315.418 61.5098 296.106 75.8145 c 0
 276.081 90.835 261.062 110.861 250.331 135.18 c 0
 239.604 160.213 233.167 189.538 231.021 223.153 c 0
 228.16 256.77 231.021 293.246 238.889 331.153 c 0
EndSplineSet
Fore
SplineSet
489 -6 m 1
 492 -18 511 -129 636 -129 c 0
 655 -129 672 -126 705 -117 c 1
 706 -141 l 1
 625 -168 580 -176 519 -176 c 0
 431 -176 354 -144 311 -88 c 0
 293 -64 284 -45 272 -1 c 1
 130 54 97 158 97 252 c 0
 97 473 288 691 536 691 c 0
 712 691 823 582 823 420 c 0
 823 345 795 196 668 86 c 0
 615 40 576 21 489 -6 c 1
393 15 m 0
 601 15 653 374 653 479 c 0
 653 593 611 658 529 658 c 0
 318 658 265 276 265 183 c 0
 265 72 308 15 393 15 c 0
EndSplineSet
EndChar

StartChar: R
Encoding: 82 82 51
Width: 720
Flags: W
HStem: 0 25<32 92.6017 314.318 365 687.564 715> 313 33<349 369> 642 35<413.543 535.781> 650 27<170 224.948>
VStem: 571 169<444.426 602.157>
DStem2: 114.131 0 275.131 0 0.207912 0.978148<109.264 353.329 387.271 615.277>
LayerCount: 2
Back
SplineSet
545.008 484.93 m 0
 553.592 524.267 547.869 553.592 527.127 573.618 c 0
 507.101 593.644 473.485 603.657 427.71 603.657 c 0
 405.537 603.657 391.948 602.228 388.373 600.797 c 0
 386.227 598.65 384.081 596.506 382.649 593.644 c 0
 380.505 591.499 378.359 587.208 376.213 580.055 c 1
 329.724 356.187 l 1
 356.901 356.187 379.789 357.618 398.386 361.193 c 0
 416.981 364.769 434.147 369.061 449.883 374.782 c 0
 501.379 394.809 532.851 431.287 545.008 484.93 c 0
688.771 0 m 1
 505.671 0 l 1
 339.737 296.106 l 1
 316.133 294.677 l 1
 278.226 117.299 l 2
 272.504 88.6895 273.936 69.3779 283.232 59.3643 c 0
 292.531 49.3516 313.987 43.6289 346.888 43.6289 c 1
 338.306 0 l 1
 37.9072 0 l 1
 47.2051 43.6289 l 1
 66.5166 43.6289 82.9668 45.7754 95.8418 49.3516 c 0
 109.431 52.2119 118.014 56.5039 123.021 60.0801 c 0
 126.597 62.9404 130.888 70.0928 133.749 82.252 c 0
 137.325 93.6953 141.616 109.431 146.624 128.742 c 1
 234.597 546.439 l 1
 242.464 577.909 243.181 597.221 237.457 605.088 c 0
 228.16 614.387 205.987 619.394 170.226 619.394 c 1
 178.809 663.737 l 1
 464.188 663.737 l 2
 637.989 663.737 711.658 603.657 685.194 483.498 c 0
 667.313 397.67 599.367 340.452 483.498 311.843 c 1
 619.394 85.1133 l 2
 636.559 57.9336 662.307 43.6289 697.354 43.6289 c 1
 688.771 0 l 1
EndSplineSet
Fore
SplineSet
721 25 m 1xe8
 715 0 l 1
 510 0 l 1
 369 313 l 1
 341 313 l 1
 300 117 l 2
 296 98 294 83 294 73 c 0
 294 40 313 32 371 25 c 1
 365 0 l 1
 26 0 l 1
 32 25 l 1
 111 34 123 44 139 117 c 2
 233 560 l 2
 237 577 239 592 239 603 c 0
 239 639 218 647 164 650 c 1
 170 677 l 1xd8
 492 677 l 2
 655 677 740 625 740 535 c 0
 740 414 650 362 543 330 c 1
 683 44 l 2
 690 31 703 25 721 25 c 1xe8
466 642 m 0xe8
 423 642 409 627 403 601 c 2
 349 346 l 1
 425 346 461 353 491 371 c 0
 537 397 571 473 571 552 c 0
 571 615 539 642 466 642 c 0xe8
EndSplineSet
EndChar

StartChar: S
Encoding: 83 83 52
Width: 555
Flags: W
HStem: -19 34<198.961 344.912> 661 30<336.166 465.664>
VStem: 31 29<-19 4.62325> 83 30<195.615 229> 144 124<413 542.136> 423 135<141.612 263> 557 27<475 507.87> 601 29<668.345 691>
DStem2: 352 447 275 280 0.871934 -0.489624<-102.659 191.764>
LayerCount: 2
Back
SplineSet
529.988 173.087 m 0
 518.545 118.014 485.645 72.2383 432.002 35.0469 c 1
 383.366 5.00684 329.724 -10.0137 272.504 -10.0137 c 0
 261.775 -10.0137 249.616 -9.29785 236.027 -7.15234 c 0
 222.438 -5.72168 206.702 -2.14551 190.253 2.86133 c 0
 162.358 13.5898 142.332 19.3115 131.604 19.3115 c 0
 120.875 19.3115 114.438 9.29785 111.576 -10.0137 c 1
 62.9404 -10.0137 l 1
 80.8213 215.286 l 1
 124.451 215.286 l 1
 135.895 158.066 153.06 115.152 174.518 87.2588 c 0
 195.975 59.3643 226.015 45.0596 265.352 45.0596 c 0
 292.531 45.0596 317.564 54.3574 341.167 72.2383 c 0
 364.769 90.835 379.074 113.007 384.081 140.901 c 0
 391.233 175.947 382.649 207.419 357.618 236.027 c 0
 352.611 241.749 343.312 250.331 329.007 261.062 c 0
 314.703 271.789 296.106 283.948 273.936 298.969 c 0
 253.193 313.272 235.312 326.863 220.293 339.737 c 0
 205.272 352.611 193.113 364.054 184.531 374.782 c 0
 159.498 411.26 151.63 452.743 160.928 499.233 c 0
 166.65 525.697 177.379 550.015 191.683 571.473 c 0
 206.702 592.929 223.868 611.524 244.61 627.261 c 0
 265.352 642.281 287.524 654.439 312.558 663.022 c 0
 337.591 670.891 363.339 675.182 389.803 675.182 c 0
 399.101 675.182 410.544 673.751 423.418 671.604 c 0
 436.294 669.459 451.312 665.169 469.909 659.445 c 2
 517.114 642.996 l 1
 524.267 645.142 532.134 655.87 542.147 675.182 c 1
 587.208 675.182 l 1
 560.743 445.591 l 1
 512.823 445.591 l 1
 511.393 470.624 508.531 492.797 504.24 512.823 c 0
 499.233 532.134 490.65 550.015 479.206 565.75 c 0
 454.89 595.79 422.703 610.81 384.081 610.81 c 0
 361.193 610.81 341.882 603.657 326.146 589.354 c 0
 309.697 575.763 298.969 556.453 294.677 532.851 c 0
 287.524 499.233 305.405 465.617 346.888 432.002 c 2
 476.346 332.584 l 2
 527.127 293.246 545.008 240.318 529.988 173.087 c 0
EndSplineSet
Fore
SplineSet
410 691 m 0xfd
 497 691 531 658 561 658 c 0
 579 658 589 666 601 691 c 1
 630 691 l 1
 584 475 l 1
 557 475 l 1xfb
 551 541 541 568 516 603 c 1
 486 642 448 661 404 661 c 0
 295 661 268 573 268 538 c 0
 268 504 290 479 352 447 c 1
 482 374 l 2
 530 347 558 293 558 233 c 0
 558 111 447 -19 261 -19 c 0
 167 -19 126 15 97 15 c 0
 81 15 72 6 60 -19 c 1
 31 -19 l 1
 83 229 l 1
 113 229 l 1
 114 158 122 125 141 88 c 1
 168 40 212 15 271 15 c 0
 371 15 423 85 423 154 c 0
 423 190 400 214 335 248 c 2
 275 280 l 2
 186 328 144 379 144 447 c 0
 144 543 217 691 410 691 c 0xfd
EndSplineSet
EndChar

StartChar: T
Encoding: 84 84 53
Width: 666
Flags: W
HStem: 0 25<163 232.961 449.871 513> 645 32<294.738 391 552 638.042>
VStem: 132 29<475 506.422> 707 30<475 503.532>
DStem2: 253.131 0 414.131 0 0.207912 0.978148<106.213 659.57>
LayerCount: 2
Back
SplineSet
711.658 474.916 m 1
 658.016 474.916 l 1
 659.445 529.988 653.01 563.605 638.704 575.763 c 0
 628.69 582.201 617.963 587.922 605.088 592.214 c 0
 592.214 597.221 574.333 599.367 550.731 599.367 c 2
 512.823 599.367 l 1
 409.829 117.299 l 1
 404.107 87.9736 405.537 68.6621 414.836 58.6494 c 0
 423.418 48.6357 445.591 43.6289 480.638 43.6289 c 1
 471.339 0 l 1
 165.219 0 l 1
 174.518 43.6289 l 1
 196.688 43.6289 213.854 45.7754 224.583 49.3516 c 0
 236.027 52.2119 245.324 56.5039 253.193 61.5098 c 2
 251.763 61.5098 l 2
 261.062 68.6621 269.644 90.835 278.226 128.742 c 1
 377.643 599.367 l 1
 341.167 599.367 l 2
 316.85 599.367 296.822 597.221 281.803 593.644 c 0
 266.782 590.783 253.908 585.062 243.181 577.194 c 0
 223.868 564.32 202.412 529.988 178.809 474.916 c 1
 125.881 474.916 l 1
 173.087 663.737 l 1
 743.843 663.737 l 1
 711.658 474.916 l 1
EndSplineSet
Fore
SplineSet
278 117 m 2
 391 645 l 1
 265 640 204 595 161 475 c 1
 132 475 l 1
 177 677 l 1
 778 677 l 1
 737 475 l 1
 707 475 l 1
 709 485 709 494 709 504 c 0
 709 602 664 640 552 645 c 1
 439 117 l 2
 435 98 432 82 432 70 c 0
 432 37 454 29 519 25 c 1
 513 0 l 1
 157 0 l 1
 163 25 l 1
 249 32 262 42 278 117 c 2
EndSplineSet
EndChar

StartChar: U
Encoding: 85 85 54
Width: 720
Flags: W
HStem: -19 48<330.053 486.725> 650 27<160 210.137 416.659 492 624 679.88 786.48 839>
VStem: 136 158<65.5891 278.188>
DStem2: 93.9236 -19 252.924 -19 0.207912 0.978148<200.183 637.878> 574.247 -19 618.247 -19 0.207912 0.978148<140.382 626.593>
LayerCount: 2
Back
SplineSet
866.864 620.823 m 1
 844.691 619.394 826.096 615.816 811.791 611.524 c 0
 796.771 607.234 786.757 600.797 782.467 592.929 c 0
 772.453 579.34 763.155 551.446 754.572 508.531 c 1
 700.214 257.484 l 1
 692.347 223.868 683.05 192.398 672.319 164.504 c 0
 661.592 136.609 648.718 113.007 634.412 93.6953 c 0
 605.803 58.6494 569.327 32.1855 524.981 14.3047 c 0
 480.638 -2.86133 429.855 -11.4434 371.922 -11.4434 c 0
 286.81 -11.4434 227.444 9.29785 192.398 52.2119 c 0
 158.066 94.4111 149.484 158.781 166.65 244.61 c 1
 231.735 546.439 l 1
 238.174 575.763 236.742 595.075 226.015 605.088 c 0
 216.001 614.387 193.828 619.394 159.498 619.394 c 1
 168.795 663.737 l 1
 477.776 663.737 l 1
 468.479 619.394 l 1
 451.312 619.394 436.294 618.678 424.85 616.531 c 0
 413.406 614.387 403.393 610.81 394.809 605.803 c 0
 386.227 600.082 379.789 592.929 374.782 583.632 c 0
 369.775 574.333 366.2 562.174 363.339 546.439 c 1
 297.537 237.457 l 1
 273.219 115.152 311.843 54.3574 414.836 54.3574 c 0
 480.638 54.3574 534.995 77.9609 575.763 124.451 c 0
 592.929 145.192 608.664 185.961 620.823 247.471 c 1
 676.611 508.531 l 2
 686.625 552.876 688.771 580.77 682.333 591.499 c 0
 673.751 610.095 649.433 619.394 609.38 619.394 c 1
 617.963 663.737 l 1
 876.163 663.737 l 1
 866.864 620.823 l 1
EndSplineSet
Fore
SplineSet
743 565 m 2
 675 248 l 2
 655 154 614 78 561 40 c 0
 508 3 435 -19 360 -19 c 0
 287 -19 229 -1 187 34 c 0
 152 63 136 95 136 144 c 0
 136 167 139 193 146 226 c 2
 217 560 l 2
 221 579 224 595 224 606 c 0
 224 637 205 646 154 650 c 1
 160 677 l 1
 498 677 l 1
 492 650 l 1
 419 648 394 643 375 560 c 1
 305 226 l 1
 297 193 294 166 294 142 c 0
 294 64 331 29 410 29 c 0
 529 29 599 100 631 248 c 2
 696 552 l 2
 700 570 702 583 702 595 c 0
 702 634 678 646 618 650 c 1
 624 677 l 1
 845 677 l 1
 839 650 l 1
 773 642 756 625 743 565 c 2
EndSplineSet
EndChar

StartChar: V
Encoding: 86 86 55
Width: 720
Flags: W
HStem: -18 21G<347.7 390.048> 650 27<160 199.274 410.454 489 631 697.33 789.132 839>
DStem2: 403 541 223 582 0.210197 -0.977659<-54.9011 341.042> 472 207 378 -18 0.516 0.856589<0 473.198>
LayerCount: 2
Back
SplineSet
843.977 620.823 m 1
 826.096 620.823 813.222 619.394 805.354 616.531 c 0
 791.764 611.524 782.467 605.803 776.029 599.367 c 0
 770.308 592.214 765.301 586.493 761.726 581.486 c 1
 404.107 -8.58301 l 1
 356.187 -8.58301 l 1
 228.16 527.127 l 1
 219.576 567.181 210.994 592.929 202.412 605.088 c 0
 194.543 612.956 185.961 617.248 176.662 618.678 c 0
 167.365 620.108 156.637 620.823 145.192 620.823 c 1
 153.774 663.737 l 1
 445.591 663.737 l 1
 436.294 620.823 l 1
 419.128 620.823 404.822 620.823 394.094 619.394 c 0
 383.366 618.678 374.782 616.531 367.631 612.241 c 0
 365.485 611.524 364.054 609.38 363.339 606.518 c 0
 362.624 603.657 361.193 600.797 360.479 597.936 c 0
 359.048 592.929 365.485 560.743 379.074 500.664 c 2
 447.021 205.272 l 1
 644.426 528.559 l 1
 649.433 538.572 654.439 548.585 660.162 557.882 c 0
 665.169 567.896 670.176 577.909 673.751 588.637 c 0
 679.473 610.095 658.73 620.823 610.81 620.823 c 1
 619.394 663.737 l 1
 852.559 663.737 l 1
 843.977 620.823 l 1
EndSplineSet
Fore
SplineSet
845 677 m 1
 839 650 l 1
 787 645 770 631 731 568 c 2
 378 -18 l 1
 352 -18 l 1
 223 582 l 1
 209 636 204 645 154 650 c 1
 160 677 l 1
 495 677 l 1
 489 650 l 1
 475 650 461 649 457 649 c 0
 413 647 395 635 395 596 c 0
 395 584 397 570 403 541 c 2
 472 207 l 1
 668 536 l 2
 699 587 705 600 705 620 c 0
 705 642 686 646 625 650 c 1
 631 677 l 1
 845 677 l 1
EndSplineSet
EndChar

StartChar: W
Encoding: 87 87 56
Width: 998
Flags: W
HStem: -15 21G<294.176 337.059 680.017 719.897> 650 27<163 196.143 395.139 451 530 577.814 770.822 836 942 992.868 1079.63 1119>
DStem2: 422 212 325 -15 0.516347 0.85638<0 311.344> 795 223 709 -15 0.478443 0.878118<0 445.351>
LayerCount: 2
Back
SplineSet
1107.18 622.254 m 1
 1082.15 617.963 1063.55 611.524 1052.11 605.088 c 0
 1041.38 597.936 1029.94 586.493 1019.21 570.042 c 1
 690.2 -8.58301 l 1
 642.996 -8.58301 l 1
 637.989 27.1787 630.122 77.9609 618.678 142.332 c 0
 607.949 206.702 593.644 283.232 577.194 371.922 c 1
 356.187 -8.58301 l 1
 314.703 -8.58301 l 1
 236.027 515.685 l 1
 230.306 556.453 224.583 580.77 219.576 588.637 c 0
 210.994 607.234 189.538 617.963 155.206 620.823 c 1
 163.788 663.737 l 1
 437.724 663.737 l 1
 429.141 619.394 l 1
 418.413 619.394 410.544 619.394 404.822 618.678 c 0
 399.815 618.678 394.809 617.963 389.803 616.531 c 0
 385.512 615.816 381.935 614.387 377.643 613.671 c 0
 374.067 612.956 369.775 611.524 364.769 609.38 c 1
 362.624 601.513 361.908 594.36 361.193 587.208 c 0
 360.479 580.77 361.193 571.473 363.339 560.743 c 2
 421.988 231.735 l 1
 560.743 467.049 l 1
 547.869 542.147 l 1
 540.001 575.048 533.565 595.79 528.559 603.657 c 0
 519.26 614.387 497.087 619.394 462.757 619.394 c 1
 471.339 663.737 l 1
 767.447 663.737 l 1
 758.863 619.394 l 1
 710.228 619.394 683.05 612.241 678.043 597.936 c 1
 678.043 578.625 l 1
 739.553 230.306 l 1
 912.64 522.837 l 2
 920.507 536.426 926.229 548.585 929.806 559.313 c 0
 934.096 570.042 936.956 580.055 939.103 588.637 c 0
 941.963 601.513 939.818 610.095 933.381 613.671 c 1
 880.453 620.823 l 1
 889.037 663.737 l 1
 1116.48 663.737 l 1
 1107.18 622.254 l 1
EndSplineSet
Fore
SplineSet
1125 677 m 1
 1119 650 l 1
 1085 647 1058 627 1037 587 c 2
 709 -15 l 1
 683 -15 l 1
 612 461 l 1
 325 -15 l 1
 297 -15 l 1
 212 587 l 2
 205 636 199 645 157 650 c 1
 163 677 l 1
 457 677 l 1
 451 650 l 1
 424 648 376 647 376 598 c 0
 376 597 421 215 422 212 c 1
 603 520 l 1
 589 617 l 1
 584 640 565 649 524 650 c 1
 530 677 l 1
 842 677 l 1
 836 650 l 1
 786 650 757 641 757 605 c 0
 757 596 759 582 760 558 c 1
 795 223 l 1
 981 565 l 2
 991 582 999 599 999 620 c 0
 999 642 981 647 936 650 c 1
 942 677 l 1
 1125 677 l 1
EndSplineSet
EndChar

StartChar: X
Encoding: 88 88 57
Width: 720
Flags: W
HStem: 0 25<22 73.6025 212.626 267 365 437.176 669.323 699> 650 27<161 195.182 426.331 501 582 638.29 762.114 826>
DStem2: 422 582 223 593 0.395801 -0.918336<-24.5931 164 266.604 336.891 391.236 488.322> 359 302 325 220 0.705078 0.70913<-279.95 -11.4069 181.023 386.124>
LayerCount: 2
Back
SplineSet
748.85 0 m 1
 426.28 0 l 1
 434.862 42.1992 l 1
 464.188 44.3447 484.93 47.9209 496.372 52.9277 c 0
 508.531 57.9336 514.968 62.2256 515.685 65.8018 c 0
 517.83 73.6689 516.399 82.9668 512.107 94.4111 c 0
 507.816 105.854 499.949 122.305 489.22 143.762 c 1
 434.862 265.352 l 1
 306.12 139.471 l 2
 268.212 100.848 248.187 76.5303 246.041 65.8018 c 0
 243.181 51.4971 265.352 43.6289 311.843 43.6289 c 1
 303.259 0 l 1
 43.6289 0 l 1
 52.9277 42.1992 l 1
 69.3779 44.3447 83.6826 46.4902 95.126 48.6357 c 0
 107.285 50.0664 115.868 54.3574 123.021 60.0801 c 2
 166.65 99.418 l 1
 165.219 99.418 l 1
 401.247 328.292 l 1
 332.584 474.916 l 1
 301.113 543.578 276.796 585.776 258.915 600.797 c 0
 254.623 605.803 245.324 609.38 233.167 612.241 c 0
 220.293 615.102 204.557 617.963 185.961 620.823 c 1
 194.543 663.737 l 1
 522.837 663.737 l 1
 514.253 619.394 l 1
 496.372 619.394 481.353 619.394 468.479 618.678 c 0
 456.319 618.678 448.451 617.963 447.021 616.531 c 0
 444.161 614.387 440.584 612.956 436.294 610.81 c 0
 432.717 608.664 430.57 606.518 430.57 603.657 c 0
 428.425 594.36 432.717 578.625 443.444 555.738 c 0
 453.458 532.851 468.479 502.811 487.79 465.617 c 1
 507.101 424.85 l 1
 666.599 580.055 l 2
 673.036 587.208 677.326 594.36 678.043 602.228 c 0
 680.903 613.671 660.162 619.394 615.102 619.394 c 1
 623.684 663.737 l 1
 887.605 663.737 l 1
 879.023 619.394 l 1
 860.427 619.394 842.546 616.531 825.381 610.095 c 0
 808.215 603.657 798.202 599.367 795.341 597.936 c 0
 790.334 595.79 781.036 588.637 766.732 575.763 c 0
 752.427 562.889 738.121 549.3 722.387 534.995 c 2
 545.008 363.339 l 1
 662.307 110.146 l 1
 670.89 88.6895 683.765 72.2383 700.214 61.5098 c 0
 716.665 50.7812 735.976 44.3447 757.434 42.1992 c 1
 748.85 0 l 1
EndSplineSet
Fore
SplineSet
486 431 m 1
 569 517 642 586 642 625 c 0
 642 649 610 650 576 650 c 1
 582 677 l 1
 832 677 l 1
 826 650 l 1
 751 645 721 625 606 505 c 1
 504 394 l 1
 625 111 l 1
 659 40 671 26 705 25 c 1
 699 0 l 1
 359 0 l 1
 365 25 l 1
 378 26 388 26 393 26 c 0
 443 30 453 48 453 63 c 0
 453 76 448 94 441 108 c 1
 374 271 l 1
 325 220 l 2
 212 101 198 78 198 57 c 0
 198 38 218 31 272 25 c 1
 267 0 l 1
 16 0 l 1
 22 25 l 1
 72 31 98 44 138 81 c 1
 359 302 l 1
 223 593 l 2
 202 639 190 647 155 650 c 1
 161 677 l 1
 507 677 l 1
 501 650 l 1
 486 650 475 649 470 649 c 0
 429 647 415 635 415 606 c 0
 415 601 416 593 422 582 c 1
 486 431 l 1
EndSplineSet
EndChar

StartChar: Y
Encoding: 89 89 58
Width: 720
Flags: W
HStem: 0 25<190 254.462 476.217 532> 650 27<158 192.417 409.81 488 623 684.757 790.42 836>
DStem2: 412 561 223 596 0.317085 -0.948397<-48.6952 241.593> 483 330 504 300 0.637264 0.770645<0 348.58>
LayerCount: 2
Back
SplineSet
846.838 622.254 m 1
 818.229 617.963 796.771 611.524 782.467 605.088 c 0
 771.737 599.367 758.863 588.637 743.128 574.333 c 0
 728.108 559.313 710.228 540.002 688.771 515.685 c 2
 504.24 303.259 l 1
 464.188 117.299 l 2
 461.325 103.709 459.181 91.5498 458.465 80.8213 c 0
 457.75 70.0928 459.181 62.2256 462.757 57.2188 c 0
 467.764 51.4971 477.062 47.9209 490.65 46.4902 c 0
 504.24 44.3447 523.552 43.6289 547.869 43.6289 c 1
 539.287 0 l 1
 205.272 0 l 1
 213.854 43.6289 l 1
 261.062 43.6289 291.816 50.0664 307.551 61.5098 c 0
 314.703 66.5166 322.571 88.6895 331.153 128.742 c 2
 366.2 294.677 l 1
 336.875 354.757 313.272 404.107 296.106 440.584 c 0
 278.226 477.776 263.922 507.101 253.193 528.559 c 0
 242.464 550.015 234.597 565.75 228.16 575.763 c 0
 222.438 585.776 217.432 592.929 212.426 599.367 c 0
 204.557 607.949 195.975 613.671 186.676 616.531 c 0
 177.379 619.394 165.934 620.823 152.345 620.823 c 1
 160.928 663.737 l 1
 464.188 663.737 l 1
 455.604 620.823 l 1
 410.544 620.823 386.941 615.102 385.512 603.657 c 0
 383.366 598.65 383.366 593.644 385.512 588.637 c 0
 386.941 583.632 389.803 577.909 392.663 570.042 c 2
 479.206 371.922 l 1
 651.578 578.625 l 2
 654.438 582.201 657.3 586.493 660.162 590.068 c 0
 662.307 594.36 663.737 597.936 665.169 602.228 c 0
 668.029 614.387 647.288 620.823 603.657 620.823 c 1
 612.241 663.737 l 1
 855.42 663.737 l 1
 846.838 622.254 l 1
EndSplineSet
Fore
SplineSet
400 609 m 0
 400 595 410 569 412 561 c 2
 483 330 l 1
 634 514 l 2
 673 561 693 600 693 621 c 0
 693 640 674 646 617 650 c 1
 623 677 l 1
 842 677 l 1
 836 650 l 1
 803 646 781 636 762 612 c 2
 504 300 l 1
 464 117 l 2
 460 98 457 83 457 72 c 0
 457 38 478 31 538 25 c 1
 532 0 l 1
 185 0 l 1
 190 25 l 1
 274 34 287 44 303 117 c 2
 334 264 l 1
 223 596 l 1
 208 630 186 649 152 650 c 1
 158 677 l 1
 494 677 l 1
 488 650 l 1
 463 650 l 2
 419 650 400 639 400 609 c 0
EndSplineSet
EndChar

StartChar: Z
Encoding: 90 90 59
Width: 666
Flags: W
HStem: 0 35<233 468.708> 470 21G<158 224> 642 35<339.463 546>
DStem2: 31 16 233 35 0.635318 0.772251<143.007 810.618>
LayerCount: 2
Back
SplineSet
680.903 194.543 m 1
 612.241 0 l 1
 39.3379 0 l 1
 45.0596 29.3242 l 1
 578.625 603.657 l 1
 388.373 603.657 l 2
 331.868 603.657 289.67 591.499 262.49 567.181 c 0
 249.616 556.453 233.167 525.697 212.426 474.916 c 1
 159.498 474.916 l 1
 221.008 663.737 l 1
 758.863 663.737 l 1
 753.142 634.412 l 1
 230.306 61.5098 l 1
 449.883 61.5098 l 2
 502.094 61.5098 542.147 73.6689 570.042 97.9873 c 0
 576.479 105.14 585.062 116.583 595.79 132.318 c 0
 605.803 148.768 617.963 169.511 631.552 194.543 c 1
 680.903 194.543 l 1
EndSplineSet
Fore
SplineSet
686 242 m 1
 608 0 l 1
 28 0 l 1
 31 16 l 1
 546 642 l 1
 513 640 481 639 453 639 c 0
 312 639 262 606 186 470 c 1
 158 470 l 1
 224 677 l 1
 747 677 l 1
 744 661 l 1
 233 35 l 1
 306 35 l 2
 403 35 488 50 527 75 c 1
 582 107 612 146 659 242 c 1
 686 242 l 1
EndSplineSet
EndChar

StartChar: bracketleft
Encoding: 91 91 60
Width: 332
Flags: W
HStem: -149 33<156.429 268> 645 33<314.836 438>
DStem2: 35 -149 139.72 -149 0.207912 0.978148<83.9606 831.799>
LayerCount: 2
Back
SplineSet
222.438 -123.021 m 1
 7.15234 -123.021 l 1
 184.531 711.658 l 1
 399.815 711.658 l 1
 389.803 662.307 l 1
 294.677 662.307 l 2
 277.511 662.307 266.782 651.578 261.062 630.122 c 1
 120.159 -33.6162 l 2
 114.438 -60.0801 121.59 -72.9541 142.332 -72.9541 c 2
 233.167 -72.9541 l 1
 222.438 -123.021 l 1
EndSplineSet
Fore
SplineSet
275 -116 m 1
 268 -149 l 1
 35 -149 l 1
 211 678 l 1
 444 678 l 1
 438 645 l 1
 375 645 l 2
 319 645 306 633 294 576 c 2
 158 -63 l 2
 155 -73 155 -82 155 -89 c 0
 155 -110 166 -116 196 -116 c 2
 275 -116 l 1
EndSplineSet
EndChar

StartChar: backslash
Encoding: 92 92 61
Width: 276
Flags: W
HStem: -19 21G<204.606 299> 671 20G<122 216.394>
VStem: 122 177
DStem2: 214 691 122 691 0.118869 -0.99291<0 704.134>
LayerCount: 2
Back
SplineSet
318.994 -171.657 m 1
 241.749 -171.657 l 1
 152.345 698.784 l 1
 228.16 698.784 l 1
 318.994 -171.657 l 1
EndSplineSet
Fore
SplineSet
207 -19 m 1
 122 691 l 1
 214 691 l 1
 299 -19 l 1
 207 -19 l 1
EndSplineSet
EndChar

StartChar: bracketright
Encoding: 93 93 62
Width: 332
Flags: W
HStem: -149 33<7 135.314> 645 33<176 286.173>
DStem2: 130.72 -149 234 -149 0.207912 0.978148<32.3019 776.049>
LayerCount: 2
Back
SplineSet
190.253 -123.021 m 1
 -25.0332 -123.021 l 1
 -14.3047 -72.9541 l 1
 79.3906 -72.9541 l 2
 98.7021 -72.9541 110.146 -62.9404 114.438 -42.1992 c 1
 254.623 622.254 l 2
 261.062 648.718 253.193 662.307 233.167 662.307 c 2
 142.332 662.307 l 1
 152.345 711.658 l 1
 367.631 711.658 l 1
 190.253 -123.021 l 1
EndSplineSet
Fore
SplineSet
0 -149 m 1
 7 -116 l 1
 86 -116 l 2
 129 -116 139 -107 149 -63 c 2
 286 576 l 2
 289 590 290 601 290 611 c 0
 290 637 275 645 233 645 c 2
 170 645 l 1
 176 678 l 1
 410 678 l 1
 234 -149 l 1
 0 -149 l 1
EndSplineSet
EndChar

StartChar: asciicircum
Encoding: 94 94 63
Width: 580
Flags: W
HStem: 657 20G<380.066 480.41>
DStem2: 139 311 229 311 0.571656 0.820494<51.449 381.523> 475 677 416 583 0.261108 -0.96531<75.3337 356.175>
LayerCount: 2
Back
SplineSet
525.697 283.948 m 1
 440.584 283.948 l 1
 363.339 563.605 l 1
 165.219 283.948 l 1
 80.8213 283.948 l 1
 344.027 658.016 l 1
 420.558 658.016 l 1
 525.697 283.948 l 1
EndSplineSet
Fore
SplineSet
229 311 m 1
 139 311 l 1
 394 677 l 1
 475 677 l 1
 574 311 l 1
 486 311 l 1
 416 583 l 1
 229 311 l 1
EndSplineSet
EndChar

StartChar: underscore
Encoding: 95 95 64
Width: 499
Flags: W
HStem: -125 50<-16 473>
LayerCount: 2
Back
SplineSet
496.372 -82.252 m 1
 -16.4502 -82.252 l 1
 -4.29102 -30.7549 l 1
 508.531 -30.7549 l 1
 496.372 -82.252 l 1
EndSplineSet
Fore
SplineSet
473 -125 m 1
 -26 -125 l 1
 -16 -75 l 1
 483 -75 l 1
 473 -125 l 1
EndSplineSet
EndChar

StartChar: quotesglleft
Encoding: 65537 -1 65
Width: 292
Flags: W
HStem: 413 268
VStem: 189 155<548.29 630.375>
LayerCount: 2
Back
SplineSet
254.623 298.969 m 1
 199.55 298.969 l 1
 115.868 359.048 l 1
 102.994 364.769 97.9873 376.213 99.418 392.663 c 0
 103.709 411.975 115.868 421.988 138.04 421.988 c 0
 148.768 421.988 159.498 416.267 170.226 405.537 c 1
 254.623 298.969 l 1
EndSplineSet
Fore
SplineSet
305 413 m 1
 189 570 189 581 189 602 c 0
 189 640 226 681 270 681 c 0
 291 681 311 668 319 642 c 1
 327 623 338 504 344 434 c 1
 305 413 l 1
EndSplineSet
EndChar

StartChar: a
Encoding: 97 97 66
Width: 499
Flags: W
HStem: -15 72<105.5 246> -15 65<349 468> 441 32<249.104 358.381>
VStem: 41 154<61.3681 136.057> 116 117<309.718 413.5> 374 131<327.45 422.565>
DStem2: 288.735 -15 427.605 -15 0.207912 0.978148<111.857 265.809 289.313 408.528>
LayerCount: 2
Back
SplineSet
353.326 275.365 m 1
 251.763 242.464 195.26 200.266 184.531 149.484 c 0
 179.524 128.027 182.385 110.146 191.683 95.126 c 0
 194.543 90.1191 198.835 85.8281 203.842 82.9668 c 0
 208.134 79.3906 216.001 77.9609 225.3 77.9609 c 0
 261.775 77.9609 290.385 89.4043 311.843 113.007 c 0
 314.703 115.868 317.564 120.159 319.71 126.597 c 0
 322.571 133.033 324.001 138.04 325.432 142.332 c 2
 353.326 275.365 l 1
490.65 50.0664 m 1
 449.883 11.4434 410.544 -7.15234 373.353 -7.15234 c 0
 328.292 -7.15234 306.836 12.874 308.982 52.9277 c 1
 246.756 12.874 195.975 -7.15234 156.637 -7.15234 c 0
 120.875 -7.15234 92.9805 3.57617 74.3848 25.748 c 0
 56.5039 47.9209 50.7812 75.8145 58.6494 111.576 c 0
 70.0928 165.934 103.709 210.279 159.498 243.181 c 0
 170.226 248.901 192.398 258.915 226.015 273.219 c 0
 260.345 287.524 306.12 305.405 364.769 328.292 c 1
 376.213 385.512 l 2
 386.227 434.147 369.775 458.465 326.863 458.465 c 0
 287.524 458.465 263.922 444.876 256.055 417.696 c 0
 255.338 414.836 254.623 408.399 254.623 399.815 c 0
 254.623 391.233 254.623 384.081 253.193 379.074 c 0
 252.478 374.782 250.331 368.346 246.041 361.193 c 0
 242.464 354.041 236.027 346.173 228.16 338.306 c 0
 221.723 332.584 213.854 328.292 204.557 325.432 c 0
 195.26 322.571 186.676 321.14 180.239 321.14 c 0
 163.788 321.14 150.914 325.432 142.332 335.445 c 0
 133.033 345.458 130.888 359.762 134.464 379.074 c 0
 143.762 419.128 173.087 452.743 222.438 479.206 c 0
 242.464 489.936 261.775 497.087 281.803 501.379 c 0
 301.829 506.386 323.286 508.531 345.458 508.531 c 0
 406.969 508.531 447.736 494.227 467.049 464.902 c 0
 487.075 436.294 489.936 390.519 476.346 328.292 c 2
 432.002 123.021 l 1
 426.28 91.5498 428.425 75.8145 437.724 75.8145 c 0
 442.729 75.8145 450.598 79.3906 461.325 85.1133 c 0
 472.056 90.835 487.075 100.848 505.671 114.438 c 1
 490.65 50.0664 l 1
EndSplineSet
Fore
SplineSet
116 328 m 0xac
 116 415 216 473 334 473 c 0
 442 473 505 431 505 362 c 0
 505 353 504 344 502 335 c 2
 447 75 l 2
 446 72 445 69 445 66 c 0
 445 56 451 50 463 50 c 0
 473 50 480 60 486 64 c 1
 497 42 l 1
 450 1 416 -15 374 -15 c 0x6c
 324 -15 306 4 306 56 c 1
 240 6 190 -15 133 -15 c 0
 78 -15 41 19 41 69 c 0xb4
 41 192 214 241 354 280 c 1
 369 353 l 2
 372 365 374 375 374 385 c 0
 374 423 350 441 303 441 c 0
 272 441 233 427 233 400 c 0
 233 385 250 375 250 349 c 0
 250 315 218 281 168 281 c 0
 133 281 116 299 116 328 c 0xac
344 245 m 1
 209 211 195 131 195 103 c 0
 195 75 209 57 234 57 c 0xb4
 258 57 281 69 313 100 c 1
 344 245 l 1
EndSplineSet
EndChar

StartChar: b
Encoding: 98 98 67
Width: 555
Flags: W
HStem: -15 33<241.593 332.969> 419 54<348.965 480> 652 25<161 191.645>
VStem: 434 146<191.741 401.241>
DStem2: 68.5749 -15 207.194 -15 0.207912 0.978148<119.798 456.353 470.676 646.423>
LayerCount: 2
Back
SplineSet
474.916 230.306 m 0
 480.638 256.055 484.213 280.371 484.93 301.829 c 0
 485.645 323.286 484.213 342.598 479.206 360.479 c 0
 467.049 404.107 440.584 426.28 399.815 426.28 c 0
 377.643 426.28 356.187 419.843 336.875 406.969 c 0
 313.272 391.233 299.684 374.782 296.106 356.187 c 2
 238.889 89.4043 l 1
 237.457 82.252 239.604 76.5303 244.61 71.5234 c 0
 249.616 67.2324 256.055 62.9404 263.922 59.3643 c 0
 271.789 55.7881 280.371 53.6426 290.385 52.2119 c 0
 299.684 50.7812 308.266 50.0664 314.703 50.0664 c 0
 396.955 50.0664 449.883 110.146 474.916 230.306 c 0
606.518 268.212 m 0
 599.367 236.742 587.922 205.987 571.473 176.662 c 0
 555.021 146.624 533.565 118.729 508.531 92.2656 c 0
 447.021 25.748 370.492 -7.15234 279.656 -7.15234 c 0
 261.062 -7.15234 243.181 -6.4375 226.015 -4.29102 c 0
 209.563 -2.14551 193.113 2.14551 178.809 10.0137 c 0
 157.352 20.7422 141.616 30.7549 130.888 38.623 c 0
 120.875 47.2051 116.583 57.9336 118.729 71.5234 c 1
 237.457 625.115 l 2
 242.464 648.003 243.896 660.162 241.749 662.307 c 0
 237.457 667.313 231.735 669.459 222.438 669.459 c 2
 177.379 665.169 l 1
 184.531 705.937 l 1
 202.412 710.943 226.729 718.095 258.915 727.394 c 0
 291.816 736.691 326.146 746.705 363.339 757.434 c 1
 379.074 751.712 l 1
 318.994 465.617 l 1
 339.021 481.353 361.193 494.227 386.941 502.811 c 0
 411.975 512.107 435.577 517.114 457.035 517.114 c 0
 523.552 517.114 568.612 489.936 592.929 436.294 c 0
 603.657 411.975 610.81 386.227 612.956 358.333 c 0
 615.816 330.438 612.956 300.398 606.518 268.212 c 0
EndSplineSet
Fore
SplineSet
580 308 m 0
 580 121 439 -15 291 -15 c 0
 242 -15 209 1 171 42 c 1
 81 -13 l 1
 69 -13 l 1
 198 595 l 2
 199 603 201 612 201 618 c 0
 201 639 189 645 157 652 c 1
 161 677 l 1
 354 677 l 1
 300 417 l 1
 344 456 387 473 434 473 c 0
 526 473 580 407 580 308 c 0
287 360 m 1
 231 97 l 2
 230 88 229 81 229 73 c 0
 229 38 249 18 284 18 c 0
 349 18 391 83 420 221 c 0
 429 262 434 297 434 325 c 0
 434 387 413 419 371 419 c 0
 337 419 313 403 287 360 c 1
EndSplineSet
EndChar

StartChar: c
Encoding: 99 99 68
Width: 443
Flags: W
HStem: -15 68<184 335.045> 442 31<302.871 374.243>
VStem: 64 150<99.0249 267.893> 378 117<335.138 433.636>
LayerCount: 2
Back
SplineSet
499.233 173.087 m 1
 419.128 52.9277 332.584 -7.15234 238.889 -7.15234 c 0
 207.419 -7.15234 180.239 -1.43066 155.921 10.7285 c 0
 132.318 22.8877 113.007 42.9141 99.418 70.0928 c 0
 88.6895 92.9805 81.5371 118.014 77.9609 145.908 c 0
 73.6689 173.802 75.8145 204.557 83.6826 238.889 c 0
 97.9873 311.843 133.033 374.782 188.821 427.71 c 0
 247.471 481.353 313.272 508.531 386.941 508.531 c 0
 429.855 508.531 463.472 499.233 487.79 482.068 c 0
 505.671 471.339 517.114 457.75 523.552 440.584 c 0
 529.988 424.135 531.419 407.684 528.559 391.233 c 0
 524.981 374.782 516.399 360.479 502.094 348.319 c 0
 488.505 336.875 472.771 331.153 454.175 331.153 c 0
 438.438 331.153 426.28 336.875 417.696 347.604 c 0
 408.399 359.048 404.107 373.353 402.677 389.803 c 0
 400.532 413.406 397.67 429.855 393.379 439.154 c 0
 389.088 449.168 376.928 454.175 357.618 454.175 c 0
 320.425 454.175 286.093 434.862 254.623 396.955 c 0
 226.729 362.624 208.134 324.001 199.55 279.656 c 0
 187.392 226.729 190.968 183.814 209.563 149.484 c 0
 228.875 110.146 260.345 90.835 303.259 90.835 c 0
 333.299 90.835 362.624 100.133 389.803 118.729 c 0
 409.114 130.173 435.577 155.921 468.479 194.543 c 1
 499.233 173.087 l 1
EndSplineSet
Fore
SplineSet
495 381 m 0
 495 325 453 300 413 300 c 0
 382 300 368 315 368 346 c 0
 368 364 378 411 378 415 c 0
 378 434 362 442 344 442 c 0
 255 442 214 272 214 192 c 0
 214 105 252 53 319 53 c 0
 360 53 390 67 435 108 c 1
 450 91 l 1
 376 18 313 -15 236 -15 c 0
 132 -15 64 57 64 163 c 0
 64 292 175 473 362 473 c 0
 441 473 495 434 495 381 c 0
EndSplineSet
EndChar

StartChar: d
Encoding: 100 100 69
Width: 555
Flags: W
HStem: -15 57<160.5 287.312> 21 21<505.901 539> 417 56<295.613 387.656> 652 25<404 458.301>
VStem: 64 144<55.4777 261.703>
DStem2: 335.546 -15 472.343 -15 0.207912 0.978148<124.233 407.893 435.852 648.902>
LayerCount: 2
Back
SplineSet
421.988 367.631 m 1
 425.563 396.955 420.558 421.273 405.537 440.584 c 0
 399.101 448.451 390.519 454.175 379.789 457.75 c 0
 369.775 461.325 359.048 462.757 346.888 462.757 c 0
 324.717 462.757 304.69 457.035 286.81 445.591 c 0
 269.644 433.432 254.623 418.413 241.749 400.532 c 0
 228.875 382.649 218.146 362.624 210.279 341.167 c 0
 201.695 319.71 195.975 298.969 191.683 279.656 c 0
 186.676 256.055 183.814 232.45 183.1 207.419 c 0
 182.385 182.385 184.531 160.213 190.253 140.186 c 0
 195.975 120.159 205.987 102.994 220.293 90.1191 c 0
 234.597 77.2451 254.623 70.0928 279.656 70.0928 c 0
 322.571 70.0928 353.326 88.6895 370.492 124.451 c 1
 421.988 367.631 l 1
540.718 48.6357 m 1
 361.908 -8.58301 l 1
 344.027 1.43066 l 1
 351.895 35.0469 l 1
 312.558 7.15234 268.212 -7.15234 219.576 -7.15234 c 0
 176.662 -7.15234 138.756 5.72168 105.14 30.7549 c 0
 82.9668 48.6357 68.6621 75.0996 62.2256 112.292 c 0
 55.7881 148.768 57.9336 191.683 68.6621 241.749 c 0
 84.3975 316.133 117.299 378.359 166.65 429.141 c 0
 224.583 487.79 288.239 517.114 357.618 517.114 c 0
 390.519 517.114 420.558 507.101 448.451 487.79 c 1
 477.776 625.115 l 1
 482.068 645.142 484.213 656.585 482.068 659.445 c 0
 477.776 665.169 471.339 668.029 461.325 668.029 c 2
 416.267 663.737 l 1
 424.85 705.937 l 1
 452.028 713.805 474.916 720.24 493.512 725.247 c 0
 512.107 730.254 527.844 734.546 540.718 738.121 c 0
 552.876 742.413 563.605 745.274 572.902 748.85 c 0
 581.486 751.712 590.068 754.572 599.367 757.434 c 1
 619.394 751.712 l 1
 489.22 134.464 l 1
 484.213 115.152 483.498 102.278 487.075 95.8418 c 0
 490.65 89.4043 499.949 86.543 515.685 86.543 c 2
 549.3 89.4043 l 1
 540.718 48.6357 l 1
EndSplineSet
Fore
SplineSet
64 152 m 0xb8
 64 325 192 473 318 473 c 0
 365 473 390 457 423 412 c 1
 461 595 l 2
 464 605 466 614 466 621 c 0
 466 643 450 649 400 652 c 1
 404 677 l 1
 618 677 l 1
 497 101 l 2
 495 92 494 85 494 78 c 0
 494 54 508 45 543 42 c 1
 539 21 l 1x78
 469 11 394 2 335 -13 c 1
 350 53 l 1
 291 1 256 -15 204 -15 c 0
 117 -15 64 53 64 152 c 0xb8
347 417 m 0
 236 417 208 172 208 122 c 0
 208 69 224 42 259 42 c 0xb8
 306 42 354 95 359 111 c 1
 410 354 l 1
 406 393 381 417 347 417 c 0
EndSplineSet
EndChar

StartChar: e
Encoding: 101 101 70
Width: 443
Flags: W
HStem: -15 74<177.5 324.798> 245 38<224 360.809> 442 31<287.223 360.4>
VStem: 66 148<88.9519 240.977> 374 105<284.109 412.763>
LayerCount: 2
Back
SplineSet
331.153 447.021 m 0
 281.088 447.021 241.749 414.836 212.426 351.895 c 1
 394.094 351.895 l 1
 397.67 414.836 376.928 447.021 331.153 447.021 c 0
515.685 184.531 m 1
 505.671 165.219 493.512 145.192 479.206 125.881 c 0
 464.188 106.57 447.021 87.9736 427.71 70.0928 c 0
 369.061 18.5957 306.12 -7.15234 238.889 -7.15234 c 0
 180.239 -7.15234 137.325 10.0137 110.146 44.3447 c 0
 82.252 79.3906 70.8086 125.881 74.3848 184.531 c 0
 75.8145 191.683 77.2451 199.55 78.6758 208.134 c 0
 80.1064 216.716 82.252 226.729 85.1133 238.889 c 0
 99.418 311.126 130.173 371.922 177.379 421.988 c 0
 231.735 479.206 294.677 508.531 366.2 508.531 c 0
 428.425 508.531 472.771 489.22 497.804 450.598 c 0
 523.552 411.975 528.559 359.048 514.253 291.816 c 1
 193.113 291.816 l 1
 168.795 155.921 205.272 87.9736 303.259 87.9736 c 0
 331.868 87.9736 360.479 97.9873 389.803 117.299 c 0
 419.128 136.609 450.598 165.219 484.93 203.842 c 1
 515.685 184.531 l 1
EndSplineSet
Fore
SplineSet
214 171 m 0
 214 104 238 59 302 59 c 0
 344 59 378 76 428 125 c 1
 450 111 l 1
 365 18 309 -15 229 -15 c 0
 126 -15 66 51 66 158 c 0
 66 337 192 473 335 473 c 0
 425 473 479 419 479 324 c 0
 479 302 476 275 472 245 c 1
 220 245 l 1
 215 214 214 190 214 171 c 0
224 283 m 1
 357 283 l 1
 364 314 374 369 374 382 c 0
 374 397 371 442 328 442 c 0
 278 442 252 401 224 283 c 1
EndSplineSet
EndChar

StartChar: f
Encoding: 102 102 71
Width: 332
Flags: W
HStem: 0 23<19 60.3023 241.374 291> 417 44<113 160 308 387> 661 30<362.049 424.17>
VStem: 425 92<582 657.919>
DStem2: 70.3578 0 209.107 0 0.207912 0.978148<95.6739 426.525 500.335 629.12>
LayerCount: 2
Back
SplineSet
567.181 678.043 m 0
 563.605 661.592 556.453 648.003 544.293 637.274 c 0
 532.134 626.545 515.685 620.823 494.942 620.823 c 0
 486.359 620.823 477.776 623.684 469.193 630.122 c 0
 461.325 635.844 454.89 645.142 449.883 658.016 c 0
 440.584 685.91 429.855 700.214 417.696 700.214 c 0
 385.512 700.214 362.624 672.319 349.75 616.531 c 1
 328.292 507.101 l 1
 454.175 507.101 l 1
 440.584 448.451 l 1
 316.133 448.451 l 1
 247.471 123.021 l 1
 239.604 90.1191 238.174 68.6621 243.181 60.0801 c 0
 250.331 47.2051 277.511 40.7686 325.432 40.7686 c 1
 316.133 0 l 1
 20.7422 0 l 1
 29.3242 40.7686 l 1
 59.3643 42.9141 79.3906 45.0596 89.4043 47.9209 c 0
 99.418 50.0664 105.14 52.2119 107.285 54.3574 c 0
 116.583 65.8018 125.166 88.6895 133.033 123.021 c 1
 202.412 448.451 l 1
 117.299 448.451 l 1
 130.173 507.101 l 1
 215.286 507.101 l 1
 253.193 673.751 336.875 757.434 465.617 757.434 c 0
 479.206 757.434 491.365 756.002 502.094 754.572 c 0
 512.823 752.427 524.267 748.135 534.995 740.982 c 0
 547.154 733.115 556.453 723.817 562.174 712.373 c 0
 568.612 701.646 570.042 690.2 567.181 678.043 c 0
EndSplineSet
Fore
SplineSet
517 606 m 0
 517 558 479 529 439 529 c 0
 410 529 390 548 390 573 c 0
 390 606 425 626 425 646 c 0
 425 655 416 661 401 661 c 0
 366 661 346 639 334 583 c 2
 308 461 l 1
 395 461 l 1
 387 417 l 1
 299 417 l 1
 231 103 l 1
 229 86 227 75 227 64 c 0
 227 34 245 26 296 23 c 1
 291 0 l 1
 15 0 l 1
 19 23 l 1
 66 29 79 41 88 83 c 2
 160 417 l 1
 104 417 l 1
 113 461 l 1
 168 461 l 1
 186 546 202 587 231 623 c 1
 270 666 325 691 393 691 c 0
 469 691 517 658 517 606 c 0
EndSplineSet
EndChar

StartChar: g
Encoding: 103 103 72
Width: 499
Flags: W
HStem: -207 33<119.012 322.701> -53 120<174.651 376.535> 155 27<244.697 315.026> 398 53<486 567> 442 31<293.524 370.587>
VStem: 1 90<-153.961 -77.1936> 48 126<9.5 102> 100 131<212.022 357.042> 382 126<266.177 397.016> 384 91<-104.431 1.5>
LayerCount: 2
Back
SplineSet
392.663 310.412 m 0
 398.386 339.737 399.101 369.061 395.525 398.386 c 0
 389.803 440.584 370.492 461.325 338.306 461.325 c 0
 298.252 461.325 272.504 434.862 261.062 382.649 c 0
 239.604 276.796 257.484 223.868 316.133 223.868 c 0
 355.472 223.868 380.505 253.193 392.663 310.412 c 0
426.28 -27.8945 m 0
 428.425 -20.0264 426.28 -12.874 420.558 -7.15234 c 0
 414.836 -1.43066 406.254 2.86133 395.525 5.72168 c 0
 381.935 10.7285 366.2 13.5898 348.319 14.3047 c 0
 331.153 15.7354 313.987 16.4502 297.537 16.4502 c 2
 206.702 16.4502 l 2
 193.113 16.4502 180.954 17.8809 170.226 20.7422 c 1
 135.895 -15.7354 117.299 -40.7686 114.438 -55.7881 c 0
 105.14 -94.4111 146.624 -114.438 237.457 -114.438 c 0
 256.055 -114.438 274.65 -112.292 293.246 -108.716 c 0
 311.843 -104.424 329.724 -99.418 348.319 -93.6953 c 0
 394.809 -79.3906 420.558 -57.2188 426.28 -27.8945 c 0
584.347 417.696 m 1
 507.101 417.696 l 1
 510.678 391.233 509.963 364.054 504.24 336.875 c 0
 499.233 312.558 489.936 290.385 477.776 270.358 c 0
 464.902 250.331 449.168 233.167 430.57 218.861 c 0
 411.975 204.557 391.233 193.828 369.061 185.961 c 0
 346.888 178.094 322.571 174.518 297.537 174.518 c 0
 287.524 174.518 277.511 174.518 267.497 175.232 c 0
 256.77 175.232 248.901 176.662 243.181 178.809 c 2
 240.318 178.809 l 2
 236.027 178.809 232.45 176.662 227.444 173.087 c 0
 223.153 168.795 218.146 164.504 212.426 159.498 c 0
 194.543 143.762 185.961 133.749 185.961 128.742 c 0
 183.814 120.875 205.272 115.868 250.331 113.007 c 2
 374.782 105.14 l 2
 413.406 103.709 442.729 92.2656 463.472 70.8086 c 0
 484.93 50.0664 491.365 22.1719 483.498 -12.874 c 0
 477.776 -43.6289 462.757 -70.0928 438.438 -92.9805 c 0
 414.836 -115.868 387.656 -135.18 356.901 -150.914 c 0
 326.146 -166.65 293.962 -178.094 261.775 -185.961 c 0
 228.875 -193.828 199.55 -197.405 174.518 -197.405 c 0
 156.637 -197.405 137.325 -195.975 116.583 -192.398 c 0
 95.126 -189.538 76.5303 -183.1 59.3643 -174.518 c 0
 42.1992 -165.219 28.6094 -153.774 19.3115 -140.186 c 0
 9.29785 -125.881 6.4375 -108 10.0137 -86.543 c 0
 17.8809 -51.4971 55.7881 -11.4434 123.021 33.6162 c 1
 111.576 43.6289 102.278 52.2119 96.5566 60.7949 c 0
 90.835 69.3779 88.6895 78.6758 90.835 89.4043 c 0
 96.5566 114.438 130.888 150.914 193.113 197.405 c 1
 145.192 226.729 127.312 272.504 139.471 334.014 c 0
 145.192 360.479 155.206 384.796 169.511 406.969 c 0
 183.1 429.855 200.266 449.168 220.293 464.902 c 0
 240.318 481.353 262.49 493.512 286.81 502.094 c 0
 311.843 511.393 336.875 515.685 363.339 515.685 c 0
 388.373 515.685 420.558 507.816 459.896 492.082 c 0
 476.346 486.359 492.797 483.498 508.531 483.498 c 2
 597.936 483.498 l 1
 584.347 417.696 l 1
EndSplineSet
Fore
SplineSet
475 -29 m 0xf240
 475 -100 421 -207 185 -207 c 0
 67 -207 1 -176 1 -126 c 0xf440
 1 -76 54 -48 116 -40 c 1
 67 -21 48 -4 48 23 c 0xf2
 48 64 79 123 195 160 c 1
 134 189 100 219 100 284 c 0
 100 376 194 473 341 473 c 0xe9
 381 473 407 467 447 451 c 1
 577 451 l 1
 567 398 l 1
 486 398 l 1
 502 379 508 357 508 333 c 0xf180
 508 225 414 154 299 154 c 1
 256 155 l 1
 193 155 174 110 174 94 c 0
 174 73 198 67 268 67 c 2
 334 67 l 2
 423 67 475 32 475 -29 c 0xf240
214 -174 m 0
 317 -174 384 -146 384 -91 c 0
 384 -66 360 -53 312 -53 c 2
 139 -53 l 1
 104 -76 91 -93 91 -117 c 0
 91 -155 133 -174 214 -174 c 0
334 442 m 0xe980
 287 442 261 404 240 311 c 0
 234 281 231 258 231 239 c 0
 231 199 246 182 278 182 c 0
 325 182 353 218 372 311 c 0
 378 340 382 363 382 382 c 0
 382 425 366 442 334 442 c 0xe980
EndSplineSet
EndChar

StartChar: h
Encoding: 104 104 73
Width: 555
Flags: W
HStem: 0 23<21 56.9955 232.459 256 303 336.033 508.5 535> 406 67<368.011 485.5> 652 25<160 190.294>
VStem: 419 141<255.266 402.526>
DStem2: 68.3578 0 208.783 0 0.207912 0.978148<90.0942 418.098 432.658 633.128> 345.783 0 484.358 0 0.207912 0.978148<90.822 368.85>
LayerCount: 2
Back
SplineSet
562.174 0 m 1
 314.703 0 l 1
 324.001 37.9072 l 1
 340.452 40.0527 354.041 42.1992 364.054 45.0596 c 0
 374.067 48.6357 381.935 51.4971 386.941 55.7881 c 0
 391.233 59.3643 396.24 67.2324 399.815 79.3906 c 0
 404.107 90.835 407.684 105.14 411.26 121.59 c 1
 455.604 334.014 l 1
 469.909 401.247 455.604 434.862 411.26 434.862 c 0
 381.22 434.862 343.312 414.836 297.537 374.782 c 1
 244.61 121.59 l 1
 241.034 105.14 238.174 90.835 236.742 79.3906 c 0
 235.312 67.2324 236.742 59.3643 241.749 54.3574 c 0
 243.896 51.4971 261.775 45.0596 296.106 36.4766 c 1
 288.239 0 l 1
 35.0469 0 l 1
 43.6289 37.9072 l 1
 61.5098 40.0527 75.8145 43.6289 86.543 48.6357 c 0
 97.2715 52.9277 104.424 57.9336 108.716 62.9404 c 0
 114.438 68.6621 120.875 88.6895 128.742 121.59 c 1
 241.749 658.016 l 1
 234.597 662.307 228.16 665.169 221.008 665.169 c 2
 177.379 662.307 l 1
 185.961 704.506 l 1
 361.908 757.434 l 1
 376.213 745.274 l 1
 314.703 455.604 l 1
 364.054 496.372 414.836 517.114 467.049 517.114 c 0
 562.889 517.114 598.65 456.319 574.333 335.445 c 1
 528.559 121.59 l 2
 522.121 90.1191 519.26 70.8086 521.406 62.9404 c 0
 525.697 54.3574 541.433 44.3447 570.042 33.6162 c 1
 562.174 0 l 1
EndSplineSet
Fore
SplineSet
381 406 m 0
 332 406 283 352 283 349 c 2
 226 81 l 2
 224 72 223 64 223 59 c 0
 223 38 234 28 261 23 c 1
 256 0 l 1
 16 0 l 1
 21 23 l 1
 69 34 78 42 86 83 c 2
 195 595 l 2
 198 605 198 614 198 620 c 0
 198 640 187 646 155 652 c 1
 160 677 l 1
 352 677 l 1
 291 395 l 1
 357 453 398 473 451 473 c 0
 520 473 560 434 560 372 c 0
 560 359 558 346 555 333 c 2
 502 83 l 2
 501 75 499 66 499 60 c 0
 499 37 511 26 539 23 c 1
 535 0 l 1
 299 0 l 1
 303 23 l 1
 338 28 354 44 363 81 c 1
 415 324 l 2
 417 338 419 352 419 362 c 0
 419 391 407 406 381 406 c 0
EndSplineSet
EndChar

StartChar: i
Encoding: 105 105 74
Width: 276
Flags: W
HStem: 0 23<21 55.7339 231.25 255> 437 24<114 141.037> 536 155<227.661 310.574>
VStem: 187 160<571.016 650.031>
DStem2: 68.3578 0 208.783 0 0.207912 0.978148<88.2282 411.217>
LayerCount: 2
Back
SplineSet
282.518 0 m 1
 291.816 37.9072 l 1
 253.193 43.6289 233.167 50.0664 230.306 55.7881 c 0
 228.16 60.7949 227.444 69.3779 227.444 81.5371 c 0
 228.16 93.6953 230.306 106.57 233.167 120.159 c 2
 317.564 514.253 l 1
 301.829 519.975 l 1
 120.159 452.743 l 1
 111.576 416.267 l 1
 166.65 423.418 l 1
 180.954 422.703 183.814 404.822 175.947 370.492 c 1
 121.59 120.159 l 1
 115.868 88.6895 107.285 67.9473 95.126 56.5039 c 0
 83.6826 45.0596 60.7949 39.3379 27.8945 39.3379 c 1
 19.3115 0 l 1
 282.518 0 l 1
228.16 691.632 m 0
 224.583 671.604 227.444 655.155 236.742 642.281 c 0
 246.041 629.407 260.345 622.254 279.656 622.254 c 0
 298.252 622.254 315.418 629.407 330.438 642.281 c 0
 345.458 655.155 354.757 671.604 359.048 691.632 c 0
 364.054 710.943 361.193 726.679 351.895 739.553 c 0
 341.882 752.427 327.577 758.863 308.982 758.863 c 0
 289.67 758.863 272.504 752.427 257.484 739.553 c 0
 243.181 726.679 233.167 710.943 228.16 691.632 c 0
EndSplineSet
Fore
SplineSet
306 461 m 1
 226 81 l 2
 224 72 223 64 223 57 c 0
 223 37 233 28 259 23 c 1
 255 0 l 1
 16 0 l 1
 21 23 l 1
 69 35 78 42 86 83 c 2
 149 378 l 2
 151 388 152 395 152 403 c 0
 152 423 141 429 108 437 c 1
 114 461 l 1
 306 461 l 1
187 595 m 0
 187 638 230 691 284 691 c 0
 322 691 347 665 347 628 c 0
 347 576 300 536 252 536 c 0
 212 536 187 560 187 595 c 0
EndSplineSet
EndChar

StartChar: j
Encoding: 106 106 75
Width: 332
Flags: W
HStem: -204 33<7.18755 74.5082> 437 24<157 194.923> 536 155<274.903 358.479>
VStem: -81 88<-170.02 -96.5> 236 159<572.049 651.489>
DStem2: 78.2565 -204 217.426 -204 0.207912 0.978148<115.899 617.81>
LayerCount: 2
Back
SplineSet
404.107 518.545 m 1
 389.803 524.267 l 1
 203.842 457.035 l 1
 195.975 419.128 l 1
 253.193 426.28 l 1
 265.352 425.564 267.497 407.684 261.062 373.353 c 1
 174.518 -32.1855 l 1
 162.358 -92.9805 153.774 -128.027 148.053 -138.04 c 0
 143.047 -147.338 136.609 -155.206 129.457 -161.644 c 0
 122.305 -168.08 115.868 -171.657 110.146 -171.657 c 0
 107.285 -171.657 102.278 -168.795 95.8418 -163.073 c 0
 89.4043 -158.066 84.3975 -150.199 80.8213 -139.471 c 0
 75.8145 -125.166 68.6621 -116.583 60.0801 -112.292 c 0
 51.4971 -108 41.4834 -105.14 30.7549 -105.14 c 0
 28.6094 -105.14 23.6025 -106.57 14.3047 -109.431 c 0
 5.72168 -111.576 -0.714844 -114.438 -5.72168 -118.729 c 0
 -10.7285 -123.735 -15.7354 -129.457 -20.7422 -135.895 c 0
 -25.0332 -143.047 -28.6094 -150.199 -30.7549 -158.066 c 0
 -34.3311 -177.379 -29.3242 -195.26 -15.7354 -210.279 c 0
 -1.43066 -225.3 22.8877 -233.167 57.2188 -233.167 c 0
 118.014 -233.167 168.08 -213.14 208.849 -174.518 c 0
 249.616 -135.18 277.511 -75.8145 294.677 2.86133 c 2
 404.107 518.545 l 1
314.703 695.924 m 0
 309.697 675.896 312.558 660.162 323.286 647.288 c 0
 333.299 634.412 347.604 628.69 366.2 628.69 c 0
 384.796 628.69 401.247 634.412 416.981 647.288 c 0
 432.002 660.162 442.015 675.896 447.021 695.924 c 0
 451.312 715.234 449.168 731.686 438.438 744.56 c 0
 428.425 758.148 414.121 764.586 395.525 764.586 c 0
 376.928 764.586 359.762 758.148 344.743 744.56 c 0
 329.724 731.686 319.71 715.234 314.703 695.924 c 0
EndSplineSet
Fore
SplineSet
7 -157 m 0
 7 -166 19 -171 37 -171 c 0
 69 -171 89 -149 101 -97 c 2
 202 378 l 2
 204 387 205 394 205 401 c 0
 205 425 190 434 151 437 c 1
 157 461 l 1
 359 461 l 1
 261 1 l 1
 236 -124 164 -204 40 -204 c 0
 -34 -204 -81 -171 -81 -122 c 0
 -81 -71 -43 -42 -4 -42 c 0
 25 -42 45 -62 45 -86 c 0
 45 -118 7 -142 7 -157 c 0
236 595 m 0
 236 637 276 691 331 691 c 0
 369 691 395 665 395 628 c 0
 395 571 341 536 299 536 c 0
 261 536 236 560 236 595 c 0
EndSplineSet
EndChar

StartChar: k
Encoding: 107 107 76
Width: 555
Flags: W
HStem: 0 23<26 60.7035 229.747 261 313 355.343 529.639 543> 438 23<397 438.897 554.067 606> 652 25<166 191.085>
DStem2: 70.3578 0 209.358 0 0.207912 0.978148<82.0352 231.439 279.283 628.031> 390 308 278 223 0.45517 -0.890405<24.7054 220.142>
LayerCount: 2
Back
SplineSet
584.347 0 m 1
 329.724 0 l 1
 338.306 42.1992 l 1
 364.769 42.1992 l 2
 371.922 42.1992 375.498 43.6289 376.213 47.2051 c 0
 376.213 47.9209 376.213 48.6357 375.499 50.0664 c 0
 375.499 50.7812 374.782 52.2119 374.782 54.3574 c 1
 278.226 236.027 l 1
 246.041 83.6826 l 1
 242.464 60.0801 254.623 47.2051 282.518 43.6289 c 2
 316.133 40.7686 l 1
 307.551 0 l 1
 35.0469 0 l 1
 43.6289 40.7686 l 1
 82.9668 45.7754 103.709 49.3516 105.14 51.4971 c 0
 112.292 56.5039 118.014 62.2256 122.305 69.3779 c 0
 126.597 77.2451 130.173 87.2588 133.033 100.848 c 2
 241.749 615.102 l 1
 244.61 627.261 246.041 635.844 246.756 642.281 c 0
 247.471 648.718 246.756 653.01 246.041 654.439 c 0
 245.324 658.016 243.181 660.162 241.034 663.022 c 0
 238.174 665.169 233.167 666.599 225.3 666.599 c 2
 175.947 662.307 l 1
 184.531 701.646 l 1
 367.631 754.572 l 1
 388.373 748.85 l 1
 297.537 324.001 l 1
 440.584 432.002 l 2
 447.736 437.724 453.458 442.729 457.035 446.307 c 0
 460.61 449.168 463.472 452.743 464.188 455.604 c 0
 465.617 461.325 448.451 464.188 413.406 464.188 c 1
 423.418 507.101 l 1
 665.169 507.101 l 1
 654.438 462.757 l 1
 632.982 462.757 615.816 461.325 602.228 458.465 c 0
 588.638 455.604 576.479 451.312 565.75 447.021 c 0
 557.882 442.729 545.725 435.577 528.559 425.564 c 0
 512.107 415.551 494.227 403.393 474.916 389.803 c 2
 369.061 311.843 l 1
 483.498 114.438 l 2
 496.372 91.5498 511.393 74.3848 528.559 62.2256 c 0
 546.439 50.0664 567.896 43.6289 592.929 42.1992 c 1
 584.347 0 l 1
EndSplineSet
Fore
SplineSet
445 415 m 0
 445 433 416 435 393 438 c 1
 397 461 l 1
 611 461 l 1
 606 438 l 1
 541 431 511 412 390 308 c 1
 527 40 l 1
 533 26 536 23 548 23 c 1
 543 0 l 1
 309 0 l 1
 313 23 l 1
 344 25 360 31 360 45 c 0
 360 54 356 66 346 88 c 2
 278 223 l 1
 252 198 l 1
 227 83 l 2
 224 70 223 60 223 51 c 0
 223 34 233 29 265 23 c 1
 261 0 l 1
 22 0 l 1
 26 23 l 1
 62 26 81 45 88 83 c 2
 196 595 l 2
 198 602 199 609 199 615 c 0
 199 639 186 649 161 652 c 1
 166 677 l 1
 353 677 l 1
 261 245 l 1
 416 374 l 1
 435 386 445 407 445 415 c 0
EndSplineSet
EndChar

StartChar: l
Encoding: 108 108 77
Width: 276
Flags: W
HStem: 0 23<21 54.7852 230.036 255> 652 25<160 186.26>
DStem2: 67.3578 0 206.358 0 0.207912 0.978148<92.9097 628.031>
LayerCount: 2
Back
SplineSet
285.378 0 m 1
 25.0332 0 l 1
 33.6162 37.9072 l 1
 62.9404 42.1992 83.6826 48.6357 96.5566 57.9336 c 0
 109.431 67.2324 118.014 82.9668 123.021 105.14 c 2
 231.735 615.102 l 1
 237.457 639.419 239.604 653.725 237.457 658.016 c 0
 235.312 664.452 228.875 668.029 218.146 668.029 c 2
 162.358 663.737 l 1
 171.657 705.937 l 1
 180.239 708.081 194.543 711.658 213.854 716.665 c 0
 233.167 722.387 253.908 728.108 274.65 734.546 c 0
 295.392 740.982 315.418 746.705 334.014 752.427 c 0
 352.611 757.434 365.485 761.009 373.353 763.155 c 1
 233.167 103.709 l 1
 223.868 60.7949 244.61 39.3379 294.677 39.3379 c 1
 285.378 0 l 1
EndSplineSet
Fore
SplineSet
350 677 m 1
 224 83 l 2
 223 75 221 69 221 62 c 0
 221 37 234 25 259 23 c 1
 255 0 l 1
 16 0 l 1
 21 23 l 1
 56 26 78 47 85 83 c 2
 193 595 l 2
 195 602 196 609 196 615 c 0
 196 637 182 649 155 652 c 1
 160 677 l 1
 350 677 l 1
EndSplineSet
EndChar

StartChar: m
Encoding: 109 109 78
Width: 832
Flags: W
HStem: 0 23<21 58.8592 232.375 256 305 341.706 509.674 535 580 618.319 784.916 814> 406 67<367.941 487.5 647.639 763.5> 437 24<114 143.375>
VStem: 699 140<302.053 401.281>
DStem2: 70.3578 0 209.783 0 0.207912 0.978148<88.0204 409.351> 348.783 0 486.783 0 0.207912 0.978148<89.59 368.85> 625.783 0 764.783 0 0.207912 0.978148<85.0427 368.85>
LayerCount: 2
Back
SplineSet
880.453 0 m 1
 617.963 0 l 1
 627.261 39.3379 l 1
 673.036 39.3379 700.931 62.9404 711.658 110.146 c 1
 757.434 325.432 l 1
 765.301 359.048 767.447 384.081 764.586 399.815 c 0
 758.863 420.558 742.413 430.57 715.95 430.57 c 0
 674.466 430.57 635.844 411.975 600.797 374.782 c 1
 545.008 110.146 l 2
 540.001 87.2588 541.433 70.0928 549.3 57.9336 c 0
 557.167 45.7754 576.479 39.3379 606.518 39.3379 c 1
 597.936 0 l 1
 329.724 0 l 1
 338.306 39.3379 l 1
 364.769 39.3379 384.796 45.7754 398.386 57.9336 c 0
 411.975 70.0928 421.273 87.2588 426.28 110.146 c 2
 473.485 331.153 l 1
 487.79 397.67 474.916 430.57 433.432 430.57 c 0
 404.107 430.57 376.213 421.273 348.319 402.677 c 0
 339.021 396.24 331.153 390.519 324.717 386.941 c 0
 318.279 382.649 314.703 379.789 314.703 377.643 c 1
 257.484 110.146 l 2
 253.193 87.2588 254.623 70.0928 263.207 57.9336 c 0
 271.074 45.7754 288.955 39.3379 316.133 39.3379 c 1
 307.551 0 l 1
 40.7686 0 l 1
 50.0664 39.3379 l 1
 98.7021 39.3379 128.742 62.9404 139.471 110.146 c 1
 197.405 385.512 l 2
 199.55 393.379 200.98 399.101 200.98 404.107 c 0
 200.98 409.829 198.835 415.551 194.543 420.558 c 0
 193.828 421.273 190.968 421.988 185.961 421.988 c 0
 180.954 421.988 173.802 421.273 164.504 420.558 c 0
 155.206 419.128 144.478 417.696 131.604 416.267 c 1
 142.332 458.465 l 1
 168.795 466.332 190.253 472.771 208.134 477.776 c 0
 225.3 482.068 241.034 487.075 253.193 490.65 c 0
 266.067 494.942 276.796 497.804 285.378 499.949 c 0
 294.677 502.811 303.259 505.671 311.843 508.531 c 1
 336.875 508.531 l 1
 322.571 439.154 l 1
 357.618 459.181 383.366 472.771 400.532 481.353 c 0
 417.696 489.22 428.425 494.942 433.432 496.372 c 0
 445.591 501.379 455.604 504.956 464.188 506.386 c 0
 473.485 507.816 481.353 508.531 489.22 508.531 c 0
 543.578 508.531 578.625 483.498 592.929 433.432 c 1
 654.438 483.498 715.95 508.531 776.029 508.531 c 0
 869.01 508.531 901.194 441.301 873.301 307.551 c 2
 830.388 110.146 l 2
 825.381 87.2588 827.525 70.0928 836.109 57.9336 c 0
 845.406 45.7754 862.572 39.3379 889.037 39.3379 c 1
 880.453 0 l 1
EndSplineSet
Fore
SplineSet
381 406 m 0xd0
 343 406 284 359 284 349 c 1
 227 81 l 2
 226 72 224 64 224 57 c 0
 224 37 234 28 261 23 c 1
 256 0 l 1
 16 0 l 1
 21 23 l 1
 67 32 79 42 88 83 c 2
 151 378 l 2
 152 387 154 395 154 401 c 0
 154 423 141 432 108 437 c 1
 114 461 l 1
 305 461 l 1xb0
 289 387 l 1
 340 445 393 473 456 473 c 0
 519 473 548 450 564 387 c 1
 630 450 674 473 729 473 c 0
 798 473 839 434 839 371 c 0
 839 359 838 346 835 333 c 2
 782 81 l 1
 781 70 779 62 779 54 c 0
 779 32 790 26 819 23 c 1
 814 0 l 1
 576 0 l 1
 580 23 l 1
 620 26 634 40 643 81 c 2
 694 324 l 2
 697 338 699 352 699 362 c 0
 699 393 687 406 659 406 c 0
 618 406 561 356 561 349 c 1
 504 81 l 2
 502 72 501 64 501 59 c 0
 501 37 513 26 539 23 c 1
 535 0 l 1
 300 0 l 1
 305 23 l 1
 343 26 357 40 366 81 c 2
 417 324 l 2
 420 338 422 352 422 362 c 0
 422 393 409 406 381 406 c 0xd0
EndSplineSet
EndChar

StartChar: n
Encoding: 110 110 79
Width: 555
Flags: W
HStem: 0 23<25 61.2832 237.12 262 309 342.033 511.249 539> 406 67<371.183 490> 437 24<119 148.813>
VStem: 425 140<302.053 401.281>
DStem2: 74.3578 0 212.783 0 0.207912 0.978148<89.7674 411.217> 351.783 0 490.783 0 0.207912 0.978148<85.0424 366.895>
LayerCount: 2
Back
SplineSet
559.313 0 m 1
 317.564 0 l 1
 326.863 37.9072 l 1
 354.041 42.1992 370.492 46.4902 376.213 51.4971 c 0
 389.088 57.9336 399.101 79.3906 406.969 115.868 c 2
 454.175 335.445 l 1
 465.617 394.094 449.883 423.418 406.969 423.418 c 0
 382.649 423.418 349.034 406.969 306.12 373.353 c 1
 244.61 83.6826 l 1
 241.034 59.3643 260.345 43.6289 303.259 37.9072 c 1
 294.677 0 l 1
 47.2051 0 l 1
 55.7881 37.9072 l 1
 62.2256 37.9072 69.3779 38.623 77.2451 39.3379 c 0
 84.3975 40.7686 91.5498 42.1992 97.9873 45.0596 c 0
 114.438 52.2119 127.312 72.9541 135.895 107.285 c 1
 190.253 367.631 l 1
 195.975 391.233 197.405 406.969 194.543 414.836 c 0
 194.543 416.267 192.398 417.696 188.106 418.413 c 0
 183.814 418.413 178.809 419.128 173.087 419.128 c 0
 168.795 419.128 163.073 417.696 154.491 416.267 c 0
 145.908 414.121 138.756 411.975 131.604 409.829 c 1
 142.332 458.465 l 1
 153.774 461.325 167.365 464.902 183.1 468.479 c 0
 198.835 472.771 214.569 477.062 231.021 482.068 c 0
 246.756 487.075 261.775 491.365 275.365 495.657 c 0
 288.955 499.949 299.684 504.24 307.551 507.101 c 1
 332.584 507.101 l 1
 317.564 439.154 l 1
 329.724 449.883 340.452 459.181 349.75 465.617 c 0
 359.762 472.771 368.346 478.491 376.213 483.498 c 0
 391.948 492.082 407.684 498.519 423.418 501.379 c 0
 439.154 504.956 454.89 507.101 471.339 507.101 c 0
 560.743 507.101 592.929 449.883 570.042 336.875 c 1
 518.545 97.9873 l 1
 516.399 86.543 514.968 76.5303 514.253 68.6621 c 0
 512.823 60.7949 514.253 55.0732 517.114 51.4971 c 0
 522.121 47.2051 538.572 42.1992 567.181 36.4766 c 1
 559.313 0 l 1
EndSplineSet
Fore
SplineSet
385 406 m 0xd0
 337 406 287 353 287 349 c 2
 230 81 l 2
 229 72 227 66 227 59 c 0
 227 38 239 28 267 23 c 1
 262 0 l 1
 21 0 l 1
 25 23 l 1
 73 34 83 42 92 83 c 2
 155 378 l 2
 157 388 158 395 158 403 c 0
 158 425 145 432 113 437 c 1
 119 461 l 1
 311 461 l 1xb0
 294 387 l 1
 344 445 395 473 456 473 c 0
 524 473 565 434 565 371 c 0
 565 359 564 346 561 333 c 2
 508 81 l 2
 505 70 505 62 505 54 c 0
 505 34 516 25 543 23 c 1
 539 0 l 1
 305 0 l 1
 309 23 l 1
 344 28 360 44 369 81 c 1
 420 324 l 2
 423 337 425 350 425 360 c 0
 425 391 412 406 385 406 c 0xd0
EndSplineSet
EndChar

StartChar: o
Encoding: 111 111 80
Width: 499
Flags: W
HStem: -15 33<213.683 300.973> 442 31<301.38 382.727>
VStem: 67 132<74.3035 231.103> 397 135<223.812 384.353>
LayerCount: 2
Back
SplineSet
85.1133 250.331 m 0
 77.9609 215.286 77.2451 182.385 82.252 150.914 c 0
 87.2588 119.444 97.2715 92.2656 113.723 68.6621 c 0
 129.457 45.0596 150.914 27.1787 178.094 12.874 c 0
 204.557 -0.714844 236.027 -7.15234 272.504 -7.15234 c 0
 308.266 -7.15234 343.312 -0.714844 375.499 12.874 c 0
 408.399 27.1787 437.724 45.0596 464.188 68.6621 c 0
 490.65 92.2656 513.538 119.444 532.134 150.914 c 0
 551.446 182.385 564.32 215.286 571.473 250.331 c 0
 579.34 285.378 580.055 318.994 575.048 349.75 c 0
 569.327 381.22 558.599 408.399 542.147 432.002 c 0
 525.697 455.604 503.525 474.199 477.062 487.79 c 0
 449.883 501.379 418.413 508.531 382.649 508.531 c 0
 346.173 508.531 311.843 501.379 279.656 487.79 c 0
 247.471 474.199 218.146 455.604 191.683 432.002 c 0
 165.219 408.399 143.047 381.22 124.451 349.75 c 0
 105.854 318.994 92.9805 285.378 85.1133 250.331 c 0
205.272 248.901 m 0
 210.994 277.511 218.861 303.976 229.59 328.292 c 0
 239.604 352.611 251.763 374.067 266.067 393.379 c 0
 280.371 412.689 296.106 426.995 313.272 437.724 c 0
 331.153 448.451 349.75 454.175 370.492 454.175 c 0
 391.948 454.175 409.114 448.451 421.988 437.724 c 0
 434.862 426.995 444.161 412.689 449.883 393.379 c 0
 455.604 374.067 458.465 352.611 457.75 328.292 c 0
 457.035 303.976 454.175 277.511 448.451 248.901 c 0
 442.015 221.008 434.862 193.828 424.85 169.511 c 0
 414.836 144.478 403.393 122.305 389.088 102.994 c 0
 374.782 84.3975 359.048 69.3779 341.167 58.6494 c 0
 324.001 47.9209 303.976 42.1992 282.518 42.1992 c 0
 262.49 42.1992 245.324 47.9209 233.167 58.6494 c 0
 220.293 69.3779 210.994 84.3975 204.557 102.994 c 0
 198.12 122.305 195.26 144.478 195.26 169.511 c 0
 195.975 193.828 199.55 221.008 205.272 248.901 c 0
EndSplineSet
Fore
SplineSet
67 168 m 0
 67 321 197 473 352 473 c 0
 461 473 532 398 532 290 c 0
 532 154 418 -15 248 -15 c 0
 138 -15 67 60 67 168 c 0
346 442 m 0
 284 442 255 390 217 214 c 0
 205 161 199 120 199 91 c 0
 199 38 218 18 255 18 c 0
 313 18 344 69 376 223 c 1
 391 289 397 335 397 371 c 0
 397 422 381 442 346 442 c 0
EndSplineSet
EndChar

StartChar: p
Encoding: 112 112 81
Width: 555
Flags: W
HStem: -205 20<-19 9.91464 208.787 248> -13 55<261.107 348.999> 416 57<356.252 484.5> 437 24<119 148.813>
VStem: 439 144<193.167 404.854>
DStem2: 30.5704 -205 169.406 -205 0.207912 0.978148<103.827 286.709 312.292 620.842>
LayerCount: 2
Back
SplineSet
188.821 -108.716 m 2
 216.716 20.7422 l 1
 241.034 2.14551 270.358 -7.15234 304.69 -7.15234 c 0
 341.882 -7.15234 376.213 0.714844 408.399 16.4502 c 0
 440.584 31.4707 469.909 52.9277 494.942 79.3906 c 0
 520.691 105.14 541.433 135.18 558.599 169.511 c 0
 575.763 203.127 588.637 237.457 596.506 273.936 c 0
 602.228 303.259 604.373 332.584 603.657 361.193 c 0
 602.228 389.803 597.221 415.551 586.493 438.438 c 0
 576.479 461.325 560.743 479.923 540.718 494.227 c 0
 519.975 508.531 494.227 515.685 462.757 515.685 c 0
 435.577 515.685 409.114 510.678 383.366 501.379 c 0
 356.901 492.082 331.868 477.776 306.12 457.035 c 1
 308.266 467.764 309.697 478.491 311.126 488.505 c 0
 312.558 498.519 314.703 509.246 316.133 519.975 c 1
 253.908 498.519 190.968 477.776 127.312 458.465 c 1
 118.729 420.558 l 1
 165.219 423.418 l 2
 175.947 423.418 182.385 419.843 183.1 413.406 c 0
 183.1 405.537 180.954 391.233 177.379 371.922 c 2
 72.9541 -117.299 l 1
 68.6621 -136.609 60.0801 -150.914 49.3516 -158.781 c 0
 37.9072 -167.365 17.8809 -171.657 -10.0137 -171.657 c 1
 -19.3115 -213.854 l 1
 257.484 -213.854 l 1
 268.212 -168.795 l 1
 225.3 -168.795 200.266 -165.219 193.113 -158.066 c 0
 184.531 -151.63 183.1 -134.464 188.821 -108.716 c 2
473.485 240.318 m 0
 461.325 188.821 444.161 145.192 420.558 111.576 c 0
 393.379 70.0928 359.048 50.0664 317.564 50.0664 c 0
 301.113 50.0664 282.518 55.7881 262.49 67.2324 c 0
 241.749 77.9609 233.167 91.5498 236.027 107.285 c 2
 290.385 367.631 l 1
 297.537 384.081 312.558 398.386 333.299 409.114 c 0
 354.041 420.558 374.782 426.28 394.094 426.28 c 0
 415.551 426.28 432.717 420.558 445.591 409.114 c 0
 457.75 398.386 467.049 383.366 472.056 365.485 c 0
 477.776 347.604 480.638 326.863 480.638 304.69 c 0
 480.638 283.232 477.776 261.775 473.485 240.318 c 0
EndSplineSet
Fore
SplineSet
583 309 m 0xe8
 583 133 457 -13 330 -13 c 0
 286 -13 262 0 224 47 c 1
 193 -94 l 2
 190 -110 189 -123 189 -133 c 0
 189 -170 207 -182 252 -185 c 1
 248 -205 l 1
 -25 -205 l 1
 -19 -182 l 1
 31 -173 40 -164 48 -123 c 2
 155 378 l 2
 157 388 158 395 158 403 c 0
 158 425 145 432 113 437 c 1
 119 461 l 1
 311 461 l 1xd8
 296 393 l 1
 338 450 379 473 439 473 c 0
 530 473 583 409 583 309 c 0xe8
300 42 m 0
 411 42 439 284 439 335 c 0
 439 390 422 416 388 416 c 0xe8
 343 416 292 365 287 346 c 2
 236 103 l 1
 242 64 267 42 300 42 c 0
EndSplineSet
EndChar

StartChar: q
Encoding: 113 113 82
Width: 555
Flags: W
HStem: -205 23<231 271.922 464.764 492> -15 55<171.5 299.219> 441 32<322.903 406.157>
VStem: 73 144<57.3534 270.093>
DStem2: 298.044 -205 436.57 -205 0.207912 0.978148<90.7663 252.405 264.83 602.141>
LayerCount: 2
Back
SplineSet
482.068 -226.729 m 1
 490.65 -185.961 l 1
 447.021 -178.094 427.71 -161.644 433.432 -135.895 c 1
 570.042 505.671 l 1
 560.743 517.114 l 1
 546.439 514.253 l 1
 486.359 480.638 l 1
 467.049 492.797 447.736 502.094 429.855 507.816 c 0
 411.975 512.823 393.379 515.685 374.782 515.685 c 0
 336.875 515.685 301.113 508.531 268.212 493.512 c 0
 234.597 479.206 204.557 459.181 178.094 433.432 c 0
 150.914 408.399 128.742 378.359 110.146 344.743 c 0
 91.5498 311.126 77.9609 276.081 70.0928 238.889 c 0
 63.6562 207.419 60.0801 176.662 60.0801 146.624 c 0
 60.0801 117.299 65.0859 90.835 75.0996 67.9473 c 0
 85.8281 45.0596 100.848 27.1787 121.59 12.874 c 0
 142.332 -0.714844 169.511 -7.15234 203.842 -7.15234 c 0
 217.432 -7.15234 233.882 -5.72168 253.193 -1.43066 c 0
 273.219 2.14551 291.816 8.58301 308.982 17.8809 c 0
 326.863 26.4639 344.027 36.4766 360.479 48.6357 c 1
 326.863 -113.007 l 2
 316.85 -158.781 280.371 -181.669 216.716 -181.669 c 1
 206.702 -226.729 l 1
 482.068 -226.729 l 1
366.2 111.576 m 1
 344.743 90.835 313.987 80.8213 273.936 80.8213 c 0
 252.478 80.8213 235.312 86.543 221.723 97.9873 c 0
 208.849 110.146 199.55 124.451 193.828 143.047 c 0
 188.821 160.928 185.961 180.954 186.676 203.842 c 0
 187.392 226.015 189.538 247.471 193.113 268.212 c 0
 198.12 290.385 205.272 313.272 213.854 336.16 c 0
 222.438 359.048 233.882 379.789 247.471 398.386 c 0
 261.062 416.981 277.511 432.002 296.106 444.161 c 0
 314.703 455.604 335.445 461.325 359.048 461.325 c 0
 418.413 461.325 442.015 430.57 429.141 369.061 c 1
 382.649 152.345 l 1
 366.2 111.576 l 1
EndSplineSet
Fore
SplineSet
73 151 m 0
 73 332 211 473 357 473 c 0
 407 473 435 458 476 416 c 1
 565 472 l 1
 580 472 l 1
 454 -123 l 2
 453 -132 451 -139 451 -145 c 0
 451 -167 464 -174 498 -182 c 1
 492 -205 l 1
 226 -205 l 1
 231 -180 l 1
 299 -168 308 -160 321 -97 c 2
 350 42 l 1
 300 1 264 -15 217 -15 c 0
 126 -15 73 51 73 151 c 0
369 441 m 0
 247 441 217 177 217 133 c 0
 217 72 239 40 281 40 c 0
 316 40 346 62 362 98 c 1
 417 360 l 2
 419 369 420 378 420 385 c 0
 420 419 401 441 369 441 c 0
EndSplineSet
EndChar

StartChar: r
Encoding: 114 114 83
Width: 443
Flags: W
HStem: 0 23<34 72.3017 251.625 294> 387 86<349 474> 437 24<127 156.5>
DStem2: 83.3578 0 223.107 0 0.207912 0.978148<95.4661 406.844>
LayerCount: 2
Back
SplineSet
490.65 439.154 m 0
 485.645 419.843 477.062 405.537 464.902 395.525 c 0
 452.743 385.512 439.154 380.505 424.85 380.505 c 0
 406.254 380.505 391.233 387.656 380.505 401.247 c 0
 377.643 405.537 376.213 409.114 374.782 413.406 c 0
 374.067 416.981 370.492 419.128 364.769 419.128 c 0
 353.326 419.128 338.306 409.829 321.14 392.663 c 0
 303.259 374.782 293.246 359.048 290.385 344.027 c 2
 240.318 108.716 l 1
 229.59 62.2256 253.193 39.3379 311.843 39.3379 c 1
 303.259 0 l 1
 30.7549 0 l 1
 37.9072 36.4766 l 1
 56.5039 40.7686 71.5234 43.6289 83.6826 47.2051 c 0
 95.126 50.0664 102.994 52.2119 107.285 54.3574 c 0
 108.716 56.5039 111.576 61.5098 115.152 70.0928 c 0
 118.729 79.3906 121.59 89.4043 124.451 100.848 c 1
 180.239 364.769 l 1
 185.961 397.67 183.814 414.836 173.087 414.836 c 2
 121.59 409.829 l 1
 128.742 448.451 l 1
 163.073 459.896 195.975 470.624 228.16 481.353 c 0
 261.062 491.365 286.81 500.664 306.12 508.531 c 1
 325.432 508.531 l 1
 310.412 440.584 l 1
 355.472 485.645 397.67 508.531 436.294 508.531 c 0
 481.353 508.531 499.233 485.645 490.65 439.154 c 0
EndSplineSet
Fore
SplineSet
441 328 m 0xc0
 382 328 393 387 365 387 c 0xc0
 333 387 296 344 284 291 c 2
 245 103 l 2
 242 86 239 75 239 64 c 0
 239 35 255 26 299 23 c 1
 294 0 l 1
 29 0 l 1
 34 23 l 1
 81 32 92 42 101 83 c 2
 164 378 l 2
 166 387 167 394 167 400 c 0
 167 423 154 432 122 437 c 1
 127 461 l 1
 316 461 l 1xa0
 299 379 l 1
 360 445 404 473 454 473 c 0
 494 473 520 448 520 415 c 0
 520 384 498 328 441 328 c 0xc0
EndSplineSet
EndChar

StartChar: s
Encoding: 115 115 84
Width: 388
Flags: W
HStem: -15 36<132.288 251.938> 439 34<236.298 340.965>
VStem: 57 28<119 152> 92 115<237.5 373.888> 284 110<88.7628 233.5> 384 25<327 360.833> 417 22<456.814 472>
LayerCount: 2
Back
SplineSet
399.815 138.04 m 0
 389.803 90.835 366.915 55.0732 330.438 30.04 c 0
 293.962 5.00684 253.193 -7.15234 208.134 -7.15234 c 0
 192.398 -7.15234 170.226 -4.29102 142.332 1.43066 c 2
 92.2656 11.4434 l 2
 88.6895 11.4434 82.252 7.86719 74.3848 0 c 1
 42.1992 0 l 1
 82.252 185.961 l 1
 125.881 185.961 l 1
 125.166 161.644 125.166 143.047 126.597 130.888 c 0
 128.027 118.729 130.888 102.994 134.464 83.6826 c 0
 138.756 67.2324 148.053 55.0732 161.644 48.6357 c 0
 175.947 41.4834 192.398 37.9072 210.994 37.9072 c 0
 257.484 37.9072 285.378 59.3643 294.677 100.848 c 0
 298.969 128.742 288.239 150.914 262.49 168.795 c 0
 238.889 185.961 220.293 200.266 205.987 210.994 c 0
 191.683 221.723 180.239 231.021 171.657 238.174 c 0
 162.358 245.324 155.921 251.048 151.63 255.338 c 0
 147.338 260.345 143.762 263.922 140.901 268.212 c 0
 131.604 281.803 125.166 296.106 120.159 311.843 c 0
 115.152 327.577 115.152 346.173 120.159 367.631 c 0
 125.166 389.088 133.749 408.399 145.908 425.564 c 0
 158.066 442.729 172.372 457.035 189.538 469.193 c 0
 206.702 481.353 225.3 491.365 246.041 497.804 c 0
 266.782 504.956 286.81 508.531 307.551 508.531 c 0
 325.432 508.531 338.306 507.101 347.604 505.671 c 0
 356.901 503.525 362.624 501.379 364.769 499.233 c 2
 396.955 486.359 l 2
 397.67 487.075 399.101 488.505 399.815 490.65 c 0
 400.532 492.797 403.393 496.372 406.969 500.664 c 1
 440.584 500.664 l 1
 409.829 331.153 l 1
 367.631 331.153 l 1
 367.631 416.981 343.312 459.896 294.677 459.896 c 0
 276.081 459.896 259.63 455.604 245.324 446.307 c 0
 231.021 437.009 221.723 421.988 216.716 401.247 c 0
 213.854 385.512 214.569 373.353 218.146 364.769 c 0
 222.438 356.187 229.59 347.604 240.318 339.737 c 2
 338.306 272.504 l 2
 351.895 262.49 363.339 253.908 371.207 245.324 c 0
 379.789 236.742 386.227 228.875 391.233 221.008 c 0
 399.101 209.563 403.393 196.688 404.107 183.814 c 0
 405.537 170.94 404.107 155.206 399.815 138.04 c 0
EndSplineSet
Fore
SplineSet
204 -15 m 0xfa
 148 -15 93 15 79 15 c 0
 70 15 63 7 47 -13 c 1
 22 -13 l 1
 57 152 l 1
 85 152 l 1
 88 64 125 21 195 21 c 0
 241 21 284 51 284 97 c 0xfa
 284 173 92 176 92 299 c 0
 92 375 165 473 286 473 c 0
 333 473 369 451 390 451 c 0
 401 451 409 456 417 472 c 1
 439 472 l 1
 409 327 l 1
 384 327 l 1xf6
 377 398 344 439 287 439 c 0
 236 439 207 401 207 372 c 0
 207 288 394 296 394 171 c 0
 394 92 325 -15 204 -15 c 0xfa
EndSplineSet
EndChar

StartChar: t
Encoding: 116 116 85
Width: 332
Flags: W
HStem: -12 71<152.5 264.468> 417 44<309 394>
VStem: 88 145<59.9879 177.734>
DStem2: 68.8941 -12 208.793 -12 0.207912 0.978148<135.19 438.775>
LayerCount: 2
Back
SplineSet
332.584 86.543 m 1
 314.703 60.0801 291.1 37.9072 261.775 20.0264 c 0
 231.735 1.43066 203.842 -7.15234 178.809 -7.15234 c 0
 110.146 -7.15234 86.543 40.7686 107.285 138.04 c 2
 171.657 444.161 l 1
 120.159 444.161 l 1
 115.868 467.049 l 1
 126.597 474.916 136.609 482.783 147.338 490.65 c 0
 157.352 498.519 168.08 507.101 178.809 515.685 c 0
 199.55 532.851 219.576 552.876 240.318 575.763 c 0
 261.062 597.936 283.948 625.115 310.412 658.016 c 1
 316.133 612.241 l 1
 293.246 504.24 l 1
 395.525 504.24 l 1
 382.649 444.161 l 1
 279.656 444.161 l 1
 218.146 153.774 l 2
 206.702 97.9873 213.14 70.0928 238.889 70.0928 c 0
 255.338 70.0928 278.941 85.1133 310.412 114.438 c 1
 332.584 86.543 l 1
EndSplineSet
Fore
SplineSet
403 461 m 1
 394 417 l 1
 300 417 l 1
 236 116 l 2
 234 105 233 98 233 91 c 0
 233 69 243 59 264 59 c 0
 284 59 303 73 331 111 c 1
 353 100 l 1
 296 18 248 -12 182 -12 c 0
 123 -12 88 18 88 67 c 0
 88 75 89 83 91 92 c 2
 161 417 l 1
 110 417 l 1
 114 444 l 1
 190 499 240 543 319 630 c 1
 344 630 l 1
 309 461 l 1
 403 461 l 1
EndSplineSet
EndChar

StartChar: u
Encoding: 117 117 86
Width: 555
Flags: W
HStem: -15 66<160.5 283.402> 21 21<511.721 542> 437 24<114 140.378 378 416.363>
VStem: 86 140<54.3577 153.224>
DStem2: 61.0295 -15 200.88 -15 0.207912 0.978148<136.442 427.604> 338.619 -15 477.343 -15 0.207912 0.978148<124.545 424.592>
LayerCount: 2
Back
SplineSet
556.452 39.3379 m 1
 547.154 37.9072 534.995 35.0469 521.406 32.9004 c 0
 507.816 30.7549 494.227 27.1787 480.638 22.1719 c 2
 374.782 -11.4434 l 1
 386.941 61.5098 l 1
 360.479 39.3379 l 2
 339.737 23.6025 318.994 12.1592 298.969 4.29102 c 0
 278.226 -3.57617 256.055 -7.15234 233.167 -7.15234 c 0
 216.001 -7.15234 200.266 -5.00684 185.246 -0.714844 c 0
 170.226 3.57617 157.352 10.0137 146.624 19.3115 c 0
 130.173 30.7549 120.875 47.2051 118.729 68.6621 c 0
 116.583 90.1191 118.014 113.723 123.021 139.471 c 1
 180.239 404.107 l 1
 183.814 425.564 182.385 440.584 174.518 448.451 c 0
 170.226 452.028 165.219 454.89 158.066 457.035 c 0
 151.63 459.181 140.901 459.896 127.312 459.896 c 1
 134.464 497.804 l 1
 313.272 497.804 l 1
 238.889 145.192 l 1
 236.742 133.033 236.742 121.59 239.604 109.431 c 0
 241.749 97.2715 248.187 88.6895 257.484 83.6826 c 0
 262.49 81.5371 268.212 80.1064 274.65 79.3906 c 0
 281.088 77.9609 286.81 77.9609 293.246 77.9609 c 0
 307.551 77.9609 322.571 80.8213 337.591 87.2588 c 0
 352.611 93.6953 368.346 102.278 384.081 113.007 c 0
 390.519 118.014 396.24 131.604 399.815 153.774 c 1
 452.743 402.677 l 2
 457.75 425.564 454.89 439.869 445.591 446.307 c 0
 435.577 452.028 416.267 455.604 386.941 455.604 c 1
 395.525 497.804 l 1
 590.068 497.804 l 1
 511.393 125.881 l 2
 507.101 106.57 508.531 93.6953 514.968 87.9736 c 0
 521.406 82.252 537.857 79.3906 563.605 79.3906 c 1
 556.452 39.3379 l 1
EndSplineSet
Fore
SplineSet
340 -13 m 1x70
 354 53 l 1
 286 1 248 -15 195 -15 c 0
 126 -15 86 23 86 88 c 0
 86 100 88 113 91 126 c 2
 145 378 l 2
 148 388 148 397 148 404 c 0
 148 425 138 431 108 437 c 1
 114 461 l 1
 302 461 l 1
 230 122 l 2
 227 110 226 98 226 89 c 0
 226 62 240 51 271 51 c 0xb0
 299 51 322 62 362 95 c 1
 422 378 l 2
 423 387 425 395 425 401 c 0
 425 426 412 434 372 437 c 1
 378 461 l 1
 579 461 l 1
 502 101 l 2
 501 92 499 83 499 78 c 0
 499 53 513 45 546 42 c 1
 542 21 l 1
 471 12 393 4 340 -13 c 1x70
EndSplineSet
EndChar

StartChar: v
Encoding: 118 118 87
Width: 499
Flags: W
HStem: -15 21G<226.5 276.292> 422 39<119 152.206> 437 24<119 143.42 313.628 363 432 473.392 542.302 577>
DStem2: 344 177 264 -15 0.523618 0.851953<0 270.892>
LayerCount: 2
Back
SplineSet
615.102 457.035 m 1
 605.803 457.035 595.79 455.604 585.776 452.028 c 0
 576.479 448.451 568.612 442.729 563.605 434.862 c 2
 285.378 -19.3115 l 1
 250.331 5.72168 l 1
 163.788 424.85 l 1
 162.358 427.71 160.213 431.287 158.781 435.577 c 0
 157.352 439.869 155.206 443.444 152.345 445.591 c 0
 147.338 449.883 142.332 453.458 135.895 454.89 c 0
 130.173 456.319 121.59 457.035 110.146 457.035 c 1
 118.729 497.804 l 1
 349.75 497.804 l 1
 342.598 458.465 l 1
 331.868 457.75 323.286 456.319 315.418 455.604 c 0
 308.266 454.89 301.829 451.312 296.106 447.021 c 0
 293.246 444.876 290.385 440.584 288.239 433.432 c 0
 287.524 428.425 288.239 421.273 290.385 411.26 c 2
 335.445 170.226 l 1
 484.93 416.267 l 2
 488.505 421.988 490.65 426.28 490.65 429.141 c 0
 492.797 437.009 491.365 443.444 487.79 448.451 c 0
 484.93 453.458 479.923 455.604 474.2 456.319 c 0
 467.764 457.035 457.035 457.035 442.015 457.035 c 1
 451.312 497.804 l 1
 623.684 497.804 l 1
 615.102 457.035 l 1
EndSplineSet
Fore
SplineSet
583 461 m 1xa0
 577 437 l 1xa0
 546 434 536 426 508 382 c 2
 264 -15 l 1
 239 -15 l 1
 214 112 156 422 145 422 c 1xc0
 141 431 136 434 113 437 c 1xa0
 119 461 l 1xc0
 369 461 l 1
 363 437 l 1
 356 437 347 435 346 435 c 0
 325 434 305 429 305 403 c 0
 305 397 306 391 308 379 c 2
 344 177 l 1
 454 359 l 1
 469 380 478 405 478 413 c 0
 478 429 463 435 426 437 c 1
 432 461 l 1
 583 461 l 1xa0
EndSplineSet
EndChar

StartChar: w
Encoding: 119 119 88
Width: 720
Flags: W
HStem: -15 21G<222.32 261.219 473.621 510.99> 437 24<122 138.297 302.849 337 393 421.375 573.952 620 671 701.947 770.64 800>
DStem2: 309 294 157 360 0.180962 -0.98349<-106.758 119.852> 330 176 439 296 0.521339 0.85335<0 159.228>
LayerCount: 2
Back
SplineSet
864.004 459.896 m 1
 844.691 454.89 826.096 438.438 808.215 409.829 c 2
 546.439 -16.4502 l 1
 514.253 14.3047 l 1
 465.617 266.782 l 1
 275.365 -16.4502 l 1
 237.457 14.3047 l 1
 156.637 430.57 l 2
 153.774 446.307 142.332 455.604 123.021 458.465 c 1
 130.173 497.804 l 1
 348.319 497.804 l 1
 341.167 458.465 l 1
 306.836 455.604 288.239 447.736 285.378 434.862 c 0
 284.663 429.855 284.663 421.988 285.378 410.544 c 0
 286.81 399.815 288.239 384.081 291.816 364.769 c 1
 326.863 165.219 l 1
 447.021 341.167 l 1
 432.002 430.57 l 1
 431.287 439.154 424.85 446.307 414.121 451.312 c 0
 402.677 456.319 389.803 458.465 376.213 458.465 c 1
 384.081 497.804 l 1
 628.69 497.804 l 1
 620.823 459.896 l 1
 563.605 447.021 l 1
 559.313 442.729 555.021 437.724 552.161 430.57 c 0
 552.161 426.995 555.021 404.822 560.743 364.769 c 2
 590.068 165.219 l 1
 713.088 364.769 l 2
 718.095 372.638 723.102 381.935 727.394 392.663 c 0
 731.686 403.393 734.546 412.689 736.691 420.558 c 0
 742.413 445.591 733.115 458.465 707.366 458.465 c 1
 714.52 497.804 l 1
 871.871 497.804 l 1
 864.004 459.896 l 1
EndSplineSet
Fore
SplineSet
579 180 m 1
 704 393 706 391 706 413 c 0
 706 428 694 434 665 437 c 1
 671 461 l 1
 806 461 l 1
 800 437 l 1
 773 432 762 423 740 387 c 2
 499 -15 l 1
 476 -15 l 1
 439 296 l 1
 249 -15 l 1
 226 -15 l 1
 157 360 l 2
 144 426 141 432 116 437 c 1
 122 461 l 1
 343 461 l 1
 337 437 l 1
 298 433 291 413 291 400 c 0
 291 384 299 353 309 294 c 1
 313 260 322 211 330 176 c 1
 432 347 l 1
 431 366 l 1
 426 432 425 434 387 437 c 1
 393 461 l 1
 625 461 l 1
 620 437 l 1
 573 433 567 427 567 397 c 0
 567 359 579 212 579 180 c 1
EndSplineSet
EndChar

StartChar: x
Encoding: 120 120 89
Width: 499
Flags: W
HStem: 0 23<19 58.1989 147.528 183 248 291.011> 437 24<110 133.281 307.776 354 407 446.782 530.356 570>
LayerCount: 2
Back
SplineSet
549.3 0 m 1
 310.412 0 l 1
 317.564 36.4766 l 1
 353.326 42.1992 l 2
 357.618 44.3447 360.479 48.6357 361.908 55.7881 c 0
 364.054 59.3643 361.908 68.6621 356.187 82.252 c 2
 306.12 194.543 l 1
 210.994 83.6826 l 2
 203.842 75.8145 198.835 68.6621 193.828 62.2256 c 0
 189.538 55.7881 186.676 50.0664 184.531 45.0596 c 0
 182.385 42.1992 185.246 40.0527 192.398 38.623 c 0
 200.266 37.1924 210.279 36.4766 223.868 36.4766 c 1
 216.716 0 l 1
 37.9072 0 l 1
 45.0596 36.4766 l 1
 57.9336 38.623 67.9473 40.7686 74.3848 42.1992 c 0
 81.5371 44.3447 86.543 46.4902 89.4043 48.6357 c 0
 103.709 56.5039 119.444 70.0928 135.895 89.4043 c 2
 285.378 256.055 l 1
 223.868 399.815 l 2
 219.576 410.544 214.569 421.273 209.563 432.002 c 0
 204.557 442.729 197.405 449.168 187.392 451.312 c 2
 142.332 457.035 l 1
 150.914 497.804 l 1
 395.525 497.804 l 1
 386.941 457.035 l 1
 356.187 457.035 341.167 453.458 339.737 445.591 c 0
 336.875 436.294 346.888 406.254 369.061 354.757 c 1
 391.233 379.789 409.114 399.815 421.988 415.551 c 0
 434.862 430.57 442.015 440.584 444.161 445.591 c 0
 444.876 453.458 431.287 457.035 404.107 457.035 c 1
 413.406 497.804 l 1
 605.088 497.804 l 1
 596.506 457.035 l 1
 556.452 457.035 524.981 444.161 502.094 417.696 c 1
 392.663 297.537 l 1
 482.068 96.5566 l 2
 497.804 60.7949 522.121 40.7686 556.452 36.4766 c 1
 549.3 0 l 1
EndSplineSet
Fore
SplineSet
249 171 m 1
 233 153 144 74 144 44 c 0
 144 32 155 26 187 23 c 1
 183 0 l 1
 15 0 l 1
 19 23 l 1
 69 27 93 56 234 201 c 1
 149 398 l 2
 135 428 130 434 104 437 c 1
 110 461 l 1
 360 461 l 1
 354 437 l 1
 322 437 305 432 305 415 c 0
 305 397 329 338 350 303 c 1
 396 353 448 386 448 419 c 0
 448 429 441 434 422 435 c 0
 419 435 410 437 401 437 c 1
 407 461 l 1
 576 461 l 1
 570 437 l 1
 538 432 516 420 492 398 c 1
 365 272 l 1
 463 44 l 1
 469 34 475 29 488 23 c 1
 483 0 l 1
 243 0 l 1
 248 23 l 1
 286 27 297 33 297 48 c 0
 297 62 292 80 278 108 c 1
 249 171 l 1
EndSplineSet
EndChar

StartChar: y
Encoding: 121 121 90
Width: 499
Flags: W
HStem: -205 57<44 142.879> 422 39<114 147.527> 437 24<114 139.131 309.231 359 428 467.654 537.976 573>
VStem: -12 119<-147.562 -93.5351>
DStem2: 204 -66 270 -15 0.500956 0.865473<-94.5155 74.8206 269.785 548.648>
LayerCount: 2
Back
SplineSet
334.014 -10.0137 m 1
 588.638 426.28 l 2
 595.79 439.154 604.373 448.451 615.102 455.604 c 0
 625.83 462.042 637.274 465.617 648.718 465.617 c 1
 658.016 507.101 l 1
 487.79 507.101 l 1
 479.206 465.617 l 1
 497.804 465.617 510.678 463.472 518.545 458.465 c 0
 520.691 456.319 522.121 454.175 522.837 450.598 c 0
 524.267 447.021 524.267 444.161 522.837 442.015 c 2
 374.782 174.518 l 1
 317.564 420.558 l 1
 314.703 429.141 314.703 437.724 316.133 447.021 c 0
 318.994 459.181 341.167 465.617 382.649 465.617 c 1
 391.233 507.101 l 1
 148.053 507.101 l 1
 139.471 465.617 l 1
 166.65 459.896 182.385 451.312 187.392 439.154 c 1
 283.948 27.8945 l 1
 237.457 -51.4971 l 2
 223.868 -74.3848 210.279 -92.2656 196.688 -103.709 c 0
 183.814 -115.868 172.372 -121.59 162.358 -121.59 c 0
 158.781 -121.59 154.491 -120.875 150.199 -118.729 c 0
 145.908 -116.583 141.616 -114.438 138.04 -113.007 c 0
 130.173 -108.716 122.305 -105.854 115.868 -103.709 c 0
 108.716 -102.278 100.848 -100.848 90.835 -100.848 c 0
 68.6621 -100.848 50.0664 -108 36.4766 -122.305 c 0
 22.8877 -136.609 14.3047 -151.63 11.4434 -168.795 c 0
 7.15234 -188.821 10.7285 -205.987 22.8877 -218.861 c 0
 35.0469 -232.45 56.5039 -238.889 87.9736 -238.889 c 0
 160.213 -238.889 242.464 -162.358 334.014 -10.0137 c 1
EndSplineSet
Fore
SplineSet
107 -133 m 0xb0
 107 -142 114 -148 122 -148 c 0
 144 -148 176 -116 204 -66 c 2
 233 -13 l 1
 209 112 150 422 141 422 c 1xd0
 136 431 132 434 108 437 c 1xb0
 114 461 l 1xd0
 365 461 l 1
 359 437 l 1
 329 437 299 431 299 403 c 0
 299 397 300 385 308 352 c 1
 340 167 l 1
 450 359 l 2
 470 394 472 409 472 413 c 0
 472 429 458 435 422 437 c 1
 428 461 l 1
 579 461 l 1
 573 437 l 1
 542 434 529 423 502 382 c 1
 270 -15 l 1
 194 -142 156 -205 69 -205 c 0
 19 -205 -12 -179 -12 -142 c 0
 -12 -91 26 -62 67 -62 c 0
 97 -62 116 -78 116 -101 c 0
 116 -113 107 -130 107 -133 c 0xb0
EndSplineSet
EndChar

StartChar: z
Encoding: 122 122 91
Width: 443
Flags: W
HStem: 0 32<192 323.474> 429 32<211.352 346>
DStem2: 26 25 192 32 0.620902 0.783888<108.557 515.379>
LayerCount: 2
Back
SplineSet
505.671 160.928 m 1
 457.035 0 l 1
 39.3379 0 l 1
 45.0596 29.3242 l 1
 399.815 439.154 l 1
 278.226 439.154 l 2
 250.331 439.154 229.59 430.57 216.001 413.406 c 0
 203.127 395.525 192.398 373.353 184.531 346.888 c 1
 134.464 346.888 l 1
 173.087 497.804 l 1
 562.174 497.804 l 1
 556.452 465.617 l 1
 199.55 57.2188 l 1
 317.564 57.2188 l 2
 357.618 57.2188 388.373 65.0859 408.399 82.252 c 0
 429.141 98.7021 447.736 129.457 464.188 174.518 c 1
 505.671 160.928 l 1
EndSplineSet
Fore
SplineSet
221 32 m 2
 306 32 366 44 426 160 c 1
 454 160 l 1
 404 0 l 1
 21 0 l 1
 26 25 l 1
 346 429 l 1
 330 429 l 2
 204 429 176 410 132 319 c 1
 105 319 l 1
 144 461 l 1
 514 461 l 1
 508 435 l 1
 192 32 l 1
 221 32 l 2
EndSplineSet
EndChar

StartChar: braceleft
Encoding: 123 123 92
Width: 392
Flags: W
HStem: -174 11<286.816 303> 686 13<459.842 485>
VStem: 116 104<-134.853 33.75> 164 104<61.0156 232.375>
DStem2: 92.2421 -174 197.517 -174 0.207912 0.978148<117.148 365.523 506.184 836.335>
LayerCount: 2
Back
SplineSet
256.055 -177.379 m 1
 225.3 -177.379 198.835 -175.232 178.094 -171.657 c 0
 156.637 -167.365 140.901 -160.213 130.173 -149.484 c 0
 105.14 -125.881 97.9873 -84.3975 110.146 -25.0332 c 1
 146.624 148.053 l 2
 153.06 179.524 150.914 202.412 138.756 218.146 c 0
 125.881 233.882 100.133 248.187 60.0801 262.49 c 1
 103.709 273.936 135.895 288.239 155.921 304.69 c 0
 175.947 321.14 188.821 344.027 194.543 373.353 c 1
 233.167 552.161 l 1
 239.604 581.486 248.901 606.518 260.345 626.545 c 0
 271.074 646.571 286.81 662.307 306.12 673.751 c 0
 334.73 693.062 380.505 703.074 444.161 703.074 c 1
 436.294 668.029 l 1
 402.677 660.162 377.643 648.003 362.624 631.552 c 0
 347.604 614.387 336.16 590.068 329.724 556.453 c 2
 294.677 389.803 l 1
 285.378 350.465 273.219 319.71 257.484 297.537 c 1
 243.181 281.088 226.015 268.929 206.702 262.49 c 1
 228.16 249.616 241.034 233.882 244.61 216.001 c 0
 248.187 198.12 246.756 170.226 238.889 133.033 c 2
 205.272 -30.7549 l 1
 197.405 -63.6562 197.405 -88.6895 206.702 -104.424 c 0
 215.286 -120.875 234.597 -133.749 263.922 -143.762 c 1
 256.055 -177.379 l 1
EndSplineSet
Fore
SplineSet
122 -34 m 2xe0
 160 145 l 2
 163 160 164 173 164 185 c 0
 164 226 141 245 78 261 c 1
 167 283 193 306 209 376 c 2
 248 557 l 1
 276 693 385 697 488 699 c 1
 485 686 l 1
 403 669 371 639 354 562 c 2
 318 391 l 2
 300 308 270 281 171 261 c 1
 242 246 268 227 268 179 c 0xd0
 268 164 267 149 262 130 c 2
 226 -40 l 2
 223 -56 220 -69 220 -82 c 0
 220 -127 246 -149 305 -163 c 1
 303 -174 l 1
 182 -174 116 -155 116 -78 c 0
 116 -64 119 -50 122 -34 c 2xe0
EndSplineSet
EndChar

StartChar: bar
Encoding: 124 124 93
Width: 219
Flags: W
HStem: -19 21G<62 153.254> 671 20G<207.775 300>
VStem: 62 238
DStem2: 62 -19 149 -19 0.207912 0.978148<18.0883 725.672>
LayerCount: 2
Back
SplineSet
32.1855 -171.657 m 1
 -19.3115 -171.657 l 1
 165.219 698.784 l 1
 216.716 698.784 l 1
 32.1855 -171.657 l 1
EndSplineSet
Fore
SplineSet
62 -19 m 1
 212 691 l 1
 300 691 l 1
 149 -19 l 1
 62 -19 l 1
EndSplineSet
EndChar

StartChar: braceright
Encoding: 125 125 94
Width: 392
Flags: W
HStem: -174 11<19 40.9871> 686 13<202 218.262>
VStem: 237 104<292.866 456.344> 286 102<490.289 656.753>
DStem2: 122.517 -174 228.242 -174 0.207912 0.978148<72.6253 406.202 546.788 795.37>
LayerCount: 2
Back
SplineSet
316.133 248.901 m 1
 288.239 241.034 267.497 230.306 253.908 215.286 c 0
 241.034 200.98 231.021 178.094 223.868 148.053 c 1
 187.392 -25.0332 l 1
 175.947 -82.252 152.345 -123.735 117.299 -149.484 c 0
 103.709 -159.498 85.1133 -165.934 61.5098 -170.94 c 0
 37.9072 -175.232 10.0137 -177.379 -22.1719 -177.379 c 1
 -14.3047 -143.762 l 1
 45.7754 -128.027 82.252 -90.1191 95.126 -30.7549 c 1
 128.742 133.033 l 1
 138.04 173.087 149.484 203.127 163.788 222.438 c 2
 162.358 221.008 l 2
 174.518 237.457 191.683 251.048 213.854 261.062 c 1
 193.113 272.504 181.669 287.524 178.094 306.836 c 0
 174.518 326.146 176.662 353.326 184.531 389.803 c 2
 219.576 556.453 l 2
 226.729 588.637 225.3 613.671 216.716 630.837 c 0
 208.134 648.003 188.821 660.162 158.066 668.029 c 1
 165.219 703.074 l 1
 231.735 703.074 274.65 693.062 294.677 673.751 c 0
 317.564 651.578 323.286 610.095 310.412 550.731 c 2
 272.504 373.353 l 2
 261.775 321.856 278.226 288.239 322.571 273.936 c 1
 316.133 248.901 l 1
EndSplineSet
Fore
SplineSet
151 -40 m 2xe0
 187 132 l 2
 205 215 236 242 334 262 c 1
 264 278 237 297 237 346 c 0xe0
 237 359 239 374 243 393 c 2
 280 562 l 2
 283 579 286 592 286 605 c 0
 286 650 259 672 199 686 c 1
 202 699 l 1
 320 697 388 682 388 599 c 0xd0
 388 587 387 573 384 557 c 2
 346 378 l 2
 343 363 341 350 341 338 c 0
 341 297 365 278 428 262 c 1
 338 242 311 217 296 146 c 2
 258 -34 l 2
 230 -162 143 -174 18 -174 c 1
 19 -163 l 1
 103 -146 135 -116 151 -40 c 2xe0
EndSplineSet
EndChar

StartChar: asciitilde
Encoding: 126 126 95
Width: 520
Flags: W
HStem: 174 90<357.213 474.313> 243 88<147.072 283.911>
LayerCount: 2
Back
SplineSet
560.743 247.471 m 1
 519.975 209.563 l 1
 493.512 188.821 l 2
 469.193 171.657 440.584 162.358 406.969 162.358 c 0
 395.525 162.358 381.22 164.504 364.054 169.511 c 0
 346.888 173.802 326.863 180.954 304.69 191.683 c 0
 266.782 210.279 234.597 219.576 209.563 219.576 c 0
 185.246 219.576 153.06 195.975 114.438 148.053 c 1
 75.8145 212.426 l 1
 122.305 270.358 173.087 298.969 230.306 298.969 c 0
 255.338 298.969 290.385 288.239 334.014 268.212 c 0
 353.326 258.915 371.207 252.478 386.941 248.187 c 0
 402.677 243.896 414.836 241.034 424.85 240.318 c 0
 447.021 240.318 479.923 263.922 522.837 311.843 c 1
 560.743 247.471 l 1
EndSplineSet
Fore
SplineSet
223 331 m 0x40
 301 331 371 264 423 264 c 0
 447 264 470 275 502 308 c 1
 546 261 l 1
 486 196 451 174 404 174 c 0x80
 323 174 293 243 202 243 c 0
 173 243 155 233 125 201 c 1
 82 248 l 1
 127 306 170 331 223 331 c 0x40
EndSplineSet
EndChar

StartChar: uni0E10.descless
Encoding: 63232 63232 96
Width: 536
Flags: W
HStem: 0 21G<270 382.286> 151 45<169.172 232.854> 294 46<180.999 263.34> 400 54<211 282.139> 451 68<427.394 504.55> 488 88<241.767 368.848> 548 20G<516.5 583>
VStem: 130 38<197.861 280.58> 333 111<294.003 360.245>
LayerCount: 2
Back
SplineSet
432.002 288.239 m 2
 437.724 314.703 435.577 338.306 425.563 359.762 c 0
 415.551 380.505 399.101 398.386 376.213 413.406 c 0
 359.048 424.85 338.306 433.432 315.418 437.724 c 0
 292.531 442.729 266.782 445.591 238.889 445.591 c 2
 206.702 445.591 l 1
 226.015 467.049 253.908 477.776 290.385 477.776 c 0
 293.962 477.776 299.684 476.346 308.266 473.485 c 0
 316.85 469.909 326.863 467.049 338.306 462.757 c 0
 354.041 457.75 370.492 453.458 387.656 449.168 c 0
 404.822 444.876 417.696 442.015 427.71 442.015 c 0
 486.359 442.015 534.28 480.638 571.473 556.453 c 1
 515.685 556.453 l 1
 505.671 542.862 496.372 531.419 487.79 522.121 c 0
 479.206 512.823 469.193 508.531 458.465 508.531 c 0
 453.458 508.531 446.307 511.393 437.009 517.114 c 0
 427.71 522.837 419.128 528.559 409.829 534.995 c 2
 389.803 546.439 l 2
 376.928 554.307 364.054 559.313 351.895 560.743 c 0
 339.021 562.889 325.432 563.605 311.843 563.605 c 0
 291.816 563.605 271.074 559.313 250.331 550.015 c 0
 230.306 540.718 210.994 528.559 193.113 512.823 c 0
 175.947 497.087 160.213 478.491 146.624 457.75 c 0
 133.033 437.009 121.59 414.836 113.007 391.233 c 1
 182.385 391.233 233.882 385.512 268.212 374.782 c 0
 311.843 360.479 331.153 331.868 325.432 288.239 c 1
 306.836 317.564 277.511 332.584 237.457 332.584 c 0
 206.702 332.584 183.1 324.001 165.219 306.12 c 0
 148.053 288.239 135.895 266.067 130.173 238.889 c 0
 125.166 218.146 128.027 198.12 136.609 178.094 c 0
 145.908 158.066 160.928 148.053 181.669 148.053 c 0
 200.98 148.053 219.576 155.206 236.027 170.226 c 0
 252.478 184.531 263.922 202.412 271.074 222.438 c 1
 278.941 198.12 282.518 168.08 281.088 131.604 c 0
 280.371 95.8418 274.65 51.4971 263.922 0 c 1
 370.492 0 l 1
 432.002 288.239 l 2
166.65 240.318 m 0
 170.226 253.908 175.232 265.352 183.814 274.65 c 0
 192.398 283.948 201.695 288.239 212.426 288.239 c 0
 223.153 288.239 231.021 283.948 236.027 274.65 c 0
 241.034 265.352 241.749 253.908 238.889 240.318 c 0
 236.027 226.729 230.306 215.286 221.008 205.987 c 0
 212.426 196.688 202.412 191.683 191.683 191.683 c 0
 180.954 191.683 173.802 196.688 169.511 205.987 c 0
 164.504 215.286 163.788 226.729 166.65 240.318 c 0
EndSplineSet
Fore
SplineSet
437 451 m 0xeb80
 402 451 308 488 297 488 c 0
 259 488 231 478 211 454 c 1
 243 454 l 2
 302 454 350 445 384 422 c 1
 422 398 444 363 444 322 c 0
 444 313 442 305 441 294 c 1
 378 0 l 1
 270 0 l 1
 281 59 287 107 287 148 c 0
 287 180 284 205 277 227 c 1
 264 186 227 151 186 151 c 0
 151 151 130 187 130 224 c 0
 130 264 160 340 242 340 c 0
 283 340 312 325 333 294 c 1
 333 306 l 2
 333 362 296 400 114 400 c 1
 148 495 236 576 319 576 c 0xf580
 347 576 374 574 398 558 c 2
 417 546 l 1
 439 535 457 519 467 519 c 0
 489 519 507 541 526 568 c 1
 583 568 l 1
 545 491 497 451 437 451 c 0xeb80
217 294 m 0
 192 294 168 269 168 229 c 0
 168 209 177 196 195 196 c 0
 221 196 245 221 245 261 c 0
 245 281 234 294 217 294 c 0
EndSplineSet
EndChar

StartChar: uni0E34.left
Encoding: 63233 63233 97
Width: 0
Flags: W
HStem: 665 60<-361.985 -191.253> 762 71<-357.998 -204.036>
VStem: -470 108<703 752.086>
LayerCount: 2
Back
SplineSet
-300 724 m 4
 -233 724 -183 710 -139 688 c 5
 -161 724 -207 762 -262 762 c 4
 -290 762 -334 757 -340 732 c 6
 -340 731 l 6
 -340 725 -327 724 -313 724 c 4
 -300 724 l 4
-97 599 m 5
 -125 623 -167 639 -212 650 c 4
 -240 658 -274 665 -308 665 c 6
 -334 665 l 6
 -344 665 -353 665 -362 664 c 4
 -398 664 -417 666 -431 681 c 4
 -439 687 -445 702 -445 713 c 6
 -445 719 l 6
 -438 754 -394 795 -363 809 c 5
 -330 826 -294 833 -253 833 c 4
 -164 833 -69 756 -69 650 c 4
 -69 637 -70 623 -73 609 c 5
 -97 599 l 5
-205.272 698.784 m 0
 -191.683 694.492 -179.524 690.917 -168.795 687.34 c 0
 -158.066 683.05 -146.624 678.758 -135.895 673.751 c 1
 -146.624 691.632 -163.073 708.081 -184.531 723.102 c 0
 -205.987 738.121 -230.306 745.274 -257.484 745.274 c 0
 -271.789 745.274 -286.81 743.843 -303.259 740.268 c 0
 -319.71 736.691 -329.724 729.539 -332.584 718.095 c 0
 -333.299 713.088 -329.724 710.228 -321.14 709.513 c 0
 -311.843 709.513 -303.259 708.798 -294.677 708.798 c 0
 -274.65 708.798 -258.915 708.081 -246.041 705.937 c 0
 -233.167 703.791 -219.576 701.646 -205.272 698.784 c 0
-95.126 587.208 m 1
 -108.716 597.936 -125.166 607.949 -145.192 615.816 c 0
 -164.504 624.4 -185.246 631.552 -208.134 637.274 c 0
 -221.723 640.85 -236.742 644.426 -252.478 647.288 c 0
 -268.929 650.148 -285.378 651.578 -301.829 651.578 c 0
 -309.697 651.578 -318.279 651.578 -328.292 651.578 c 0
 -337.591 651.578 -346.888 651.578 -354.757 650.148 c 0
 -371.922 650.148 -386.227 651.578 -396.24 653.01 c 0
 -406.254 655.155 -414.836 659.445 -421.988 666.599 c 0
 -426.995 670.176 -430.57 675.896 -434.147 683.05 c 0
 -437.724 690.917 -438.438 698.068 -436.294 704.506 c 0
 -432.717 720.957 -421.273 738.121 -403.393 755.287 c 0
 -385.512 772.453 -369.061 784.613 -354.757 792.48 c 0
 -323.286 808.215 -288.239 816.083 -248.901 816.083 c 0
 -224.583 816.083 -200.266 810.361 -175.947 798.916 c 0
 -151.63 787.474 -130.173 772.453 -113.007 753.142 c 0
 -95.126 733.115 -82.252 710.228 -72.9541 683.05 c 0
 -64.3711 656.585 -63.6562 627.261 -70.0928 596.506 c 1
 -95.126 587.208 l 1
EndSplineSet
Fore
Refer: 180 3636 N 1 0 0 1 -98 0 2
EndChar

StartChar: uni0E35.left
Encoding: 63234 63234 98
Width: 0
Flags: W
HStem: 677 60<-358.991 -195.375> 775 72<-353.5 -202.075>
VStem: -467 108<708.5 764.433>
LayerCount: 2
Back
SplineSet
-359 677 m 4
 -413 677 -442 689 -442 727 c 6
 -442 732 l 6
 -435 768 -391 807 -359 825 c 4
 -327 841 -291 848 -250 848 c 4
 -207 848 -168 832 -133 806 c 5
 -114 896 l 5
 -32 896 l 5
 -72 710 l 5
 -67 699 -66 684 -66 669 c 4
 -66 649 -69 624 -76 595 c 5
 -116 627 -166 649 -209 662 c 4
 -237 669 -272 678 -306 678 c 6
 -333 678 l 6
 -343 678 -352 678 -359 677 c 4
-297 737 m 4
 -229 737 -178 724 -136 700 c 5
 -158 737 -204 776 -259 776 c 4
 -287 776 -331 770 -337 747 c 6
 -337 746 l 6
 -337 738 -324 737 -309 737 c 4
 -305 737 -302 737 -297 737 c 4
-32.1855 877.593 m 1
 -113.007 877.593 l 1
 -130.173 789.618 l 1
 -146.624 802.493 -164.504 812.507 -183.814 819.658 c 0
 -203.127 826.811 -223.153 830.388 -244.61 830.388 c 0
 -284.663 830.388 -320.425 822.519 -351.895 806.784 c 0
 -359.048 803.209 -367.631 797.487 -375.499 791.049 c 0
 -384.081 783.896 -392.663 776.744 -400.532 768.876 c 0
 -409.114 761.009 -416.267 753.142 -421.988 743.843 c 0
 -427.71 735.261 -431.287 726.679 -433.432 718.095 c 0
 -435.577 710.943 -434.862 703.791 -432.002 695.924 c 0
 -429.141 688.056 -425.564 682.333 -420.558 678.043 c 0
 -412.689 671.604 -403.393 667.313 -393.379 665.169 c 0
 -383.366 663.022 -369.061 662.307 -351.895 662.307 c 0
 -344.027 663.022 -334.73 663.737 -325.432 663.737 c 0
 -316.133 663.737 -308.266 663.737 -300.398 663.737 c 0
 -283.948 663.737 -266.782 662.307 -250.331 659.445 c 0
 -233.882 656.585 -218.861 653.01 -205.272 648.718 c 0
 -184.531 642.281 -162.358 632.982 -138.756 622.254 c 0
 -114.438 611.524 -92.9805 598.65 -72.9541 582.916 c 1
 -68.6621 607.234 -65.0859 628.69 -64.3711 646.571 c 0
 -63.6562 664.452 -65.0859 680.903 -70.0928 695.924 c 1
 -32.1855 877.593 l 1
-202.412 711.658 m 0
 -216.716 714.52 -230.306 717.38 -243.181 719.525 c 0
 -256.055 720.957 -271.789 722.387 -291.816 722.387 c 0
 -300.398 722.387 -308.982 722.387 -317.564 723.102 c 0
 -326.863 723.102 -330.438 725.962 -329.724 730.969 c 0
 -327.577 742.413 -318.279 750.281 -301.113 754.572 c 0
 -283.948 758.148 -268.212 760.294 -254.623 760.294 c 0
 -227.444 760.294 -203.127 752.427 -182.385 736.691 c 0
 -161.644 720.957 -145.192 703.791 -134.464 685.194 c 1
 -144.478 691.632 -154.491 695.924 -165.219 700.214 c 0
 -175.947 703.791 -188.821 708.081 -202.412 711.658 c 0
EndSplineSet
Fore
Refer: 181 3637 N 1 0 0 1 -98 0 2
EndChar

StartChar: uni0E36.left
Encoding: 63235 63235 99
Width: 0
Flags: W
HStem: 678 62<-356.985 -187.812> 778 72<-353.235 -202.943> 845 60<-145.402 -90.9707>
VStem: -467 110<703 768.379> -90 63<791.774 844.868>
LayerCount: 2
Back
SplineSet
-359 677 m 4xb0
 -413 677 -442 689 -442 727 c 6
 -442 732 l 6
 -435 768 -391 807 -359 825 c 4
 -327 841 -291 848 -250 848 c 4xd0
 -233 848 -215 845 -198 839 c 5
 -177 873 -139 896 -101 896 c 4
 -59 896 -29 866 -29 825 c 4
 -29 819 -29 813 -31 807 c 4
 -37 779 -53 756 -81 737 c 5
 -70 715 -66 691 -66 666 c 4
 -66 652 -67 636 -70 620 c 5
 -94 611 l 5
 -122 633 -166 649 -209 662 c 4
 -237 669 -272 678 -306 678 c 6
 -333 678 l 6
 -343 678 -352 678 -359 677 c 4xb0
-297 737 m 4
 -229 737 -178 724 -136 700 c 5
 -158 737 -204 776 -259 776 c 4
 -287 776 -331 770 -337 747 c 6
 -337 746 l 6
 -337 738 -324 737 -309 737 c 4
 -305 737 -302 737 -297 737 c 4
-126 779 m 4
 -107 779 -92 795 -92 817 c 4
 -92 829 -100 838 -113 838 c 4xb0
 -129 838 -145 825 -149 807 c 6
 -149 801 l 6
 -149 788 -141 779 -126 779 c 4
-68.6621 606.518 m 1
 -60.0801 650.148 -63.6562 688.771 -79.3906 722.387 c 1
 -66.5166 730.254 -55.7881 740.268 -47.2051 752.427 c 0
 -37.9072 764.586 -32.1855 777.46 -29.3242 791.049 c 0
 -24.3184 814.651 -29.3242 834.678 -42.9141 851.844 c 0
 -57.2188 869.01 -75.8145 877.593 -99.418 877.593 c 0
 -118.014 877.593 -135.895 872.586 -153.06 861.857 c 0
 -170.226 851.844 -183.814 838.255 -194.543 821.804 c 1
 -211.709 827.525 -228.16 830.388 -244.61 830.388 c 0
 -284.663 830.388 -320.425 822.519 -351.895 806.784 c 0
 -359.048 803.209 -367.631 797.487 -375.499 791.049 c 0
 -384.081 783.896 -392.663 776.744 -400.532 768.876 c 0
 -409.114 761.009 -416.267 753.142 -421.988 743.843 c 0
 -427.71 735.261 -431.287 726.679 -433.432 718.095 c 0
 -435.577 710.943 -434.862 703.791 -432.002 695.924 c 0
 -429.141 688.056 -425.564 682.333 -420.558 678.043 c 0
 -412.689 671.604 -403.393 667.313 -393.379 665.169 c 0
 -383.366 663.022 -369.061 662.307 -351.895 662.307 c 0
 -344.027 663.022 -334.73 663.737 -325.432 663.737 c 0
 -316.133 663.737 -308.266 663.737 -300.398 663.737 c 0
 -283.948 663.737 -266.782 662.307 -250.331 659.445 c 0
 -233.882 656.585 -218.861 653.01 -205.272 648.718 c 0
 -183.814 642.281 -163.073 634.412 -143.047 626.545 c 0
 -123.021 617.963 -105.854 608.664 -92.2656 597.936 c 1
 -68.6621 606.518 l 1
-202.412 711.658 m 0
 -216.716 714.52 -230.306 717.38 -243.181 719.525 c 0
 -256.055 720.957 -271.789 722.387 -291.816 722.387 c 0
 -300.398 722.387 -308.982 722.387 -317.564 723.102 c 0
 -326.863 723.102 -330.438 725.962 -329.724 730.969 c 0
 -327.577 742.413 -318.279 750.281 -301.113 754.572 c 0
 -283.948 758.148 -268.212 760.294 -254.623 760.294 c 0
 -227.444 760.294 -203.127 752.427 -182.385 736.691 c 0
 -161.644 720.957 -145.192 703.791 -134.464 685.194 c 1
 -144.478 691.632 -154.491 695.924 -165.219 700.214 c 0
 -175.947 703.791 -188.821 708.081 -202.412 711.658 c 0
-145.192 791.049 m 0
 -143.047 798.916 -138.756 805.354 -132.318 811.791 c 0
 -125.881 817.512 -119.444 820.374 -111.576 820.374 c 0
 -103.709 820.374 -97.9873 817.512 -93.6953 811.791 c 0
 -90.1191 805.354 -88.6895 798.916 -90.835 791.049 c 0
 -95.8418 772.453 -106.57 763.155 -123.021 763.155 c 0
 -130.888 763.155 -136.609 766.016 -141.616 771.022 c 0
 -145.908 776.744 -146.624 783.182 -145.192 791.049 c 0
EndSplineSet
Fore
Refer: 182 3638 N 1 0 0 1 -98 0 2
EndChar

StartChar: uni0E37.left
Encoding: 63236 63236 100
Width: 0
Flags: W
HStem: 678 60<-356.99 -196.775> 776 72<-354.23 -214.224>
VStem: -467 110<710.5 766.209>
DStem2: -168.874 595 -98.8063 595 0.207912 0.978148<201.401 307.703>
LayerCount: 2
Back
SplineSet
-359 677 m 4
 -410 677 -442 689 -442 727 c 6
 -442 732 l 6
 -435 768 -391 807 -359 825 c 4
 -331 838 -300 850 -268 850 c 4
 -262 850 -256 848 -250 848 c 6
 -227 847 l 5
 -205 842 l 5
 -193 896 l 5
 -127 896 l 5
 -145 814 l 5
 -133 805 -130 802 -120 792 c 5
 -98 896 l 5
 -32 896 l 5
 -72 710 l 5
 -67 699 -66 684 -66 669 c 4
 -66 649 -69 624 -76 595 c 5
 -116 627 -166 649 -209 662 c 4
 -237 669 -272 678 -306 678 c 4
 -324 678 -343 677 -359 677 c 4
-297 737 m 4
 -229 737 -178 724 -136 700 c 5
 -158 737 -204 776 -259 776 c 4
 -287 776 -331 770 -337 747 c 6
 -337 746 l 6
 -337 738 -324 737 -309 737 c 4
 -305 737 -302 737 -297 737 c 4
-244.61 830.388 m 2
 -263.922 832.532 -283.232 831.103 -301.829 826.096 c 0
 -320.425 821.089 -336.875 814.651 -351.895 806.784 c 0
 -359.048 803.209 -367.631 797.487 -375.499 791.049 c 0
 -384.081 783.896 -392.663 776.744 -400.532 768.876 c 0
 -409.114 761.009 -416.267 753.142 -421.988 743.843 c 0
 -427.71 735.261 -431.287 726.679 -433.432 718.095 c 0
 -435.577 710.943 -434.862 703.791 -432.002 695.924 c 0
 -429.141 688.056 -425.564 682.333 -420.558 678.043 c 0
 -412.689 672.319 -403.393 668.029 -393.379 665.884 c 0
 -383.366 663.022 -369.061 662.307 -351.895 662.307 c 0
 -344.027 662.307 -335.445 662.307 -326.146 663.022 c 0
 -316.85 663.022 -308.266 663.737 -300.398 663.737 c 0
 -283.948 663.737 -266.782 662.307 -250.331 659.445 c 0
 -233.882 656.585 -218.861 653.01 -205.272 648.718 c 0
 -184.531 642.281 -162.358 632.982 -138.756 622.254 c 0
 -114.438 611.524 -92.9805 598.65 -72.9541 582.916 c 1
 -68.6621 607.234 -65.0859 628.69 -64.3711 646.571 c 0
 -63.6562 664.452 -65.0859 680.903 -70.0928 695.924 c 1
 -32.1855 877.593 l 1
 -96.5566 877.593 l 1
 -117.299 776.029 l 1
 -131.604 789.618 l 2
 -133.749 791.764 -135.18 793.195 -136.609 793.91 c 0
 -138.756 794.625 -140.186 796.056 -142.332 798.202 c 1
 -125.881 877.593 l 1
 -190.253 877.593 l 1
 -200.98 824.665 l 1
 -222.438 828.957 l 1
 -244.61 830.388 l 2
-202.412 711.658 m 0
 -216.716 715.95 -230.306 718.811 -243.181 720.24 c 0
 -256.055 721.672 -271.789 722.387 -291.816 722.387 c 0
 -300.398 722.387 -308.982 722.387 -317.564 723.102 c 0
 -326.863 723.102 -330.438 725.962 -329.724 730.969 c 0
 -327.577 742.413 -318.279 750.281 -301.113 754.572 c 0
 -283.948 758.148 -268.212 760.294 -254.623 760.294 c 0
 -227.444 760.294 -203.127 752.427 -182.385 736.691 c 0
 -161.644 720.957 -145.192 703.791 -134.464 685.194 c 1
 -144.478 691.632 -154.491 695.924 -165.219 700.214 c 0
 -175.947 703.791 -188.821 708.081 -202.412 711.658 c 0
EndSplineSet
Fore
Refer: 183 3639 N 1 0 0 1 -98 0 2
EndChar

StartChar: ellipsis
Encoding: 8230 8230 101
Width: 998
Flags: W
HStem: -13 170<140.83 223.76 472.851 557.76 807.088 890.638>
VStem: 95 172<29.6865 112.559> 428 173<30.0984 112.843> 762 171<28.1609 113.286>
LayerCount: 2
Back
SplineSet
462.757 47.2051 m 0
 456.319 15.7354 429.855 -2.86133 385.512 -8.58301 c 1
 342.598 -8.58301 322.571 9.29785 326.863 45.0596 c 0
 333.299 84.3975 360.479 103.709 406.969 103.709 c 0
 426.995 103.709 442.015 97.9873 454.175 86.543 c 0
 462.757 75.8145 465.617 62.2256 462.757 47.2051 c 0
676.611 47.2051 m 1
 670.175 15.7354 643.711 -2.86133 597.936 -8.58301 c 1
 555.737 -8.58301 536.426 9.29785 540.718 45.0596 c 0
 547.154 84.3975 573.618 103.709 619.394 103.709 c 0
 639.419 103.709 655.155 97.9873 668.029 86.543 c 1
 674.466 75.8145 678.043 62.2256 676.611 47.2051 c 1
250.331 47.2051 m 0
 241.749 10.0137 214.569 -8.58301 170.226 -8.58301 c 0
 123.735 -8.58301 105.14 10.0137 114.438 47.2051 c 0
 122.305 85.1133 148.768 103.709 193.113 103.709 c 0
 239.604 103.709 258.2 85.1133 250.331 47.2051 c 0
EndSplineSet
Fore
SplineSet
95 53 m 0
 95 110 151 157 199 157 c 0
 240 157 267 127 267 89 c 0
 267 32 214 -13 163 -13 c 0
 122 -13 95 15 95 53 c 0
428 53 m 0
 428 119 491 157 533 157 c 0
 574 157 601 127 601 89 c 0
 601 33 549 -13 495 -13 c 0
 454 -13 428 15 428 53 c 0
762 53 m 0
 762 120 826 157 866 157 c 0
 907 157 933 127 933 89 c 0
 933 23 873 -13 828 -13 c 0
 787 -13 762 15 762 53 c 0
EndSplineSet
EndChar

StartChar: uni0E48.low_left
Encoding: 63237 63237 102
Width: 0
Flags: W
HStem: 625 228<-127 -97.1984>
VStem: -157 121
LayerCount: 2
Back
SplineSet
-48 867 m 5
 -66 796 -87 728 -110 662 c 4
 -114 650 -133 640 -144 640 c 4
 -157 640 -168 649 -168 661 c 4
 -168 700 -157 736 -157 775 c 5
 -139 867 l 5
 -48 867 l 5
-48.6357 849.698 m 1
 -71.5234 757.434 l 1
 -107.285 648.718 l 2
 -108.716 642.996 -113.723 637.989 -121.59 633.697 c 0
 -129.457 629.407 -135.895 627.261 -140.901 627.261 c 0
 -147.338 627.261 -153.774 629.407 -158.781 633.697 c 0
 -164.504 637.989 -166.65 642.996 -165.219 648.718 c 1
 -152.345 758.863 l 1
 -135.895 849.698 l 1
 -48.6357 849.698 l 1
EndSplineSet
Fore
Refer: 107 63242 N 1 0 0 1 -98 0 2
EndChar

StartChar: uni0E49.low_left
Encoding: 63238 63238 103
Width: 0
Flags: W
HStem: 627 48<-327 -264.891> 627 105<-256.183 -213.776> 826 37<-241.252 -201.226>
VStem: -302 45<732.522 816.038> -200 47<739.397 825.805> -63 92<795.962 863>
LayerCount: 2
Back
SplineSet
-19 863 m 5
 -35 784 -73 724 -135 683 c 4
 -186 647 -237 627 -299 627 c 6
 -385 627 l 5
 -375 675 l 5
 -352 677 -331 684 -312 697 c 5
 -338 703 -350 721 -350 750 c 4
 -350 759 -350 769 -347 781 c 4
 -338 822 -302 863 -259 863 c 4
 -226 863 -202 835 -202 800 c 4
 -202 794 -202 788 -204 782 c 4
 -212 741 -230 710 -256 686 c 5
 -223 691 -196 706 -174 731 c 5
 -145 760 -123 804 -111 863 c 5
 -19 863 l 5
-265 826 m 4
 -284 826 -305 798 -305 763 c 4
 -305 746 -297 732 -286 732 c 4
 -265 732 -248 773 -248 800 c 4
 -248 814 -253 826 -265 826 c 4
-17.8809 845.406 m 1
 -108.716 845.406 l 1
 -120.875 787.474 -141.616 744.56 -170.226 715.95 c 1
 -191.683 691.632 -218.146 676.611 -250.331 670.891 c 1
 -226.015 693.062 -209.563 725.247 -200.98 766.016 c 0
 -195.975 786.757 -198.835 804.638 -208.849 821.089 c 0
 -218.861 836.824 -233.882 845.406 -253.193 845.406 c 0
 -273.936 845.406 -292.531 836.824 -308.266 819.658 c 0
 -324.717 802.493 -334.73 783.896 -339.737 764.586 c 0
 -350.465 718.095 -339.021 690.2 -306.12 682.333 c 1
 -324.001 670.176 -344.027 662.307 -367.631 660.877 c 1
 -377.643 613.671 l 1
 -293.246 613.671 l 2
 -262.49 613.671 -234.597 618.678 -208.849 628.69 c 0
 -183.1 637.989 -157.352 651.578 -131.604 668.029 c 0
 -72.9541 708.081 -35.0469 766.732 -17.8809 845.406 c 1
-296.106 763.155 m 0
 -293.962 776.029 -289.67 786.757 -282.518 795.341 c 0
 -276.081 803.923 -268.212 808.215 -261.062 808.215 c 0
 -253.193 808.215 -247.471 803.923 -245.324 795.341 c 0
 -243.181 786.757 -242.464 776.029 -244.61 763.155 c 0
 -247.471 750.281 -252.478 739.553 -258.2 730.969 c 0
 -264.637 722.387 -271.789 718.095 -279.656 718.095 c 0
 -287.524 718.095 -293.246 722.387 -296.106 730.969 c 0
 -298.969 739.553 -298.969 750.281 -296.106 763.155 c 0
EndSplineSet
Fore
Refer: 108 63243 N 1 0 0 1 -98 0 2
EndChar

StartChar: uni0E4A.low_left
Encoding: 63239 63239 104
Width: 0
Flags: W
HStem: 617 47<-241 -196.636> 620 36<-368.302 -322.115> 768 54<-288.727 -261.956 -205.978 -165.45>
VStem: -413 44<656.019 723.679> -314 47<659.332 728.774> -264 47<710 735.625> -165 66<718.117 767.779>
LayerCount: 2
Back
SplineSet
-291 721 m 4
 -291 672 -323 620 -381 620 c 4
 -416 620 -437 649 -437 683 c 4
 -437 717 -426 738 -409 762 c 4
 -387 791 -353 822 -302 822 c 4
 -281 822 -265 813 -252 797 c 5
 -237 810 -218 822 -199 822 c 4
 -149 822 -123 798 -123 756 c 4
 -123 751 -125 746 -125 741 c 4
 -119 768 -114 796 -110 825 c 5
 -21 825 l 5
 -51 686 -136 617 -275 617 c 5
 -265 664 l 5
 -231 671 -196 700 -190 728 c 4
 -189 734 -189 738 -189 743 c 4
 -189 759 -195 768 -208 768 c 4
 -223 768 -234 749 -243 710 c 5
 -289 710 l 5
 -286 721 -286 728 -286 735 c 4
 -286 757 -294 768 -313 768 c 5
 -299 760 -291 746 -291 721 c 4
-356 729 m 4
 -375 729 -394 709 -394 681 c 4
 -394 665 -385 656 -372 656 c 4
 -353 656 -338 678 -338 707 c 4
 -338 721 -344 729 -356 729 c 4
-20.7422 806.784 m 1
 -108.716 806.784 l 1
 -113.007 768.876 l 1
 -123.021 726.679 l 1
 -115.152 778.175 -139.471 803.923 -194.543 803.923 c 0
 -203.842 803.923 -212.426 801.777 -221.723 797.487 c 0
 -231.021 793.195 -239.604 787.474 -247.471 781.036 c 1
 -253.193 788.903 -260.345 794.625 -267.497 798.202 c 0
 -274.65 802.493 -283.948 803.923 -294.677 803.923 c 0
 -319.71 803.923 -341.167 798.202 -359.048 786.042 c 0
 -376.213 773.883 -390.519 760.294 -401.247 745.274 c 0
 -409.114 735.976 -414.836 725.962 -419.128 715.95 c 0
 -422.703 706.651 -425.564 695.924 -427.71 685.194 c 0
 -431.287 665.884 -428.425 648.003 -418.413 631.552 c 0
 -407.684 614.387 -393.379 606.518 -373.353 606.518 c 0
 -348.319 606.518 -328.292 614.387 -314.703 630.837 c 0
 -301.113 646.571 -293.246 662.307 -290.385 678.043 c 0
 -285.378 698.784 -284.663 714.52 -287.524 726.679 c 0
 -291.1 738.121 -297.537 746.705 -306.12 751.712 c 1
 -283.948 751.712 -276.081 733.115 -282.518 695.924 c 1
 -237.457 695.924 l 1
 -230.306 733.115 -219.576 751.712 -203.842 751.712 c 0
 -186.676 751.712 -180.954 738.838 -185.961 713.088 c 0
 -188.821 699.499 -197.405 686.625 -212.426 674.466 c 0
 -226.729 662.307 -242.464 654.439 -258.915 650.148 c 1
 -268.212 603.657 l 1
 -131.604 603.657 -48.6357 671.604 -20.7422 806.784 c 1
-385.512 678.043 m 0
 -383.366 688.771 -378.359 698.068 -371.207 704.506 c 0
 -364.054 711.658 -356.187 714.52 -348.319 714.52 c 0
 -341.167 714.52 -336.16 711.658 -334.014 704.506 c 0
 -331.868 698.068 -331.868 688.771 -334.014 678.043 c 0
 -336.16 667.313 -339.737 658.73 -344.743 652.293 c 0
 -350.465 646.571 -356.901 642.996 -364.769 642.996 c 0
 -372.638 642.996 -378.359 646.571 -382.649 652.293 c 0
 -386.227 658.73 -386.941 667.313 -385.512 678.043 c 0
EndSplineSet
Fore
Refer: 109 63244 N 1 0 0 1 -128 0 2
EndChar

StartChar: uni0E4B.low_left
Encoding: 63240 63240 105
Width: 0
Flags: W
HStem: 688 21<-211 -121.238> 772 67<-264 -195 -88 -25>
VStem: -279 269
LayerCount: 2
Back
SplineSet
-209 863 m 5
 -105 863 l 5
 -126 779 l 5
 -48 779 l 5
 -63 712 l 5
 -144 712 l 5
 -166 627 l 5
 -249 627 l 5
 -234 712 l 5
 -316 712 l 5
 -302 779 l 5
 -221 779 l 5
 -209 863 l 5
-203.842 845.406 m 1
 -216.716 763.155 l 1
 -294.677 763.155 l 1
 -308.982 697.354 l 1
 -230.306 697.354 l 1
 -244.61 613.671 l 1
 -162.358 613.671 l 1
 -140.901 697.354 l 1
 -61.5098 697.354 l 1
 -47.2051 763.155 l 1
 -123.021 763.155 l 1
 -102.278 845.406 l 1
 -203.842 845.406 l 1
EndSplineSet
Fore
Refer: 110 63245 N 1 0 0 1 -113 0 2
EndChar

